<svg width="100" height="100" viewBox="0 0 100 100" fill="none" xmlns="http://www.w3.org/2000/svg">
<path d="M97.8516 50C97.8516 76.4275 76.4275 97.8516 50 97.8516C23.5725 97.8516 2.14844 76.4275 2.14844 50C2.14844 23.5725 23.5725 2.14844 50 2.14844C76.4275 2.14844 97.8516 23.5725 97.8516 50Z" fill="#30D6CE"/>
<path d="M94.1406 35.3516C94.1406 36.4304 93.2663 37.3047 92.1875 37.3047C91.1087 37.3047 90.2344 36.4304 90.2344 35.3516C90.2344 19.1971 77.092 6.05469 60.9375 6.05469H39.0625C22.908 6.05469 9.76562 19.1971 9.76562 35.3516C9.76562 36.4304 8.8913 37.3047 7.8125 37.3047C6.7337 37.3047 5.85938 36.4304 5.85938 35.3516C5.85938 17.0433 20.7542 2.14844 39.0625 2.14844H60.9375C79.2458 2.14844 94.1406 17.0433 94.1406 35.3516Z" fill="#025F80"/>
<path d="M100 31.0058V38.8183C100 42.0539 97.377 44.6777 94.1406 44.6777H91.7969C91.7969 45.6527 90.9225 46.4439 89.8438 46.4439C88.765 46.4439 87.8906 45.6527 87.8906 44.6777H84.375C83.2962 44.6777 82.4219 43.8033 82.4219 42.7245V27.0995C82.4219 26.0207 83.2962 25.1464 84.375 25.1464H87.2856L86.6486 23.3955C86.0954 21.8749 86.879 20.1934 88.3995 19.6403C89.92 19.0871 91.6008 19.8707 92.1547 21.3912L93.5211 25.1464H94.1406C97.377 25.1464 100 27.7702 100 31.0058ZM15.625 25.1464H12.7144L13.3514 23.3955C13.9046 21.8749 13.121 20.1934 11.6005 19.6403C10.08 19.0871 8.3992 19.8707 7.84531 21.3912L6.47888 25.1464H5.85938C2.62299 25.1464 0 27.7702 0 31.0058V38.8183C0 42.0539 2.62299 44.6777 5.85938 44.6777H15.625C16.7038 44.6777 17.5781 43.8033 17.5781 42.7245V27.0995C17.5781 26.0207 16.7038 25.1464 15.625 25.1464Z" fill="#FF6466"/>
<path d="M94.1406 31.0059V38.8184C94.1406 42.054 91.5176 44.6777 88.2812 44.6777H84.375C83.2962 44.6777 82.4219 43.8034 82.4219 42.7246V27.0996C82.4219 26.0208 83.2962 25.1465 84.375 25.1465H88.2812C91.5176 25.1465 94.1406 27.7702 94.1406 31.0059ZM5.85938 38.8184V31.0059C5.85938 28.5866 7.32651 26.5106 9.41925 25.6165C9.51004 25.5783 9.57031 25.4906 9.57031 25.3922C9.57031 25.2563 9.46045 25.1465 9.32541 25.1465H5.85938C2.62299 25.1465 0 27.7702 0 31.0059V38.8184C0 42.0547 2.62299 44.6777 5.85938 44.6777H11.7188C8.48236 44.6777 5.85938 42.054 5.85938 38.8184Z" fill="#FF393A"/>
<path d="M55.8594 66.3574C55.8594 70.6718 53.2364 74.1699 50 74.1699C46.7636 74.1699 44.1406 70.6718 44.1406 66.3574C44.1406 62.043 46.7636 58.5449 50 58.5449C53.2364 58.5449 55.8594 62.043 55.8594 66.3574Z" fill="#0069A3"/>
<path d="M55.8594 66.3575C55.8594 69.561 54.4128 72.3122 52.3438 73.5176C50.2747 72.3122 48.8281 69.561 48.8281 66.3575C48.8281 63.1539 50.2747 60.4027 52.3438 59.1973C54.4128 60.4027 55.8594 63.1539 55.8594 66.3575Z" fill="#0088CC"/>
<path d="M87.3047 36.084C87.3047 51.1856 75.0626 63.4277 59.9609 63.4277H40.0391C24.9374 63.4277 12.6953 51.1856 12.6953 36.084C12.6953 20.9824 24.9374 8.74023 40.0391 8.74023H59.9609C75.0626 8.74023 87.3047 20.9824 87.3047 36.084ZM60.9375 67.334H39.0625C28.4218 67.334 19.2024 73.4123 14.6835 82.2868C23.4329 91.851 36.0153 97.8516 50 97.8516C63.9847 97.8516 76.5671 91.851 85.3165 82.2868C80.7976 73.4123 71.5782 67.334 60.9375 67.334Z" fill="#97F0F2"/>
<path d="M59.961 63.4277H47.6525C32.5508 63.4277 20.3087 51.1856 20.3087 36.084C20.3087 20.9824 32.5508 8.74023 47.6525 8.74023H59.961C75.0626 8.74023 87.3047 20.9824 87.3047 36.084C87.3047 51.1856 75.0626 63.4277 59.961 63.4277ZM50 97.8516C63.9847 97.8516 76.5671 91.851 85.3165 82.2868C80.7976 73.4123 71.5782 67.334 60.9375 67.334H46.875C34.2072 67.334 23.5543 75.9483 20.4491 87.6389C28.5851 94.0361 38.8474 97.8516 50 97.8516Z" fill="#C0FBFF"/>
<path d="M67.5781 88.8672C67.5781 90.9981 67.1982 93.0389 66.5031 94.9287C61.3586 96.8193 55.7999 97.6562 50 97.6562C44.2001 97.6562 38.6414 96.8193 33.4969 94.9287C32.8018 93.0389 32.4219 90.9981 32.4219 88.8672C32.4219 79.1588 40.2916 71.2891 50 71.2891C59.7084 71.2891 67.5781 79.1588 67.5781 88.8672Z" fill="#0088CC"/>
<path d="M62.8906 52.6855H37.1094C29.5586 52.6855 23.4375 46.5645 23.4375 39.0137V33.1543C23.4375 25.6035 29.5586 19.4824 37.1094 19.4824H62.8906C70.4414 19.4824 76.5625 25.6035 76.5625 33.1543V39.0137C76.5625 46.5645 70.4414 52.6855 62.8906 52.6855ZM43.9484 93.2877C39.8331 92.3698 36.8347 88.7665 36.8164 84.5497C36.8164 84.5238 36.8164 84.4986 36.8164 84.4727C36.8164 80.7411 37.9799 77.282 39.9628 74.4354C35.405 77.6115 32.4219 82.8903 32.4219 88.8672C32.4219 90.9981 32.8018 93.0389 33.4969 94.9287C38.6414 96.8193 44.2001 97.8516 50 97.8516C55.7983 97.8516 61.3548 96.8201 66.4978 94.931C66.7625 94.2101 66.9861 93.4692 67.1562 92.7071C63.0928 93.8301 58.815 94.4336 54.3945 94.4336C50.8064 94.4336 47.3106 94.0376 43.9484 93.2877Z" fill="#006CBC"/>
<path d="M62.8906 52.6855H42.9688C35.4179 52.6855 29.2969 46.5645 29.2969 39.0137V33.1543C29.2969 25.6035 35.4179 19.4824 42.9688 19.4824H62.8906C70.4414 19.4824 76.5625 25.6035 76.5625 33.1543V39.0137C76.5625 46.5645 70.4414 52.6855 62.8906 52.6855Z" fill="#0088CC"/>
<path d="M55.5245 41.5878C56.2874 42.3508 56.2874 43.5867 55.5245 44.3497C52.4781 47.3961 47.522 47.3961 44.4756 44.3497C43.7134 43.5875 43.7134 42.3508 44.4756 41.5878C45.2386 40.8249 46.4753 40.8249 47.2382 41.5878C48.761 43.1107 51.2391 43.1107 52.7627 41.5878C53.1441 41.2064 53.6439 41.0156 54.1436 41.0156C54.6433 41.0156 55.143 41.2064 55.5245 41.5878ZM44.1758 29.628C41.1294 26.5823 36.1725 26.5823 33.1269 29.628C32.364 30.3909 32.364 31.6277 33.1269 32.3906C33.8898 33.1528 35.1266 33.1528 35.8895 32.3906C37.4123 30.867 39.8904 30.867 41.4132 32.3906C41.7946 32.7721 42.2944 32.9628 42.7941 32.9628C43.2938 32.9628 43.7943 32.7721 44.1758 32.3906C44.938 31.6277 44.938 30.3909 44.1758 29.628ZM66.8732 29.628C63.8268 26.5823 58.8708 26.5823 55.8243 29.628C55.0622 30.3909 55.0622 31.6277 55.8243 32.3906C56.5873 33.1528 57.824 33.1528 58.5869 32.3906C60.1098 30.867 62.5878 30.867 64.1114 32.3906C64.4929 32.7721 64.9926 32.9628 65.4923 32.9628C65.992 32.9628 66.4918 32.7721 66.8732 32.3906C67.6362 31.6277 67.6362 30.3909 66.8732 29.628Z" fill="#30D6CE"/>
<path d="M52.9297 87.5V97.7631C51.96 97.8218 50.9842 97.8516 50 97.8516C49.0158 97.8516 48.04 97.8218 47.0703 97.7631V87.5C47.0703 85.8818 48.3818 84.5703 50 84.5703C51.6182 84.5703 52.9297 85.8818 52.9297 87.5Z" fill="#84DEEA"/>
<path d="M52.9297 87.5V91.7969C52.9297 93.4151 51.6182 94.7266 50 94.7266C48.3818 94.7266 47.0703 93.4151 47.0703 91.7969V87.5C47.0703 85.8818 48.3818 84.5703 50 84.5703C51.6182 84.5703 52.9297 85.8818 52.9297 87.5ZM50 82.2266C51.9417 82.2266 53.5156 80.6526 53.5156 78.7109C53.5156 76.7693 51.9417 75.1953 50 75.1953C48.0583 75.1953 46.4844 76.7693 46.4844 78.7109C46.4844 80.6526 48.0583 82.2266 50 82.2266Z" fill="#FFF5F5"/>
<path d="M91.7969 44.6777V48.584C91.7969 52.8915 88.2919 56.3965 83.9844 56.3965H50.7812V52.4902H83.9844C86.1382 52.4902 87.8906 50.7378 87.8906 48.584V44.6777H91.7969Z" fill="#025F80"/>
<path d="M56.4346 57.4432H43.5654C41.7259 57.4432 40.2344 55.9517 40.2344 54.1122C40.2344 52.2728 41.7259 50.7812 43.5654 50.7812H56.4346C58.2741 50.7812 59.7656 52.2728 59.7656 54.1122C59.7656 55.9525 58.2741 57.4432 56.4346 57.4432Z" fill="#FF6466"/>
<path d="M56.4346 57.4432H49.4247C47.5853 57.4432 46.0938 55.9517 46.0938 54.1122C46.0938 52.2728 47.5853 50.7812 49.4247 50.7812H56.4346C58.2741 50.7812 59.7656 52.2728 59.7656 54.1122C59.7656 55.9525 58.2741 57.4432 56.4346 57.4432Z" fill="#FF895A"/>
</svg>
