<svg width="100" height="100" viewBox="0 0 100 100" fill="none" xmlns="http://www.w3.org/2000/svg">
<path d="M73.4375 98.4375H1.5625V1.5625H57.8125L73.4375 17.1875V98.4375Z" fill="#23A8CC"/>
<g opacity="0.2">
<path opacity="0.2" d="M54.6875 1.5625V20.3125H73.4375V17.1875L57.8125 1.5625H54.6875Z" fill="#231F20"/>
</g>
<path d="M57.8125 1.5625V17.1875H73.4375L57.8125 1.5625Z" fill="#DFDFDF"/>
<path d="M20.3125 18.75H18.75C18.3356 18.75 17.9382 18.5854 17.6451 18.2924C17.3521 17.9993 17.1875 17.6019 17.1875 17.1875C17.1875 16.7731 17.3521 16.3757 17.6451 16.0826C17.9382 15.7896 18.3356 15.625 18.75 15.625H20.3125C20.7269 15.625 21.1243 15.7896 21.4174 16.0826C21.7104 16.3757 21.875 16.7731 21.875 17.1875C21.875 17.6019 21.7104 17.9993 21.4174 18.2924C21.1243 18.5854 20.7269 18.75 20.3125 18.75Z" fill="white"/>
<path d="M26.5625 18.75H25C24.5856 18.75 24.1882 18.5854 23.8951 18.2924C23.6021 17.9993 23.4375 17.6019 23.4375 17.1875C23.4375 16.7731 23.6021 16.3757 23.8951 16.0826C24.1882 15.7896 24.5856 15.625 25 15.625H26.5625C26.9769 15.625 27.3743 15.7896 27.6674 16.0826C27.9604 16.3757 28.125 16.7731 28.125 17.1875C28.125 17.6019 27.9604 17.9993 27.6674 18.2924C27.3743 18.5854 26.9769 18.75 26.5625 18.75Z" fill="white"/>
<path d="M14.0625 18.75H12.5C12.0856 18.75 11.6882 18.5854 11.3951 18.2924C11.1021 17.9993 10.9375 17.6019 10.9375 17.1875C10.9375 16.7731 11.1021 16.3757 11.3951 16.0826C11.6882 15.7896 12.0856 15.625 12.5 15.625H14.0625C14.4769 15.625 14.8743 15.7896 15.1674 16.0826C15.4604 16.3757 15.625 16.7731 15.625 17.1875C15.625 17.6019 15.4604 17.9993 15.1674 18.2924C14.8743 18.5854 14.4769 18.75 14.0625 18.75Z" fill="white"/>
<path d="M45.3125 67.1875H43.75C43.3356 67.1875 42.9382 67.0229 42.6451 66.7299C42.3521 66.4368 42.1875 66.0394 42.1875 65.625C42.1875 65.2106 42.3521 64.8132 42.6451 64.5201C42.9382 64.2271 43.3356 64.0625 43.75 64.0625H45.3125C45.7269 64.0625 46.1243 64.2271 46.4174 64.5201C46.7104 64.8132 46.875 65.2106 46.875 65.625C46.875 66.0394 46.7104 66.4368 46.4174 66.7299C46.1243 67.0229 45.7269 67.1875 45.3125 67.1875Z" fill="white"/>
<path d="M39.0625 67.1875H37.5C37.0856 67.1875 36.6882 67.0229 36.3951 66.7299C36.1021 66.4368 35.9375 66.0394 35.9375 65.625C35.9375 65.2106 36.1021 64.8132 36.3951 64.5201C36.6882 64.2271 37.0856 64.0625 37.5 64.0625H39.0625C39.4769 64.0625 39.8743 64.2271 40.1674 64.5201C40.4604 64.8132 40.625 65.2106 40.625 65.625C40.625 66.0394 40.4604 66.4368 40.1674 66.7299C39.8743 67.0229 39.4769 67.1875 39.0625 67.1875Z" fill="white"/>
<path d="M42.1875 90.625H12.5C12.0856 90.625 11.6882 90.4604 11.3951 90.1674C11.1021 89.8743 10.9375 89.4769 10.9375 89.0625C10.9375 88.6481 11.1021 88.2507 11.3951 87.9576C11.6882 87.6646 12.0856 87.5 12.5 87.5H42.1875C42.6019 87.5 42.9993 87.6646 43.2924 87.9576C43.5854 88.2507 43.75 88.6481 43.75 89.0625C43.75 89.4769 43.5854 89.8743 43.2924 90.1674C42.9993 90.4604 42.6019 90.625 42.1875 90.625Z" fill="white"/>
<path d="M32.8125 12.5H12.5C12.0856 12.5 11.6882 12.3354 11.3951 12.0424C11.1021 11.7493 10.9375 11.3519 10.9375 10.9375C10.9375 10.5231 11.1021 10.1257 11.3951 9.83265C11.6882 9.53962 12.0856 9.375 12.5 9.375H32.8125C33.2269 9.375 33.6243 9.53962 33.9174 9.83265C34.2104 10.1257 34.375 10.5231 34.375 10.9375C34.375 11.3519 34.2104 11.7493 33.9174 12.0424C33.6243 12.3354 33.2269 12.5 32.8125 12.5Z" fill="white"/>
<path d="M62.5 29.6875H12.5C12.0856 29.6875 11.6882 29.5229 11.3951 29.2299C11.1021 28.9368 10.9375 28.5394 10.9375 28.125C10.9375 27.7106 11.1021 27.3132 11.3951 27.0201C11.6882 26.7271 12.0856 26.5625 12.5 26.5625H62.5C62.9144 26.5625 63.3118 26.7271 63.6049 27.0201C63.8979 27.3132 64.0625 27.7106 64.0625 28.125C64.0625 28.5394 63.8979 28.9368 63.6049 29.2299C63.3118 29.5229 62.9144 29.6875 62.5 29.6875Z" fill="white"/>
<path d="M62.5 35.9375H12.5C12.0856 35.9375 11.6882 35.7729 11.3951 35.4799C11.1021 35.1868 10.9375 34.7894 10.9375 34.375C10.9375 33.9606 11.1021 33.5632 11.3951 33.2701C11.6882 32.9771 12.0856 32.8125 12.5 32.8125H62.5C62.9144 32.8125 63.3118 32.9771 63.6049 33.2701C63.8979 33.5632 64.0625 33.9606 64.0625 34.375C64.0625 34.7894 63.8979 35.1868 63.6049 35.4799C63.3118 35.7729 62.9144 35.9375 62.5 35.9375Z" fill="white"/>
<path d="M62.5 42.1875H12.5C12.0856 42.1875 11.6882 42.0229 11.3951 41.7299C11.1021 41.4368 10.9375 41.0394 10.9375 40.625C10.9375 40.2106 11.1021 39.8132 11.3951 39.5201C11.6882 39.2271 12.0856 39.0625 12.5 39.0625H62.5C62.9144 39.0625 63.3118 39.2271 63.6049 39.5201C63.8979 39.8132 64.0625 40.2106 64.0625 40.625C64.0625 41.0394 63.8979 41.4368 63.6049 41.7299C63.3118 42.0229 62.9144 42.1875 62.5 42.1875Z" fill="white"/>
<path d="M62.5 48.4375H12.5C12.0856 48.4375 11.6882 48.2729 11.3951 47.9799C11.1021 47.6868 10.9375 47.2894 10.9375 46.875C10.9375 46.4606 11.1021 46.0632 11.3951 45.7701C11.6882 45.4771 12.0856 45.3125 12.5 45.3125H62.5C62.9144 45.3125 63.3118 45.4771 63.6049 45.7701C63.8979 46.0632 64.0625 46.4606 64.0625 46.875C64.0625 47.2894 63.8979 47.6868 63.6049 47.9799C63.3118 48.2729 62.9144 48.4375 62.5 48.4375Z" fill="white"/>
<path d="M56.25 54.6875H12.5C12.0856 54.6875 11.6882 54.5229 11.3951 54.2299C11.1021 53.9368 10.9375 53.5394 10.9375 53.125C10.9375 52.7106 11.1021 52.3132 11.3951 52.0201C11.6882 51.7271 12.0856 51.5625 12.5 51.5625H56.25C56.6644 51.5625 57.0618 51.7271 57.3549 52.0201C57.6479 52.3132 57.8125 52.7106 57.8125 53.125C57.8125 53.5394 57.6479 53.9368 57.3549 54.2299C57.0618 54.5229 56.6644 54.6875 56.25 54.6875Z" fill="white"/>
<path d="M50 60.9375H12.5C12.0856 60.9375 11.6882 60.7729 11.3951 60.4799C11.1021 60.1868 10.9375 59.7894 10.9375 59.375C10.9375 58.9606 11.1021 58.5632 11.3951 58.2701C11.6882 57.9771 12.0856 57.8125 12.5 57.8125H50C50.4144 57.8125 50.8118 57.9771 51.1049 58.2701C51.3979 58.5632 51.5625 58.9606 51.5625 59.375C51.5625 59.7894 51.3979 60.1868 51.1049 60.4799C50.8118 60.7729 50.4144 60.9375 50 60.9375Z" fill="white"/>
<path d="M32.8125 67.1875H12.5C12.0856 67.1875 11.6882 67.0229 11.3951 66.7299C11.1021 66.4368 10.9375 66.0394 10.9375 65.625C10.9375 65.2106 11.1021 64.8132 11.3951 64.5201C11.6882 64.2271 12.0856 64.0625 12.5 64.0625H32.8125C33.2269 64.0625 33.6243 64.2271 33.9174 64.5201C34.2104 64.8132 34.375 65.2106 34.375 65.625C34.375 66.0394 34.2104 66.4368 33.9174 66.7299C33.6243 67.0229 33.2269 67.1875 32.8125 67.1875Z" fill="white"/>
<path d="M45.3125 73.4375H12.5C12.0856 73.4375 11.6882 73.2729 11.3951 72.9799C11.1021 72.6868 10.9375 72.2894 10.9375 71.875C10.9375 71.4606 11.1021 71.0632 11.3951 70.7701C11.6882 70.4771 12.0856 70.3125 12.5 70.3125H45.3125C45.7269 70.3125 46.1243 70.4771 46.4174 70.7701C46.7104 71.0632 46.875 71.4606 46.875 71.875C46.875 72.2894 46.7104 72.6868 46.4174 72.9799C46.1243 73.2729 45.7269 73.4375 45.3125 73.4375Z" fill="white"/>
<path d="M45.3125 79.6875H12.5C12.0856 79.6875 11.6882 79.5229 11.3951 79.2299C11.1021 78.9368 10.9375 78.5394 10.9375 78.125C10.9375 77.7106 11.1021 77.3132 11.3951 77.0201C11.6882 76.7271 12.0856 76.5625 12.5 76.5625H45.3125C45.7269 76.5625 46.1243 76.7271 46.4174 77.0201C46.7104 77.3132 46.875 77.7106 46.875 78.125C46.875 78.5394 46.7104 78.9368 46.4174 79.2299C46.1243 79.5229 45.7269 79.6875 45.3125 79.6875Z" fill="white"/>
<path d="M98.036 79.0374C97.2024 83.5589 95.0488 87.7323 91.8466 91.0315C88.6443 94.3306 84.537 96.6078 80.0424 97.5758C75.5477 98.5438 70.8671 98.1594 66.5907 96.4709C62.3143 94.7824 58.6336 91.8656 56.0126 88.0881C53.3917 84.3106 51.9479 79.8417 51.8633 75.2448C51.7787 70.6479 53.0571 66.1289 55.5373 62.2575C58.0175 58.3862 61.5884 55.3359 65.7998 53.4912C70.0112 51.6465 74.6745 51.0901 79.2017 51.8921C82.2218 52.4355 85.1052 53.5691 87.6869 55.2279C90.2686 56.8868 92.4978 59.0384 94.2472 61.5596C95.9965 64.0809 97.2316 66.9223 97.8817 69.9213C98.5318 72.9203 98.5843 76.0181 98.036 79.0374Z" fill="#7ED957"/>
<path d="M67.1878 84.3745C66.7735 84.3744 66.3761 84.2098 66.0831 83.9167L59.8331 77.6667C59.5485 77.372 59.391 76.9773 59.3946 76.5677C59.3982 76.158 59.5625 75.7661 59.8522 75.4764C60.1419 75.1867 60.5338 75.0223 60.9435 75.0188C61.3531 75.0152 61.7478 75.1727 62.0425 75.4573L67.1988 80.6136L84.9425 63.0527C85.2387 62.7692 85.6345 62.6136 86.0444 62.6193C86.4543 62.625 86.8455 62.7915 87.1338 63.0831C87.422 63.3746 87.5841 63.7677 87.5852 64.1776C87.5862 64.5876 87.4261 64.9815 87.1394 65.2745L68.2816 83.923C67.9903 84.2111 67.5975 84.3732 67.1878 84.3745Z" fill="white"/>
<g opacity="0.2">
<path opacity="0.2" d="M97.8503 69.8778C97.1322 66.7135 95.7611 63.734 93.8248 61.1303C91.8886 58.5266 89.4298 56.3561 86.6061 54.7576C83.7823 53.1592 80.6559 52.1682 77.4269 51.8481C74.198 51.5279 70.9378 51.8857 67.8552 52.8986C64.7726 53.9114 61.9355 55.5569 59.5256 57.7297C57.1158 59.9025 55.1863 62.5547 53.8608 65.5164C52.5354 68.4781 51.8431 71.6839 51.8284 74.9287C51.8136 78.1734 52.4768 81.3854 53.7753 84.359C58.7816 78.0856 72.5847 65.02 97.8503 69.8778Z" fill="white"/>
</g>
</svg>
