<svg width="509" height="508" viewBox="0 0 509 508" fill="none" xmlns="http://www.w3.org/2000/svg">
<path fill-rule="evenodd" clip-rule="evenodd" d="M224.703 33.2969H268.649C276.738 33.2969 283.297 40.832 283.297 48.9219V63.5703C283.297 79.7509 270.181 92.8671 254 92.8671H136.813C120.632 92.8671 107.516 79.7509 107.516 63.5703V48.9219C107.516 40.832 114.074 33.2969 122.164 33.2969H166.11C166.11 17.1162 179.226 4 195.406 4C211.587 4 224.703 17.1162 224.703 33.2969ZM313.57 63.5704H342.867C367.1 63.5704 386.812 83.2833 386.812 107.516V459.078C386.812 483.31 367.1 504 342.867 504H48.9219C24.6894 504 4 483.31 4 459.078V107.516C4 83.2833 24.6894 63.5704 48.9219 63.5704H78.2187C78.2187 95.8858 104.497 122.164 136.812 122.164H254C286.315 122.164 313.57 95.8858 313.57 63.5704ZM67.8623 155.752C62.1406 161.474 62.1406 170.744 67.8623 176.466L86.8017 195.406L67.8613 214.347C62.1396 220.068 62.1396 229.339 67.8613 235.061C73.583 240.782 82.8535 240.782 88.5752 235.061L107.516 216.12L126.456 235.061C132.178 240.782 141.448 240.782 147.17 235.061C152.892 229.339 152.892 220.068 147.17 214.347L128.229 195.406L147.17 176.466C152.892 170.744 152.892 161.474 147.17 155.752C141.448 150.03 132.178 150.03 126.456 155.752L107.516 174.692L88.5761 155.752C82.8545 150.03 73.584 150.03 67.8623 155.752ZM117.873 440.138L176.467 381.544C182.188 375.822 182.188 366.552 176.467 360.83C170.745 355.108 161.475 355.108 155.753 360.83L107.516 409.067L88.5761 390.128C82.8545 384.406 73.584 384.406 67.8623 390.128C62.1396 395.85 62.1396 405.119 67.8633 410.841L97.1601 440.138C100.02 442.999 103.77 444.43 107.517 444.43C111.264 444.43 115.012 442.999 117.873 440.138ZM117.873 337.599L176.467 279.005C182.188 273.283 182.188 264.013 176.467 258.291C170.745 252.569 161.475 252.569 155.753 258.291L107.516 306.528L88.5761 287.589C82.8545 281.867 73.584 281.867 67.8623 287.589C62.1396 293.311 62.1396 302.58 67.8633 308.302L97.1601 337.599C100.02 340.46 103.77 341.891 107.517 341.891C111.264 341.891 115.012 340.46 117.873 337.599ZM224.703 415.133H313.57C321.667 415.133 328.219 408.581 328.219 400.484C328.219 392.388 321.667 385.836 313.57 385.836H224.703C216.606 385.836 210.055 392.388 210.055 400.484C210.055 408.581 216.606 415.133 224.703 415.133ZM224.703 312.594H313.57C321.667 312.594 328.219 306.042 328.219 297.945C328.219 289.849 321.667 283.297 313.57 283.297H224.703C216.606 283.297 210.055 289.849 210.055 297.945C210.055 306.042 216.606 312.594 224.703 312.594ZM224.703 210.055H313.57C321.667 210.055 328.219 203.503 328.219 195.406C328.219 187.31 321.667 180.758 313.57 180.758H224.703C216.606 180.758 210.055 187.31 210.055 195.406C210.055 203.503 216.606 210.055 224.703 210.055ZM460.055 92.8673C435.823 92.8673 416.11 112.58 416.11 136.813V180.758H504.001V136.813C504.001 112.58 484.288 92.8673 460.055 92.8673ZM416.134 210.055V365.121L420.425 360.83C442.284 338.972 477.875 338.972 499.734 360.83L504.026 365.122V210.055H416.134ZM441.111 381.511C451.553 371.068 468.548 371.068 478.991 381.511L495.745 398.266L473.941 463.68C471.953 469.659 466.359 473.694 460.05 473.694C453.742 473.694 448.149 469.659 446.161 463.68L424.356 398.266L441.111 381.511Z" fill="#C6D5FF"/>
<path d="M224.703 33.2969H220.703C220.703 35.506 222.494 37.2969 224.703 37.2969V33.2969ZM166.11 33.2969V37.2969C168.319 37.2969 170.11 35.506 170.11 33.2969H166.11ZM313.57 63.5704V59.5704C311.361 59.5704 309.57 61.3613 309.57 63.5704H313.57ZM78.2187 63.5704H82.2187C82.2187 61.3613 80.4279 59.5704 78.2187 59.5704V63.5704ZM67.8623 176.466L70.6908 173.637L70.6907 173.637L67.8623 176.466ZM86.8017 195.406L89.6302 198.235C91.1922 196.673 91.1923 194.14 89.6302 192.578L86.8017 195.406ZM88.5752 235.061L85.7467 232.232L85.7467 232.232L88.5752 235.061ZM107.516 216.12L110.344 213.292C108.782 211.73 106.249 211.73 104.687 213.292L107.516 216.12ZM126.456 235.061L129.284 232.232L129.284 232.232L126.456 235.061ZM147.17 214.347L144.341 217.175L144.341 217.175L147.17 214.347ZM128.229 195.406L125.401 192.578C123.839 194.14 123.839 196.673 125.401 198.235L128.229 195.406ZM147.17 176.466L144.341 173.637L144.341 173.637L147.17 176.466ZM126.456 155.752L129.284 158.58L129.284 158.58L126.456 155.752ZM107.516 174.692L104.687 177.521C105.437 178.271 106.455 178.692 107.516 178.692C108.576 178.692 109.594 178.271 110.344 177.521L107.516 174.692ZM88.5761 155.752L91.4046 152.924L91.4046 152.924L88.5761 155.752ZM176.467 381.544L179.295 384.372L179.295 384.372L176.467 381.544ZM117.873 440.138L115.045 437.309L115.045 437.309L117.873 440.138ZM155.753 360.83L158.581 363.658L158.581 363.658L155.753 360.83ZM107.516 409.067L104.687 411.896C105.437 412.646 106.455 413.067 107.516 413.067C108.576 413.067 109.594 412.646 110.344 411.896L107.516 409.067ZM88.5761 390.128L91.4046 387.299L91.4046 387.299L88.5761 390.128ZM67.8623 390.128L70.6905 392.957L70.6907 392.956L67.8623 390.128ZM67.8633 410.841L70.6917 408.012L70.6912 408.012L67.8633 410.841ZM97.1601 440.138L99.989 437.31L99.9886 437.309L97.1601 440.138ZM176.467 279.005L173.638 276.176L173.638 276.176L176.467 279.005ZM117.873 337.599L120.701 340.427L120.701 340.427L117.873 337.599ZM176.467 258.291L173.638 261.119L173.638 261.119L176.467 258.291ZM155.753 258.291L158.581 261.119L158.581 261.119L155.753 258.291ZM107.516 306.528L104.687 309.357C106.249 310.919 108.782 310.919 110.344 309.357L107.516 306.528ZM88.5761 287.589L91.4046 284.76L91.4046 284.76L88.5761 287.589ZM67.8623 287.589L70.6905 290.418L70.6907 290.417L67.8623 287.589ZM67.8633 308.302L70.6917 305.473L70.6912 305.473L67.8633 308.302ZM97.1601 337.599L99.989 334.771L99.9886 334.77L97.1601 337.599ZM416.11 180.758H412.11C412.11 182.967 413.901 184.758 416.11 184.758V180.758ZM504.001 180.758V184.758C506.21 184.758 508.001 182.967 508.001 180.758H504.001ZM416.134 365.121H412.134C412.134 366.739 413.109 368.198 414.604 368.817C416.098 369.436 417.819 369.094 418.963 367.95L416.134 365.121ZM416.134 210.055V206.055C413.925 206.055 412.134 207.846 412.134 210.055H416.134ZM420.425 360.83L417.597 358.002L417.597 358.002L420.425 360.83ZM499.734 360.83L502.562 358.002L502.562 358.002L499.734 360.83ZM504.026 365.122L501.197 367.951C502.341 369.095 504.062 369.437 505.556 368.818C507.051 368.199 508.026 366.74 508.026 365.122H504.026ZM504.026 210.055H508.026C508.026 207.846 506.235 206.055 504.026 206.055V210.055ZM478.991 381.511L481.819 378.682L481.819 378.682L478.991 381.511ZM441.111 381.511L438.282 378.682L438.282 378.682L441.111 381.511ZM495.745 398.266L499.54 399.531C500.019 398.093 499.645 396.509 498.574 395.437L495.745 398.266ZM473.941 463.68L470.146 462.415L470.145 462.418L473.941 463.68ZM446.161 463.68L449.956 462.418L449.955 462.415L446.161 463.68ZM424.356 398.266L421.527 395.437C420.456 396.509 420.082 398.093 420.561 399.531L424.356 398.266ZM257.662 29.2969H253.662V37.2969H257.662V29.2969ZM235.69 37.2969H239.69V29.2969H235.69V37.2969ZM226.175 20.5501L224.643 16.8552L217.253 19.9195L218.785 23.6145L226.175 20.5501ZM205.089 9.91788L208.784 11.45L211.848 4.06019L208.153 2.52803L205.089 9.91788ZM182.66 2.52803L178.965 4.06019L182.029 11.45L185.724 9.91788L182.66 2.52803ZM172.027 23.6145L173.56 19.9195L166.17 16.8552L164.638 20.5501L172.027 23.6145ZM155.123 29.2969H151.123V37.2969H155.123V29.2969ZM133.151 37.2969H137.151V29.2969H133.151V37.2969ZM114.721 30.9997L111.111 32.7221L114.555 39.9424L118.166 38.22L114.721 30.9997ZM112.355 44.6185L113.828 40.8995L106.39 37.9538L104.917 41.6728L112.355 44.6185ZM103.516 52.584V56.584H111.516V52.584H103.516ZM111.516 59.9082V55.9082H103.516V59.9082H111.516ZM106.044 76.317L107.576 80.0119L114.966 76.9476L113.434 73.2527L106.044 76.317ZM127.13 86.9493L123.435 85.4171L120.371 92.807L124.066 94.3391L127.13 86.9493ZM146.578 96.8671H150.578V88.8671H146.578V96.8671ZM166.11 88.8671H162.11V96.8671H166.11V88.8671ZM185.641 96.8671H189.641V88.8671H185.641V96.8671ZM205.172 88.8671H201.172V96.8671H205.172V88.8671ZM224.703 96.8671H228.703V88.8671H224.703V96.8671ZM244.234 88.8671H240.234V96.8671H244.234V88.8671ZM266.747 94.3391L270.442 92.807L267.377 85.4171L263.682 86.9493L266.747 94.3391ZM277.379 73.2527L275.847 76.9476L283.237 80.0119L284.769 76.317L277.379 73.2527ZM287.297 59.9082V55.9082H279.297V59.9082H287.297ZM279.297 52.584V56.584H287.297V52.584H279.297ZM285.896 41.6728L284.423 37.9538L276.985 40.8995L278.458 44.6185L285.896 41.6728ZM272.647 38.22L276.257 39.9424L279.702 32.7221L276.092 30.9997L272.647 38.22ZM335.543 59.5704H331.543V67.5704H335.543V59.5704ZM320.894 67.5704H324.894V59.5704H320.894V67.5704ZM308.479 74.2678L307.67 78.1851L315.504 79.8042L316.314 75.8869L308.479 74.2678ZM306.595 98.4962L308.87 95.2065L302.291 90.6555L300.015 93.9452L306.595 98.4962ZM284.62 108.956L281.278 111.153L285.672 117.838L289.015 115.641L284.62 108.956ZM266.289 124.961L270.213 124.185L268.661 116.337L264.737 117.113L266.289 124.961ZM244.234 118.164H240.234V126.164H244.234V118.164ZM224.703 126.164H228.703V118.164H224.703V126.164ZM205.172 118.164H201.172V126.164H205.172V118.164ZM185.641 126.164H189.641V118.164H185.641V126.164ZM166.109 118.164H162.109V126.164H166.109V118.164ZM146.578 126.164H150.578V118.164H146.578V126.164ZM126.159 117.122L122.235 116.343L120.678 124.19L124.602 124.969L126.159 117.122ZM102.043 115.602L105.366 117.828L109.82 111.183L106.497 108.956L102.043 115.602ZM91.4269 93.8859L89.2 90.5631L82.5544 95.0168L84.7813 98.3396L91.4269 93.8859ZM75.4142 75.7813L76.1928 79.7048L84.0398 78.1475L83.2611 74.224L75.4142 75.7813ZM70.8945 59.5704H66.8945V67.5704H70.8945V59.5704ZM56.2461 67.5704H60.2461V59.5704H56.2461V67.5704ZM39.491 60.4941L35.567 61.27L37.1188 69.1181L41.0428 68.3421L39.491 60.4941ZM26.4285 74.3151L29.7773 72.1276L25.4021 65.4299L22.0533 67.6175L26.4285 74.3151ZM8.51732 80.711L6.22575 83.9895L12.7828 88.5727L15.0744 85.2941L8.51732 80.711ZM8.80959 99.6872L9.62978 95.7722L1.79976 94.1318L0.979574 98.0468L8.80959 99.6872ZM0 117.281V121.281H8V117.281H0ZM8 136.813V132.813H0V136.813H8ZM0 156.344V160.344H8V156.344H0ZM8 175.875V171.875H0V175.875H8ZM0 195.406V199.406H8V195.406H0ZM8 214.938V210.938H0V214.938H8ZM0 234.469V238.469H8V234.469H0ZM8 254V250H0V254H8ZM0 273.531V277.531H8V273.531H0ZM8 293.063V289.063H0V293.063H8ZM0 312.594V316.594H8V312.594H0ZM8 332.125V328.125H0V332.125H8ZM0 351.656V355.656H8V351.656H0ZM8 371.188V367.188H0V371.188H8ZM0 390.719V394.719H8V390.719H0ZM8 410.25V406.25H0V410.25H8ZM0 429.781V433.781H8V429.781H0ZM8 449.312V445.312H0V449.312H8ZM0.987194 468.624L1.80397 472.539L9.63541 470.906L8.81864 466.99L0.987194 468.624ZM15.08 481.615L12.8283 478.309L6.21619 482.813L8.46785 486.119L15.08 481.615ZM21.8813 499.532L25.1873 501.784L29.6906 495.172L26.3846 492.92L21.8813 499.532ZM41.0097 499.181L37.094 498.364L35.4605 506.196L39.3762 507.013L41.0097 499.181ZM59.4199 508H63.4199V500H59.4199V508ZM80.416 500H76.416V508H80.416V500ZM101.412 508H105.412V500H101.412V508ZM122.408 500H118.408V508H122.408V500ZM143.404 508H147.404V500H143.404V508ZM164.4 500H160.4V508H164.4V500ZM185.396 508H189.396V500H185.396V508ZM206.393 500H202.393V508H206.393V500ZM227.389 508H231.389V500H227.389V508ZM248.385 500H244.385V508H248.385V500ZM269.381 508H273.381V500H269.381V508ZM290.377 500H286.377V508H290.377V500ZM311.373 508H315.373V500H311.373V508ZM332.369 500H328.369V508H332.369V500ZM352.336 507.02L356.251 506.2L354.611 498.37L350.696 499.19L352.336 507.02ZM365.089 492.926L361.81 495.217L366.393 501.774L369.672 499.483L365.089 492.926ZM382.765 485.947L384.953 482.598L378.255 478.223L376.068 481.571L382.765 485.947ZM382.041 466.957L381.265 470.881L389.113 472.433L389.889 468.509L382.041 466.957ZM390.812 449.312V445.312H382.812V449.312H390.812ZM382.812 429.781V433.781H390.812V429.781H382.812ZM390.812 410.25V406.25H382.812V410.25H390.812ZM382.812 390.719V394.719H390.812V390.719H382.812ZM390.812 371.187V367.187H382.812V371.187H390.812ZM382.812 351.656V355.656H390.812V351.656H382.812ZM390.812 332.125V328.125H382.812V332.125H390.812ZM382.812 312.594V316.594H390.812V312.594H382.812ZM390.812 293.062V289.062H382.812V293.062H390.812ZM382.812 273.531V277.531H390.812V273.531H382.812ZM390.812 254V250H382.812V254H390.812ZM382.812 234.469V238.469H390.812V234.469H382.812ZM390.812 214.937V210.937H382.812V214.937H390.812ZM382.812 195.406V199.406H390.812V195.406H382.812ZM390.812 175.875V171.875H382.812V175.875H390.812ZM382.812 156.344V160.344H390.812V156.344H382.812ZM390.812 136.812V132.812H382.812V136.812H390.812ZM382.812 117.281V121.281H390.812V117.281H382.812ZM389.896 98.1628L389.117 94.2394L381.27 95.7973L382.049 99.7207L389.896 98.1628ZM376.074 85.3372L378.301 88.6599L384.947 84.2058L382.72 80.8831L376.074 85.3372ZM369.5 67.6632L366.177 65.4362L361.723 72.0815L365.046 74.3086L369.5 67.6632ZM350.662 68.3334L354.586 69.1123L356.143 61.2655L352.22 60.4865L350.662 68.3334ZM68.3789 170.186L66.849 166.49L59.4572 169.55L60.9871 173.245L68.3789 170.186ZM60.9871 158.972L59.4572 162.668L66.849 165.728L68.3789 162.032L60.9871 158.972ZM74.1424 156.269L77.8383 154.739L74.7786 147.347L71.0827 148.877L74.1424 156.269ZM85.3557 148.877L81.6598 147.347L78.6001 154.739L82.296 156.269L85.3557 148.877ZM90.4825 163.315L93.3109 166.144L98.9679 160.487L96.1395 157.659L90.4825 163.315ZM105.609 167.129L102.781 164.3L97.1239 169.957L99.9522 172.786L105.609 167.129ZM115.079 172.786L117.908 169.957L112.251 164.3L109.422 167.129L115.079 172.786ZM118.892 157.659L116.064 160.487L121.721 166.144L124.549 163.316L118.892 157.659ZM132.736 156.269L136.432 154.739L133.372 147.347L129.676 148.877L132.736 156.269ZM143.949 148.877L140.254 147.347L137.194 154.739L140.89 156.269L143.949 148.877ZM146.653 162.032L148.183 165.728L155.575 162.668L154.045 158.972L146.653 162.032ZM154.045 173.245L155.575 169.55L148.183 166.49L146.653 170.186L154.045 173.245ZM139.606 178.373L136.778 181.201L142.435 186.858L145.263 184.029L139.606 178.373ZM135.793 193.5L138.621 190.671L132.965 185.014L130.136 187.843L135.793 193.5ZM130.136 202.97L132.965 205.798L138.621 200.141L135.793 197.313L130.136 202.97ZM145.263 206.783L142.435 203.955L136.778 209.612L139.606 212.44L145.263 206.783ZM146.653 220.627L148.183 224.323L155.575 221.263L154.045 217.567L146.653 220.627ZM154.045 231.84L155.575 228.144L148.183 225.085L146.653 228.78L154.045 231.84ZM140.89 234.544L137.194 236.074L140.254 243.466L143.949 241.936L140.89 234.544ZM129.676 241.936L133.372 243.466L136.432 236.074L132.736 234.544L129.676 241.936ZM124.549 227.497L121.721 224.669L116.064 230.325L118.892 233.154L124.549 227.497ZM109.422 223.684L112.251 226.512L117.908 220.855L115.079 218.027L109.422 223.684ZM99.9521 218.027L97.1236 220.855L102.78 226.512L105.609 223.684L99.9521 218.027ZM96.1387 233.154L98.9671 230.325L93.3103 224.669L90.4819 227.497L96.1387 233.154ZM82.2951 234.544L78.5992 236.074L81.6588 243.466L85.3547 241.936L82.2951 234.544ZM71.0817 241.936L74.7776 243.466L77.8373 236.074L74.1414 234.544L71.0817 241.936ZM68.3779 228.78L66.848 225.085L59.4563 228.144L60.9861 231.84L68.3779 228.78ZM60.9861 217.567L59.4563 221.263L66.848 224.323L68.3779 220.627L60.9861 217.567ZM75.4248 212.44L78.2533 209.612L72.5964 203.955L69.768 206.783L75.4248 212.44ZM79.2382 197.313L76.4098 200.141L82.0666 205.798L84.8951 202.97L79.2382 197.313ZM84.8954 187.843L82.067 185.014L76.41 190.671L79.2384 193.5L84.8954 187.843ZM69.7686 184.029L72.597 186.858L78.254 181.201L75.4256 178.373L69.7686 184.029ZM166.314 386.04L163.486 388.868L169.143 394.525L171.971 391.697L166.314 386.04ZM157.323 406.345L160.151 403.517L154.494 397.86L151.666 400.688L157.323 406.345ZM137.017 415.337L134.189 418.165L139.846 423.822L142.674 420.993L137.017 415.337ZM128.026 435.642L130.854 432.813L125.197 427.157L122.369 429.985L128.026 435.642ZM113.428 438.639L110.105 440.865L114.558 447.512L117.881 445.285L113.428 438.639ZM111.152 448.073L115.076 447.295L113.521 439.448L109.597 440.226L111.152 448.073ZM105.436 440.226L101.512 439.448L99.9572 447.296L103.881 448.073L105.436 440.226ZM97.1516 445.285L100.475 447.512L104.928 440.866L101.605 438.639L97.1516 445.285ZM92.6643 429.985L89.8359 427.157L84.1791 432.813L87.0075 435.642L92.6643 429.985ZM72.3591 420.993L75.1875 423.822L80.8443 418.165L78.0159 415.337L72.3591 420.993ZM68.3786 404.561L66.8481 400.865L59.4569 403.926L60.9874 407.622L68.3786 404.561ZM60.9867 393.348L59.4566 397.044L66.8481 400.104L68.3783 396.408L60.9867 393.348ZM74.1424 390.644L77.8383 389.115L74.7786 381.723L71.0827 383.253L74.1424 390.644ZM85.3557 383.253L81.6598 381.723L78.6001 389.115L82.296 390.644L85.3557 383.253ZM90.4826 397.691L93.311 400.52L98.9679 394.863L96.1394 392.034L90.4826 397.691ZM105.609 401.504L102.781 398.676L97.1239 404.332L99.9523 407.161L105.609 401.504ZM116.374 405.866L119.202 403.038L113.545 397.381L110.717 400.209L116.374 405.866ZM122.776 388.15L119.948 390.978L125.605 396.635L128.433 393.807L122.776 388.15ZM140.492 381.747L143.321 378.919L137.664 373.262L134.835 376.091L140.492 381.747ZM146.895 364.031L144.066 366.86L149.723 372.517L152.552 369.688L146.895 364.031ZM162.033 361.347L165.729 359.817L162.669 352.425L158.973 353.955L162.033 361.347ZM173.246 353.955L169.55 352.425L166.491 359.817L170.187 361.347L173.246 353.955ZM175.95 367.11L177.48 370.806L184.872 367.746L183.342 364.05L175.95 367.11ZM183.342 378.323L184.872 374.628L177.48 371.568L175.95 375.264L183.342 378.323ZM166.314 283.501L163.486 286.329L169.143 291.986L171.971 289.158L166.314 283.501ZM157.323 303.806L160.151 300.978L154.494 295.321L151.666 298.149L157.323 303.806ZM137.017 312.798L134.189 315.626L139.846 321.283L142.674 318.454L137.017 312.798ZM128.026 333.103L130.854 330.274L125.197 324.618L122.369 327.446L128.026 333.103ZM113.428 336.1L110.105 338.326L114.558 344.973L117.881 342.746L113.428 336.1ZM111.152 345.534L115.076 344.756L113.521 336.909L109.597 337.687L111.152 345.534ZM105.436 337.687L101.512 336.909L99.9573 344.757L103.881 345.534L105.436 337.687ZM97.1516 342.746L100.475 344.973L104.928 338.327L101.605 336.1L97.1516 342.746ZM92.6643 327.446L89.8359 324.618L84.1791 330.274L87.0075 333.103L92.6643 327.446ZM72.3591 318.454L75.1875 321.283L80.8443 315.626L78.0159 312.798L72.3591 318.454ZM68.3786 302.022L66.8481 298.326L59.4569 301.387L60.9874 305.083L68.3786 302.022ZM60.9867 290.809L59.4566 294.504L66.8481 297.565L68.3783 293.869L60.9867 290.809ZM74.1424 288.105L77.8383 286.576L74.7786 279.184L71.0827 280.714L74.1424 288.105ZM85.3557 280.714L81.6598 279.184L78.6001 286.576L82.296 288.105L85.3557 280.714ZM90.4826 295.152L93.311 297.981L98.9679 292.324L96.1394 289.495L90.4826 295.152ZM105.609 298.965L102.781 296.137L97.1239 301.793L99.9523 304.622L105.609 298.965ZM116.374 303.327L119.202 300.499L113.545 294.842L110.717 297.67L116.374 303.327ZM122.776 285.611L119.948 288.439L125.605 294.096L128.433 291.268L122.776 285.611ZM140.492 279.208L143.321 276.38L137.664 270.723L134.835 273.552L140.492 279.208ZM146.895 261.492L144.066 264.321L149.723 269.978L152.552 267.149L146.895 261.492ZM162.033 258.808L165.729 257.278L162.669 249.886L158.973 251.416L162.033 258.808ZM173.246 251.416L169.55 249.886L166.491 257.278L170.187 258.808L173.246 251.416ZM175.95 264.571L177.48 268.267L184.872 265.207L183.342 261.511L175.95 264.571ZM183.342 275.784L184.872 272.089L177.48 269.029L175.95 272.725L183.342 275.784ZM302.462 411.133H298.462V419.133H302.462V411.133ZM280.245 419.133H284.245V411.133H280.245V419.133ZM258.028 411.133H254.028V419.133H258.028V411.133ZM235.811 419.133H239.811V411.133H235.811V419.133ZM220.625 410.327L216.93 408.797L213.869 416.188L217.564 417.718L220.625 410.327ZM207.469 407.623L209 411.319L216.391 408.258L214.86 404.562L207.469 407.623ZM214.86 396.407L216.391 392.711L209 389.65L207.469 393.345L214.86 396.407ZM217.564 383.25L213.869 384.781L216.93 392.172L220.625 390.641L217.564 383.25ZM235.811 389.836H239.811V381.836H235.811V389.836ZM258.028 381.836H254.028V389.836H258.028V381.836ZM280.245 389.836H284.245V381.836H280.245V389.836ZM302.462 381.836H298.462V389.836H302.462V381.836ZM317.648 390.641L321.344 392.172L324.405 384.781L320.709 383.25L317.648 390.641ZM330.804 393.345L329.274 389.65L321.883 392.711L323.413 396.407L330.804 393.345ZM323.413 404.562L321.883 408.258L329.274 411.319L330.804 407.623L323.413 404.562ZM320.709 417.718L324.405 416.188L321.344 408.797L317.648 410.327L320.709 417.718ZM302.462 308.594H298.462V316.594H302.462V308.594ZM280.245 316.594H284.245V308.594H280.245V316.594ZM258.028 308.594H254.028V316.594H258.028V308.594ZM235.811 316.594H239.811V308.594H235.811V316.594ZM220.625 307.788L216.93 306.258L213.869 313.649L217.564 315.179L220.625 307.788ZM207.469 305.084L209 308.78L216.391 305.719L214.86 302.023L207.469 305.084ZM214.86 293.868L216.391 290.172L209 287.111L207.469 290.806L214.86 293.868ZM217.564 280.711L213.869 282.242L216.93 289.633L220.625 288.102L217.564 280.711ZM235.811 287.297H239.811V279.297H235.811V287.297ZM258.028 279.297H254.028V287.297H258.028V279.297ZM280.245 287.297H284.245V279.297H280.245V287.297ZM302.462 279.297H298.462V287.297H302.462V279.297ZM317.648 288.102L321.344 289.633L324.405 282.242L320.709 280.711L317.648 288.102ZM330.804 290.806L329.274 287.111L321.883 290.172L323.413 293.868L330.804 290.806ZM323.413 302.023L321.883 305.719L329.274 308.78L330.804 305.084L323.413 302.023ZM320.709 315.179L324.405 313.649L321.344 306.258L317.648 307.788L320.709 315.179ZM302.462 206.055H298.462V214.055H302.462V206.055ZM280.245 214.055H284.245V206.055H280.245V214.055ZM258.028 206.055H254.028V214.055H258.028V206.055ZM235.811 214.055H239.811V206.055H235.811V214.055ZM220.625 205.249L216.93 203.719L213.869 211.11L217.564 212.64L220.625 205.249ZM207.469 202.545L209 206.241L216.391 203.18L214.86 199.484L207.469 202.545ZM214.86 191.329L216.391 187.633L209 184.572L207.469 188.267L214.86 191.329ZM217.564 178.172L213.869 179.703L216.93 187.094L220.625 185.563L217.564 178.172ZM235.811 184.758H239.811V176.758H235.811V184.758ZM258.028 176.758H254.028V184.758H258.028V176.758ZM280.245 184.758H284.245V176.758H280.245V184.758ZM302.462 176.758H298.462V184.758H302.462V176.758ZM317.648 185.563L321.344 187.094L324.405 179.703L320.709 178.172L317.648 185.563ZM330.804 188.267L329.274 184.572L321.883 187.633L323.413 191.329L330.804 188.267ZM323.413 199.484L321.883 203.18L329.274 206.241L330.804 202.545L323.413 199.484ZM320.709 212.64L324.405 211.11L321.344 203.719L317.648 205.249L320.709 212.64ZM412.11 147.799V151.799H420.11V147.799H412.11ZM420.11 169.772V165.772H412.11V169.772H420.11ZM427.096 184.758H431.096V176.758H427.096V184.758ZM449.069 176.758H445.069V184.758H449.069V176.758ZM471.042 184.758H475.042V176.758H471.042V184.758ZM493.014 176.758H489.014V184.758H493.014V176.758ZM508.001 169.772V165.772H500.001V169.772H508.001ZM500.001 147.799V151.799H508.001V147.799H500.001ZM507.084 127.46L506.305 123.536L498.459 125.094L499.238 129.018L507.084 127.46ZM493.262 114.634L495.489 117.957L502.135 113.503L499.908 110.18L493.262 114.634ZM486.688 96.9601L483.365 94.7331L478.911 101.378L482.234 103.605L486.688 96.9601ZM467.85 97.6303L471.774 98.4092L473.332 90.5624L469.408 89.7834L467.85 97.6303ZM450.702 89.7834L446.779 90.5624L448.337 98.4092L452.26 97.6303L450.702 89.7834ZM437.877 103.605L441.199 101.378L436.745 94.7331L433.423 96.9602L437.877 103.605ZM420.203 110.18L417.976 113.503L424.621 117.957L426.848 114.634L420.203 110.18ZM420.873 129.018L421.652 125.094L413.805 123.536L413.026 127.46L420.873 129.018ZM420.134 355.43V351.43H412.134V355.43H420.134ZM412.134 336.046V340.046H420.134V336.046H412.134ZM420.134 316.663V312.663H412.134V316.663H420.134ZM412.134 297.28V301.28H420.134V297.28H412.134ZM420.134 277.897V273.897H412.134V277.897H420.134ZM412.134 258.513V262.513H420.134V258.513H412.134ZM420.134 239.13V235.13H412.134V239.13H420.134ZM412.134 219.747V223.747H420.134V219.747H412.134ZM427.121 214.055H431.121V206.055H427.121V214.055ZM449.094 206.055H445.094V214.055H449.094V206.055ZM471.066 214.055H475.066V206.055H471.066V214.055ZM493.039 206.055H489.039V214.055H493.039V206.055ZM500.026 219.747V223.747H508.026V219.747H500.026ZM508.026 239.13V235.13H500.026V239.13H508.026ZM500.026 258.514V262.514H508.026V258.514H500.026ZM508.026 277.897V273.897H500.026V277.897H508.026ZM500.026 297.28V301.28H508.026V297.28H500.026ZM508.026 316.664V312.664H500.026V316.664H508.026ZM500.026 336.047V340.047H508.026V336.047H500.026ZM508.026 355.431V351.431H500.026V355.431H508.026ZM505.781 361.221L502.953 358.392L497.296 364.049L500.124 366.878L505.781 361.221ZM497.978 364.732L500.807 367.56L506.464 361.903L503.635 359.075L497.978 364.732ZM493.462 350.527L490.137 348.304L485.691 354.955L489.016 357.178L493.462 350.527ZM470.245 349.429L474.17 350.203L475.718 342.354L471.794 341.58L470.245 349.429ZM448.365 341.58L444.441 342.354L445.99 350.203L449.914 349.429L448.365 341.58ZM431.143 357.178L434.468 354.955L430.022 348.304L426.697 350.527L431.143 357.178ZM416.524 359.075L413.696 361.903L419.353 367.56L422.181 364.732L416.524 359.075ZM420.036 366.877L422.864 364.049L417.207 358.392L414.379 361.22L420.036 366.877ZM471.828 372.008L468.131 370.482L465.079 377.877L468.776 379.403L471.828 372.008ZM451.325 379.403L455.022 377.877L451.971 370.482L448.273 372.008L451.325 379.403ZM434.094 382.871L431.265 385.7L436.922 391.356L439.75 388.528L434.094 382.871ZM431.373 396.905L434.201 394.077L428.545 388.42L425.716 391.249L431.373 396.905ZM423.287 407.707L424.552 411.502L432.141 408.972L430.876 405.178L423.287 407.707ZM436.327 421.531L435.062 417.736L427.473 420.266L428.738 424.061L436.327 421.531ZM434.189 440.414L435.454 444.209L443.043 441.679L441.778 437.885L434.189 440.414ZM447.23 454.238L445.965 450.443L438.375 452.973L439.64 456.768L447.23 454.238ZM445.029 470.094L447.397 473.318L453.844 468.58L451.475 465.357L445.029 470.094ZM456.78 469.18L452.973 467.952L450.516 475.565L454.322 476.794L456.78 469.18ZM465.778 476.794L469.585 475.565L467.128 467.952L463.321 469.18L465.778 476.794ZM468.626 465.357L466.257 468.58L472.704 473.318L475.072 470.095L468.626 465.357ZM480.461 456.768L481.726 452.973L474.137 450.443L472.872 454.238L480.461 456.768ZM478.323 437.885L477.058 441.679L484.647 444.209L485.912 440.414L478.323 437.885ZM491.363 424.061L492.628 420.266L485.039 417.736L483.774 421.531L491.363 424.061ZM489.225 405.178L487.96 408.972L495.55 411.502L496.815 407.707L489.225 405.178ZM494.385 391.249L491.557 388.42L485.9 394.077L488.728 396.905L494.385 391.249ZM480.351 388.528L483.179 391.356L488.836 385.7L486.008 382.871L480.351 388.528ZM268.649 29.2969H257.662V37.2969H268.649V29.2969ZM235.69 29.2969H224.703V37.2969H235.69V29.2969ZM228.703 33.2969C228.703 28.7894 227.805 24.4816 226.175 20.5501L218.785 23.6145C220.02 26.5916 220.703 29.8593 220.703 33.2969H228.703ZM208.153 2.52803C204.222 0.897767 199.914 0 195.406 0V8C198.844 8 202.112 8.68336 205.089 9.91788L208.153 2.52803ZM195.406 0C190.899 0 186.591 0.897768 182.66 2.52803L185.724 9.91788C188.701 8.68336 191.969 8 195.406 8V0ZM164.638 20.5501C163.007 24.4816 162.11 28.7894 162.11 33.2969H170.11C170.11 29.8593 170.793 26.5916 172.027 23.6145L164.638 20.5501ZM166.11 29.2969H155.123V37.2969H166.11V29.2969ZM133.151 29.2969H122.164V37.2969H133.151V29.2969ZM122.164 29.2969C119.502 29.2969 116.982 29.9208 114.721 30.9997L118.166 38.22C119.419 37.6218 120.767 37.2969 122.164 37.2969V29.2969ZM104.917 41.6728C104.02 43.9367 103.516 46.3954 103.516 48.9219H111.516C111.516 47.4604 111.808 45.9986 112.355 44.6185L104.917 41.6728ZM103.516 48.9219V52.584H111.516V48.9219H103.516ZM103.516 59.9082V63.5703H111.516V59.9082H103.516ZM103.516 63.5703C103.516 68.0777 104.414 72.3855 106.044 76.317L113.434 73.2527C112.199 70.2755 111.516 67.0078 111.516 63.5703H103.516ZM124.066 94.3391C127.997 95.9694 132.305 96.8671 136.813 96.8671V88.8671C133.375 88.8671 130.107 88.1838 127.13 86.9493L124.066 94.3391ZM136.813 96.8671H146.578V88.8671H136.813V96.8671ZM166.11 96.8671H185.641V88.8671H166.11V96.8671ZM205.172 96.8671H224.703V88.8671H205.172V96.8671ZM244.234 96.8671H254V88.8671H244.234V96.8671ZM254 96.8671C258.508 96.8671 262.815 95.9694 266.747 94.3391L263.682 86.9493C260.705 88.1838 257.438 88.8671 254 88.8671V96.8671ZM284.769 76.317C286.399 72.3855 287.297 68.0777 287.297 63.5703H279.297C279.297 67.0078 278.614 70.2756 277.379 73.2527L284.769 76.317ZM287.297 63.5703V59.9082H279.297V63.5703H287.297ZM287.297 52.584V48.9219H279.297V52.584H287.297ZM287.297 48.9219C287.297 46.3954 286.793 43.9367 285.896 41.6728L278.458 44.6185C279.005 45.9986 279.297 47.4604 279.297 48.9219H287.297ZM276.092 30.9997C273.831 29.9208 271.311 29.2969 268.649 29.2969V37.2969C270.046 37.2969 271.393 37.6218 272.647 38.22L276.092 30.9997ZM342.867 59.5704H335.543V67.5704H342.867V59.5704ZM320.894 59.5704H313.57V67.5704H320.894V59.5704ZM309.57 63.5704C309.57 67.2331 309.194 70.8097 308.479 74.2678L316.314 75.8869C317.137 71.9018 317.57 67.7827 317.57 63.5704H309.57ZM300.015 93.9452C295.919 99.868 290.673 104.977 284.62 108.956L289.015 115.641C295.918 111.104 301.908 105.272 306.595 98.4962L300.015 93.9452ZM264.737 117.113C261.253 117.802 257.662 118.164 254 118.164V126.164C258.19 126.164 262.301 125.75 266.289 124.961L264.737 117.113ZM254 118.164H244.234V126.164H254V118.164ZM224.703 118.164H205.172V126.164H224.703V118.164ZM185.641 118.164H166.109V126.164H185.641V118.164ZM146.578 118.164H136.812V126.164H146.578V118.164ZM136.812 118.164C133.164 118.164 129.602 117.805 126.159 117.122L124.602 124.969C128.555 125.753 132.638 126.164 136.812 126.164V118.164ZM106.497 108.956C100.545 104.967 95.416 99.8382 91.4269 93.8859L84.7813 98.3396C89.3511 105.158 95.2244 111.032 102.043 115.602L106.497 108.956ZM83.2611 74.224C82.5777 70.7804 82.2187 67.2185 82.2187 63.5704H74.2187C74.2187 67.7446 74.6296 71.8281 75.4142 75.7813L83.2611 74.224ZM78.2187 59.5704H70.8945V67.5704H78.2187V59.5704ZM56.2461 59.5704H48.9219V67.5704H56.2461V59.5704ZM48.9219 59.5704C45.7098 59.5704 42.5547 59.8883 39.491 60.4941L41.0428 68.3421C43.6031 67.8359 46.2385 67.5704 48.9219 67.5704V59.5704ZM22.0533 67.6175C16.75 71.0818 12.136 75.5339 8.51732 80.711L15.0744 85.2941C18.0998 80.9658 21.9695 77.2279 26.4285 74.3151L22.0533 67.6175ZM0.979574 98.0468C0.337776 101.11 0 104.277 0 107.516H8C8 104.835 8.27944 102.218 8.80959 99.6872L0.979574 98.0468ZM0 107.516V117.281H8V107.516H0ZM0 136.813V156.344H8V136.813H0ZM0 175.875V195.406H8V175.875H0ZM0 214.938V234.469H8V214.938H0ZM0 254V273.531H8V254H0ZM0 293.063V312.594H8V293.063H0ZM0 332.125V351.656H8V332.125H0ZM0 371.188V390.719H8V371.188H0ZM0 410.25V429.781H8V410.25H0ZM0 449.312V459.078H8V449.312H0ZM0 459.078C0 462.332 0.340937 465.525 0.987194 468.624L8.81864 466.99C8.28213 464.418 8 461.772 8 459.078H0ZM8.46785 486.119C12.0509 491.38 16.6203 495.949 21.8813 499.532L26.3846 492.92C21.9525 489.901 18.0985 486.047 15.08 481.615L8.46785 486.119ZM39.3762 507.013C42.4744 507.659 45.6683 508 48.9219 508V500C46.2284 500 43.5818 499.718 41.0097 499.181L39.3762 507.013ZM48.9219 508H59.4199V500H48.9219V508ZM80.416 508H101.412V500H80.416V508ZM122.408 508H143.404V500H122.408V508ZM164.4 508H185.396V500H164.4V508ZM206.393 508H227.389V500H206.393V508ZM248.385 508H269.381V500H248.385V508ZM290.377 508H311.373V500H290.377V508ZM332.369 508H342.867V500H332.369V508ZM342.867 508C346.106 508 349.272 507.662 352.336 507.02L350.696 499.19C348.165 499.72 345.548 500 342.867 500V508ZM369.672 499.483C374.849 495.864 379.301 491.25 382.765 485.947L376.068 481.571C373.155 486.03 369.417 489.9 365.089 492.926L369.672 499.483ZM389.889 468.509C390.494 465.445 390.812 462.29 390.812 459.078H382.812C382.812 461.761 382.547 464.397 382.041 466.957L389.889 468.509ZM390.812 459.078V449.312H382.812V459.078H390.812ZM390.812 429.781V410.25H382.812V429.781H390.812ZM390.812 390.719V371.187H382.812V390.719H390.812ZM390.812 351.656V332.125H382.812V351.656H390.812ZM390.812 312.594V293.062H382.812V312.594H390.812ZM390.812 273.531V254H382.812V273.531H390.812ZM390.812 234.469V214.937H382.812V234.469H390.812ZM390.812 195.406V175.875H382.812V195.406H390.812ZM390.812 156.344V136.812H382.812V156.344H390.812ZM390.812 117.281V107.516H382.812V117.281H390.812ZM390.812 107.516C390.812 104.319 390.498 101.191 389.896 98.1628L382.049 99.7207C382.55 102.24 382.812 104.846 382.812 107.516H390.812ZM382.72 80.8831C379.219 75.6612 374.722 71.1633 369.5 67.6632L365.046 74.3086C369.401 77.228 373.155 80.9815 376.074 85.3372L382.72 80.8831ZM352.22 60.4865C349.191 59.8852 346.063 59.5704 342.867 59.5704V67.5704C345.537 67.5704 348.143 67.8333 350.662 68.3334L352.22 60.4865ZM70.6907 173.637C69.6641 172.611 68.8963 171.436 68.3789 170.186L60.9871 173.245C61.8996 175.45 63.2513 177.512 65.0339 179.294L70.6907 173.637ZM68.3789 162.032C68.8963 160.782 69.6641 159.607 70.6907 158.58L65.0339 152.924C63.2513 154.706 61.8996 156.768 60.9871 158.972L68.3789 162.032ZM70.6907 158.58C71.7173 157.554 72.8924 156.786 74.1424 156.269L71.0827 148.877C68.8781 149.789 66.8164 151.141 65.0339 152.924L70.6907 158.58ZM82.296 156.269C83.546 156.786 84.7212 157.554 85.7477 158.58L91.4046 152.924C89.622 151.141 87.5603 149.789 85.3557 148.877L82.296 156.269ZM85.7476 158.58L90.4825 163.315L96.1395 157.659L91.4046 152.924L85.7476 158.58ZM99.9522 172.786L104.687 177.521L110.344 171.864L105.609 167.129L99.9522 172.786ZM110.344 177.521L115.079 172.786L109.422 167.129L104.687 171.864L110.344 177.521ZM124.549 163.316L129.284 158.58L123.628 152.924L118.892 157.659L124.549 163.316ZM129.284 158.58C130.311 157.554 131.486 156.786 132.736 156.269L129.676 148.877C127.472 149.789 125.41 151.141 123.628 152.924L129.284 158.58ZM140.89 156.269C142.14 156.786 143.315 157.554 144.341 158.58L149.998 152.924C148.216 151.141 146.154 149.789 143.949 148.877L140.89 156.269ZM144.341 158.58C145.368 159.607 146.136 160.782 146.653 162.032L154.045 158.972C153.133 156.768 151.781 154.706 149.998 152.924L144.341 158.58ZM146.653 170.186C146.136 171.436 145.368 172.611 144.341 173.637L149.998 179.294C151.781 177.512 153.133 175.45 154.045 173.245L146.653 170.186ZM144.341 173.637L139.606 178.373L145.263 184.029L149.998 179.294L144.341 173.637ZM130.136 187.843L125.401 192.578L131.058 198.235L135.793 193.5L130.136 187.843ZM125.401 198.235L130.136 202.97L135.793 197.313L131.058 192.578L125.401 198.235ZM139.606 212.44L144.341 217.175L149.998 211.518L145.263 206.783L139.606 212.44ZM144.341 217.175C145.368 218.202 146.136 219.377 146.653 220.627L154.045 217.567C153.133 215.363 151.781 213.301 149.998 211.518L144.341 217.175ZM146.653 228.78C146.136 230.03 145.368 231.206 144.341 232.232L149.998 237.889C151.781 236.106 153.133 234.045 154.045 231.84L146.653 228.78ZM144.341 232.232C143.315 233.259 142.14 234.027 140.89 234.544L143.949 241.936C146.154 241.023 148.216 239.672 149.998 237.889L144.341 232.232ZM132.736 234.544C131.486 234.027 130.311 233.259 129.284 232.232L123.628 237.889C125.41 239.672 127.472 241.023 129.676 241.936L132.736 234.544ZM129.284 232.232L124.549 227.497L118.892 233.154L123.628 237.889L129.284 232.232ZM115.079 218.027L110.344 213.292L104.687 218.949L109.422 223.684L115.079 218.027ZM104.687 213.292L99.9521 218.027L105.609 223.684L110.344 218.949L104.687 213.292ZM90.4819 227.497L85.7467 232.232L91.4036 237.889L96.1387 233.154L90.4819 227.497ZM85.7467 232.232C84.7202 233.259 83.545 234.027 82.2951 234.544L85.3547 241.936C87.5593 241.023 89.621 239.672 91.4036 237.889L85.7467 232.232ZM74.1414 234.544C72.8914 234.027 71.7163 233.259 70.6897 232.232L65.0329 237.889C66.8154 239.672 68.8772 241.023 71.0817 241.936L74.1414 234.544ZM70.6897 232.232C69.6632 231.206 68.8953 230.03 68.3779 228.78L60.9861 231.84C61.8986 234.045 63.2503 236.106 65.0329 237.889L70.6897 232.232ZM68.3779 220.627C68.8953 219.377 69.6632 218.202 70.6897 217.175L65.0329 211.518C63.2503 213.301 61.8986 215.363 60.9861 217.567L68.3779 220.627ZM70.6897 217.175L75.4248 212.44L69.768 206.783L65.0329 211.518L70.6897 217.175ZM84.8951 202.97L89.6302 198.235L83.9733 192.578L79.2382 197.313L84.8951 202.97ZM89.6302 192.578L84.8954 187.843L79.2384 193.5L83.9732 198.235L89.6302 192.578ZM75.4256 178.373L70.6908 173.637L65.0338 179.294L69.7686 184.029L75.4256 178.373ZM173.638 378.715L166.314 386.04L171.971 391.697L179.295 384.372L173.638 378.715ZM151.666 400.688L137.017 415.337L142.674 420.993L157.323 406.345L151.666 400.688ZM122.369 429.985L115.045 437.309L120.701 442.966L128.026 435.642L122.369 429.985ZM115.045 437.309C114.538 437.816 113.996 438.259 113.428 438.639L117.881 445.285C118.879 444.616 119.825 443.843 120.701 442.966L115.045 437.309ZM109.597 440.226C108.911 440.362 108.214 440.43 107.517 440.43V448.43C108.734 448.43 109.952 448.311 111.152 448.073L109.597 440.226ZM107.517 440.43C106.819 440.43 106.122 440.362 105.436 440.226L103.881 448.073C105.081 448.311 106.299 448.43 107.517 448.43V440.43ZM101.605 438.639C101.037 438.259 100.495 437.816 99.989 437.31L94.3312 442.966C95.208 443.843 96.1534 444.616 97.1516 445.285L101.605 438.639ZM99.9886 437.309L92.6643 429.985L87.0075 435.642L94.3317 442.966L99.9886 437.309ZM78.0159 415.337L70.6917 408.012L65.0348 413.669L72.3591 420.993L78.0159 415.337ZM70.6912 408.012C69.6643 406.985 68.8962 405.81 68.3786 404.561L60.9874 407.622C61.9003 409.826 63.2524 411.887 65.0353 413.67L70.6912 408.012ZM68.3783 396.408C68.8957 395.158 69.6637 393.983 70.6905 392.957L65.0341 387.299C63.2513 389.082 61.8994 391.143 60.9867 393.348L68.3783 396.408ZM70.6907 392.956C71.7173 391.93 72.8924 391.162 74.1424 390.644L71.0827 383.253C68.8781 384.165 66.8164 385.517 65.0339 387.299L70.6907 392.956ZM82.296 390.644C83.546 391.162 84.7212 391.93 85.7477 392.956L91.4046 387.299C89.622 385.517 87.5603 384.165 85.3557 383.253L82.296 390.644ZM85.7477 392.956L90.4826 397.691L96.1394 392.034L91.4046 387.299L85.7477 392.956ZM99.9523 407.161L104.687 411.896L110.344 406.239L105.609 401.504L99.9523 407.161ZM110.344 411.896L116.374 405.866L110.717 400.209L104.687 406.239L110.344 411.896ZM128.433 393.807L140.492 381.747L134.835 376.091L122.776 388.15L128.433 393.807ZM152.552 369.688L158.581 363.658L152.924 358.002L146.895 364.031L152.552 369.688ZM158.581 363.658C159.608 362.632 160.783 361.864 162.033 361.347L158.973 353.955C156.769 354.867 154.707 356.219 152.924 358.002L158.581 363.658ZM170.187 361.347C171.437 361.864 172.612 362.632 173.638 363.658L179.295 358.002C177.513 356.219 175.451 354.867 173.246 353.955L170.187 361.347ZM173.638 363.658C174.665 364.685 175.433 365.86 175.95 367.11L183.342 364.05C182.429 361.846 181.078 359.784 179.295 358.002L173.638 363.658ZM175.95 375.264C175.433 376.514 174.665 377.689 173.638 378.715L179.295 384.372C181.078 382.59 182.429 380.528 183.342 378.323L175.95 375.264ZM173.638 276.176L166.314 283.501L171.971 289.158L179.295 281.833L173.638 276.176ZM151.666 298.149L137.017 312.798L142.674 318.454L157.323 303.806L151.666 298.149ZM122.369 327.446L115.045 334.77L120.701 340.427L128.026 333.103L122.369 327.446ZM115.045 334.77C114.538 335.277 113.996 335.72 113.428 336.1L117.881 342.746C118.879 342.077 119.825 341.304 120.701 340.427L115.045 334.77ZM109.597 337.687C108.911 337.823 108.214 337.891 107.517 337.891V345.891C108.734 345.891 109.952 345.772 111.152 345.534L109.597 337.687ZM107.517 337.891C106.819 337.891 106.122 337.823 105.436 337.687L103.881 345.534C105.081 345.772 106.299 345.891 107.517 345.891V337.891ZM101.605 336.1C101.037 335.72 100.495 335.277 99.989 334.771L94.3312 340.427C95.208 341.304 96.1535 342.077 97.1516 342.746L101.605 336.1ZM99.9886 334.77L92.6643 327.446L87.0075 333.103L94.3317 340.427L99.9886 334.77ZM78.0159 312.798L70.6917 305.473L65.0348 311.13L72.3591 318.454L78.0159 312.798ZM70.6912 305.473C69.6643 304.446 68.8962 303.271 68.3786 302.022L60.9874 305.083C61.9003 307.287 63.2524 309.348 65.0353 311.131L70.6912 305.473ZM68.3783 293.869C68.8957 292.619 69.6637 291.444 70.6905 290.418L65.0341 284.76C63.2513 286.543 61.8994 288.604 60.9867 290.809L68.3783 293.869ZM70.6907 290.417C71.7173 289.391 72.8924 288.623 74.1424 288.105L71.0827 280.714C68.8781 281.626 66.8164 282.978 65.0339 284.76L70.6907 290.417ZM82.296 288.105C83.546 288.623 84.7212 289.391 85.7477 290.417L91.4046 284.76C89.622 282.978 87.5603 281.626 85.3557 280.714L82.296 288.105ZM85.7477 290.417L90.4826 295.152L96.1394 289.495L91.4046 284.76L85.7477 290.417ZM99.9523 304.622L104.687 309.357L110.344 303.7L105.609 298.965L99.9523 304.622ZM110.344 309.357L116.374 303.327L110.717 297.67L104.687 303.7L110.344 309.357ZM128.433 291.268L140.492 279.208L134.835 273.552L122.776 285.611L128.433 291.268ZM152.552 267.149L158.581 261.119L152.924 255.463L146.895 261.492L152.552 267.149ZM158.581 261.119C159.608 260.093 160.783 259.325 162.033 258.808L158.973 251.416C156.769 252.328 154.707 253.68 152.924 255.463L158.581 261.119ZM170.187 258.808C171.437 259.325 172.612 260.093 173.638 261.119L179.295 255.463C177.513 253.68 175.451 252.328 173.246 251.416L170.187 258.808ZM173.638 261.119C174.665 262.146 175.433 263.321 175.95 264.571L183.342 261.511C182.429 259.307 181.078 257.245 179.295 255.463L173.638 261.119ZM175.95 272.725C175.433 273.975 174.665 275.15 173.638 276.176L179.295 281.833C181.078 280.051 182.429 277.989 183.342 275.784L175.95 272.725ZM313.57 411.133H302.462V419.133H313.57V411.133ZM280.245 411.133H258.028V419.133H280.245V411.133ZM235.811 411.133H224.703V419.133H235.811V411.133ZM224.703 411.133C223.25 411.133 221.875 410.845 220.625 410.327L217.564 417.718C219.768 418.631 222.182 419.133 224.703 419.133V411.133ZM214.86 404.562C214.343 403.312 214.055 401.938 214.055 400.484H206.055C206.055 403.005 206.556 405.419 207.469 407.623L214.86 404.562ZM214.055 400.484C214.055 399.031 214.343 397.656 214.86 396.407L207.469 393.345C206.556 395.55 206.055 397.963 206.055 400.484H214.055ZM220.625 390.641C221.875 390.124 223.25 389.836 224.703 389.836V381.836C222.182 381.836 219.768 382.337 217.564 383.25L220.625 390.641ZM224.703 389.836H235.811V381.836H224.703V389.836ZM258.028 389.836H280.245V381.836H258.028V389.836ZM302.462 389.836H313.57V381.836H302.462V389.836ZM313.57 389.836C315.024 389.836 316.398 390.124 317.648 390.641L320.709 383.25C318.505 382.337 316.091 381.836 313.57 381.836V389.836ZM323.413 396.407C323.931 397.656 324.219 399.031 324.219 400.484H332.219C332.219 397.963 331.717 395.55 330.804 393.345L323.413 396.407ZM324.219 400.484C324.219 401.938 323.931 403.312 323.413 404.562L330.804 407.623C331.717 405.419 332.219 403.005 332.219 400.484H324.219ZM317.648 410.327C316.398 410.845 315.024 411.133 313.57 411.133V419.133C316.091 419.133 318.505 418.631 320.709 417.718L317.648 410.327ZM313.57 308.594H302.462V316.594H313.57V308.594ZM280.245 308.594H258.028V316.594H280.245V308.594ZM235.811 308.594H224.703V316.594H235.811V308.594ZM224.703 308.594C223.25 308.594 221.875 308.306 220.625 307.788L217.564 315.179C219.768 316.092 222.182 316.594 224.703 316.594V308.594ZM214.86 302.023C214.343 300.773 214.055 299.399 214.055 297.945H206.055C206.055 300.466 206.556 302.88 207.469 305.084L214.86 302.023ZM214.055 297.945C214.055 296.492 214.343 295.117 214.86 293.868L207.469 290.806C206.556 293.011 206.055 295.424 206.055 297.945H214.055ZM220.625 288.102C221.875 287.585 223.25 287.297 224.703 287.297V279.297C222.182 279.297 219.768 279.798 217.564 280.711L220.625 288.102ZM224.703 287.297H235.811V279.297H224.703V287.297ZM258.028 287.297H280.245V279.297H258.028V287.297ZM302.462 287.297H313.57V279.297H302.462V287.297ZM313.57 287.297C315.024 287.297 316.398 287.585 317.648 288.102L320.709 280.711C318.505 279.798 316.091 279.297 313.57 279.297V287.297ZM323.413 293.868C323.931 295.117 324.219 296.492 324.219 297.945H332.219C332.219 295.424 331.717 293.011 330.804 290.806L323.413 293.868ZM324.219 297.945C324.219 299.399 323.931 300.773 323.413 302.023L330.804 305.084C331.717 302.88 332.219 300.466 332.219 297.945H324.219ZM317.648 307.788C316.398 308.306 315.024 308.594 313.57 308.594V316.594C316.091 316.594 318.505 316.092 320.709 315.179L317.648 307.788ZM313.57 206.055H302.462V214.055H313.57V206.055ZM280.245 206.055H258.028V214.055H280.245V206.055ZM235.811 206.055H224.703V214.055H235.811V206.055ZM224.703 206.055C223.25 206.055 221.875 205.767 220.625 205.249L217.564 212.64C219.768 213.553 222.182 214.055 224.703 214.055V206.055ZM214.86 199.484C214.343 198.234 214.055 196.86 214.055 195.406H206.055C206.055 197.927 206.556 200.341 207.469 202.545L214.86 199.484ZM214.055 195.406C214.055 193.953 214.343 192.578 214.86 191.329L207.469 188.267C206.556 190.472 206.055 192.885 206.055 195.406H214.055ZM220.625 185.563C221.875 185.046 223.25 184.758 224.703 184.758V176.758C222.182 176.758 219.768 177.259 217.564 178.172L220.625 185.563ZM224.703 184.758H235.811V176.758H224.703V184.758ZM258.028 184.758H280.245V176.758H258.028V184.758ZM302.462 184.758H313.57V176.758H302.462V184.758ZM313.57 184.758C315.024 184.758 316.398 185.046 317.648 185.563L320.709 178.172C318.505 177.259 316.091 176.758 313.57 176.758V184.758ZM323.413 191.329C323.931 192.578 324.219 193.953 324.219 195.406H332.219C332.219 192.885 331.717 190.472 330.804 188.267L323.413 191.329ZM324.219 195.406C324.219 196.86 323.931 198.234 323.413 199.484L330.804 202.545C331.717 200.341 332.219 197.927 332.219 195.406H324.219ZM317.648 205.249C316.398 205.767 315.024 206.055 313.57 206.055V214.055C316.091 214.055 318.505 213.553 320.709 212.64L317.648 205.249ZM412.11 136.813V147.799H420.11V136.813H412.11ZM412.11 169.772V180.758H420.11V169.772H412.11ZM416.11 184.758H427.096V176.758H416.11V184.758ZM449.069 184.758H471.042V176.758H449.069V184.758ZM493.014 184.758H504.001V176.758H493.014V184.758ZM508.001 180.758V169.772H500.001V180.758H508.001ZM508.001 147.799V136.813H500.001V147.799H508.001ZM508.001 136.813C508.001 133.616 507.686 130.488 507.084 127.46L499.238 129.018C499.738 131.537 500.001 134.143 500.001 136.813H508.001ZM499.908 110.18C496.408 104.958 491.91 100.46 486.688 96.9601L482.234 103.605C486.589 106.525 490.343 110.278 493.262 114.634L499.908 110.18ZM469.408 89.7834C466.379 89.1821 463.252 88.8673 460.055 88.8673V96.8673C462.725 96.8673 465.331 97.1302 467.85 97.6303L469.408 89.7834ZM460.055 88.8673C456.859 88.8673 453.731 89.1821 450.702 89.7834L452.26 97.6303C454.779 97.1302 457.385 96.8673 460.055 96.8673V88.8673ZM433.423 96.9602C428.201 100.46 423.703 104.958 420.203 110.18L426.848 114.634C429.768 110.278 433.521 106.525 437.877 103.605L433.423 96.9602ZM413.026 127.46C412.425 130.488 412.11 133.616 412.11 136.813H420.11C420.11 134.143 420.373 131.537 420.873 129.018L413.026 127.46ZM420.134 365.121V355.43H412.134V365.121H420.134ZM420.134 336.046V316.663H412.134V336.046H420.134ZM420.134 297.28V277.897H412.134V297.28H420.134ZM420.134 258.513V239.13H412.134V258.513H420.134ZM420.134 219.747V210.055H412.134V219.747H420.134ZM416.134 214.055H427.121V206.055H416.134V214.055ZM449.094 214.055H471.066V206.055H449.094V214.055ZM493.039 214.055H504.026V206.055H493.039V214.055ZM500.026 210.055V219.747H508.026V210.055H500.026ZM500.026 239.13V258.514H508.026V239.13H500.026ZM500.026 277.897V297.28H508.026V277.897H500.026ZM500.026 316.664V336.047H508.026V316.664H500.026ZM500.026 355.431V365.122H508.026V355.431H500.026ZM506.854 362.294L505.781 361.221L500.124 366.878L501.197 367.951L506.854 362.294ZM503.635 359.075L502.562 358.002L496.905 363.659L497.978 364.732L503.635 359.075ZM502.562 358.002C499.729 355.169 496.679 352.677 493.462 350.527L489.016 357.178C491.8 359.039 494.445 361.199 496.905 363.659L502.562 358.002ZM471.794 341.58C464.065 340.055 456.094 340.055 448.365 341.58L449.914 349.429C456.62 348.106 463.539 348.106 470.245 349.429L471.794 341.58ZM426.697 350.527C423.48 352.677 420.43 355.169 417.597 358.002L423.254 363.659C425.714 361.199 428.359 359.039 431.143 357.178L426.697 350.527ZM417.597 358.002L416.524 359.075L422.181 364.732L423.254 363.659L417.597 358.002ZM414.379 361.22L413.306 362.293L418.963 367.95L420.036 366.877L414.379 361.22ZM481.819 378.682C478.874 375.737 475.468 373.51 471.828 372.008L468.776 379.403C471.461 380.511 473.977 382.154 476.162 384.339L481.819 378.682ZM448.273 372.008C444.634 373.51 441.228 375.737 438.282 378.682L443.939 384.339C446.125 382.154 448.64 380.511 451.325 379.403L448.273 372.008ZM438.282 378.682L434.094 382.871L439.75 388.528L443.939 384.339L438.282 378.682ZM425.716 391.249L421.527 395.437L427.184 401.094L431.373 396.905L425.716 391.249ZM420.561 399.531L423.287 407.707L430.876 405.178L428.151 397.001L420.561 399.531ZM428.738 424.061L434.189 440.414L441.778 437.885L436.327 421.531L428.738 424.061ZM439.64 456.768L442.366 464.945L449.955 462.415L447.23 454.238L439.64 456.768ZM442.365 464.942C442.99 466.822 443.896 468.553 445.029 470.094L451.475 465.357C450.831 464.48 450.314 463.494 449.956 462.418L442.365 464.942ZM454.322 476.794C456.141 477.381 458.07 477.694 460.05 477.694V469.694C458.915 469.694 457.815 469.514 456.78 469.18L454.322 476.794ZM460.05 477.694C462.031 477.694 463.959 477.381 465.778 476.794L463.321 469.18C462.286 469.514 461.186 469.694 460.05 469.694V477.694ZM475.072 470.095C476.205 468.554 477.111 466.822 477.736 464.942L470.145 462.418C469.787 463.494 469.27 464.48 468.626 465.357L475.072 470.095ZM477.736 464.945L480.461 456.768L472.872 454.238L470.146 462.415L477.736 464.945ZM485.912 440.414L491.363 424.061L483.774 421.531L478.323 437.885L485.912 440.414ZM496.815 407.707L499.54 399.531L491.951 397.001L489.225 405.178L496.815 407.707ZM498.574 395.437L494.385 391.249L488.728 396.905L492.917 401.094L498.574 395.437ZM486.008 382.871L481.819 378.682L476.162 384.339L480.351 388.528L486.008 382.871Z" fill="#1C3988"/>
</svg>
