<svg width="217" height="44" viewBox="0 0 217 44" fill="none" xmlns="http://www.w3.org/2000/svg">
<path d="M41.1486 0H1.67271C0.748897 0 0 0.769511 0 1.71875V42.2812C0 43.2305 0.748897 44 1.67271 44H41.1486C42.0724 44 42.8213 43.2305 42.8213 42.2812V1.71875C42.8213 0.769511 42.0724 0 41.1486 0Z" fill="#1C3988"/>
<path d="M22.7349 13.6641V12.7188C22.7349 12.6732 22.7525 12.6294 22.7839 12.5972C22.8152 12.565 22.8578 12.5469 22.9021 12.5469H32.9524C32.9968 12.5469 33.0393 12.565 33.0707 12.5972C33.1021 12.6294 33.1197 12.6732 33.1197 12.7188V13.6641C33.1197 13.7096 33.1021 13.7534 33.0707 13.7856C33.0393 13.8178 32.9968 13.8359 32.9524 13.8359H22.9021C22.8578 13.8359 22.8152 13.8178 22.7839 13.7856C22.7525 13.7534 22.7349 13.7096 22.7349 13.6641ZM35.4615 31.4531H22.9021C22.8578 31.4531 22.8152 31.4712 22.7839 31.5035C22.7525 31.5357 22.7349 31.5794 22.7349 31.625V32.5703C22.7349 32.6159 22.7525 32.6596 22.7839 32.6918C22.8152 32.7241 22.8578 32.7422 22.9021 32.7422H35.4615C35.5059 32.7422 35.5484 32.7241 35.5798 32.6918C35.6111 32.6596 35.6288 32.6159 35.6288 32.5703V31.625C35.6288 31.5794 35.6111 31.5357 35.5798 31.5035C35.5484 31.4712 35.5059 31.4531 35.4615 31.4531ZM22.9021 30.1641H32.9524C32.9968 30.1641 33.0393 30.146 33.0707 30.1137C33.1021 30.0815 33.1197 30.0378 33.1197 29.9922V29.0469C33.1197 29.0013 33.1021 28.9576 33.0707 28.9253C33.0393 28.8931 32.9968 28.875 32.9524 28.875H22.9021C22.8578 28.875 22.8152 28.8931 22.7839 28.9253C22.7525 28.9576 22.7349 29.0013 22.7349 29.0469V29.9922C22.7349 30.0378 22.7525 30.0815 22.7839 30.1137C22.8152 30.146 22.8578 30.1641 22.9021 30.1641ZM35.4615 26.2969H22.9021C22.8578 26.2969 22.8152 26.315 22.7839 26.3472C22.7525 26.3794 22.7349 26.4232 22.7349 26.4688V27.4141C22.7349 27.4596 22.7525 27.5034 22.7839 27.5356C22.8152 27.5678 22.8578 27.5859 22.9021 27.5859H35.4615C35.5059 27.5859 35.5484 27.5678 35.5798 27.5356C35.6111 27.5034 35.6288 27.4596 35.6288 27.4141V26.4688C35.6288 26.4232 35.6111 26.3794 35.5798 26.3472C35.5484 26.315 35.5059 26.2969 35.4615 26.2969ZM35.4615 15.125H22.9021C22.8578 15.125 22.8152 15.1431 22.7839 15.1753C22.7525 15.2076 22.7349 15.2513 22.7349 15.2969V16.2422C22.7349 16.2878 22.7525 16.3315 22.7839 16.3637C22.8152 16.396 22.8578 16.4141 22.9021 16.4141H35.4615C35.5059 16.4141 35.5484 16.396 35.5798 16.3637C35.6111 16.3315 35.6288 16.2878 35.6288 16.2422V15.2969C35.6288 15.2513 35.6111 15.2076 35.5798 15.1753C35.5484 15.1431 35.5059 15.125 35.4615 15.125ZM35.4615 9.96875H22.9021C22.8578 9.96875 22.8152 9.98686 22.7839 10.0191C22.7525 10.0513 22.7349 10.095 22.7349 10.1406V11.0859C22.7349 11.1315 22.7525 11.1752 22.7839 11.2075C22.8152 11.2397 22.8578 11.2578 22.9021 11.2578H35.4615C35.5059 11.2578 35.5484 11.2397 35.5798 11.2075C35.6111 11.1752 35.6288 11.1315 35.6288 11.0859V10.1406C35.6288 10.095 35.6111 10.0513 35.5798 10.0191C35.5484 9.98686 35.5059 9.96875 35.4615 9.96875Z" fill="white"/>
<path d="M12.629 23.9336C11.4297 23.9336 10.2574 24.299 9.26026 24.9836C8.26311 25.6682 7.48593 26.6413 7.02699 27.7798C6.56806 28.9182 6.44798 30.171 6.68194 31.3796C6.91591 32.5882 7.4934 33.6983 8.34141 34.5697C9.18941 35.441 10.2698 36.0344 11.4461 36.2748C12.6223 36.5152 13.8415 36.3918 14.9494 35.9203C16.0574 35.4487 17.0044 34.6501 17.6707 33.6255C18.3369 32.6009 18.6926 31.3963 18.6926 30.1641C18.6907 28.5122 18.0513 26.9286 16.9146 25.7605C15.7778 24.5925 14.2366 23.9355 12.629 23.9336V23.9336ZM12.629 35.1055C11.6779 35.1055 10.7481 34.8157 9.95724 34.2727C9.1664 33.7297 8.55001 32.958 8.18603 32.0551C7.82205 31.1521 7.72681 30.1586 7.91237 29.2C8.09793 28.2415 8.55594 27.361 9.2285 26.67C9.90105 25.9789 10.7579 25.5083 11.6908 25.3176C12.6237 25.1269 13.5906 25.2248 14.4693 25.5988C15.3481 25.9728 16.0991 26.6062 16.6276 27.4188C17.156 28.2314 17.438 29.1867 17.438 30.1641C17.4366 31.4742 16.9295 32.7302 16.028 33.6566C15.1264 34.583 13.904 35.104 12.629 35.1055V35.1055ZM12.629 20.0664C13.8283 20.0664 15.0006 19.701 15.9977 19.0164C16.9949 18.3318 17.7721 17.3587 18.231 16.2202C18.6899 15.0818 18.81 13.829 18.5761 12.6204C18.3421 11.4118 17.7646 10.3017 16.9166 9.43033C16.0686 8.55899 14.9882 7.96559 13.8119 7.72519C12.6357 7.48478 11.4165 7.60817 10.3086 8.07974C9.2006 8.55131 8.2536 9.34988 7.58733 10.3745C6.92105 11.3991 6.56543 12.6037 6.56543 13.8359C6.56725 15.4878 7.20667 17.0715 8.34341 18.2395C9.48016 19.4075 11.0214 20.0645 12.629 20.0664V20.0664ZM12.629 8.89453C13.5801 8.89453 14.5099 9.18434 15.3008 9.72731C16.0916 10.2703 16.708 11.042 17.072 11.9449C17.436 12.8479 17.5312 13.8414 17.3456 14.8C17.1601 15.7585 16.7021 16.639 16.0295 17.33C15.3569 18.0211 14.5001 18.4917 13.5672 18.6824C12.6343 18.8731 11.6674 18.7752 10.7887 18.4012C9.90992 18.0272 9.15886 17.3938 8.63043 16.5812C8.10201 15.7686 7.81996 14.8133 7.81996 13.8359C7.82136 12.5258 8.32847 11.2698 9.23004 10.3434C10.1316 9.41704 11.354 8.89597 12.629 8.89453V8.89453Z" fill="white"/>
<path d="M40.8201 6.91783L38.4544 9.34857C38.2976 9.50971 38.0849 9.60023 37.8631 9.60023C37.6413 9.60023 37.4286 9.50971 37.2717 9.34857L33.7234 5.70224C33.5666 5.54108 33.4785 5.32252 33.4785 5.09462C33.4785 4.86673 33.5666 4.64816 33.7234 4.487L36.0888 2.05634C36.2457 1.89521 36.4584 1.80469 36.6802 1.80469C36.9019 1.80469 37.1147 1.89521 37.2715 2.05634L40.8201 5.70224C40.8978 5.78205 40.9594 5.8768 41.0015 5.98109C41.0435 6.08537 41.0651 6.19715 41.0651 6.31004C41.0651 6.42292 41.0435 6.5347 41.0015 6.63899C40.9594 6.74327 40.8978 6.83802 40.8201 6.91783V6.91783Z" fill="#006488"/>
<path d="M21.511 8.08528L13.0504 16.778C13.0161 16.8133 12.9755 16.8412 12.9307 16.8603C12.8859 16.8793 12.8379 16.8892 12.7895 16.8892C12.741 16.8892 12.6931 16.8793 12.6483 16.8603C12.6035 16.8412 12.5629 16.8133 12.5286 16.778L8.83856 12.9874C8.80405 12.9519 8.78467 12.9037 8.78467 12.8535C8.78467 12.8033 8.80405 12.7551 8.83856 12.7195L9.88208 11.647C9.91673 11.6116 9.96366 11.5916 10.0126 11.5916C10.0615 11.5916 10.1084 11.6116 10.1431 11.647L12.6587 14.2319C12.6758 14.2495 12.6961 14.2635 12.7185 14.273C12.7408 14.2826 12.7648 14.2875 12.789 14.2875C12.8133 14.2875 12.8372 14.2826 12.8596 14.273C12.882 14.2635 12.9023 14.2495 12.9194 14.2319L20.2063 6.74483C20.2409 6.70937 20.2878 6.68945 20.3366 6.68945C20.3855 6.68945 20.4324 6.70937 20.467 6.74483L21.5105 7.81707C21.5451 7.85265 21.5645 7.90088 21.5645 7.95117C21.5645 8.00146 21.5451 8.0497 21.5105 8.08528H21.511ZM11.8465 29.3978C11.6911 29.5573 11.5678 29.7468 11.4838 29.9553C11.3997 30.1638 11.3564 30.3873 11.3565 30.613V32.1599C11.3565 32.2055 11.3741 32.2492 11.4055 32.2814C11.4368 32.3137 11.4794 32.3318 11.5238 32.3318H13.0292C13.2489 32.3318 13.4664 32.2874 13.6693 32.201C13.8723 32.1146 14.0566 31.9879 14.2119 31.8283L16.0875 29.901L13.7222 27.4706L11.8465 29.3978Z" fill="#7ED957"/>
<path d="M40.2286 7.5252L19.7562 28.5611C19.5227 28.801 19.2253 28.9646 18.9015 29.0311L16.5088 29.5229C16.3065 29.5645 16.0973 29.5541 15.8998 29.4926C15.7023 29.4311 15.5227 29.3205 15.3768 29.1705L14.4317 28.1994C14.2859 28.0496 14.1784 27.865 14.1186 27.6621C14.0589 27.4593 14.0488 27.2444 14.0893 27.0366L14.5675 24.5781C14.6323 24.2454 14.7915 23.9399 15.0249 23.6999L35.4973 2.66406L40.2286 7.5252Z" fill="#FC9302"/>
<path d="M40.2287 7.52591L19.7564 28.5618C19.5229 28.8017 19.2255 28.9653 18.9017 29.0318L16.509 29.5236C16.3066 29.5652 16.0974 29.5548 15.8999 29.4933C15.7025 29.4319 15.5228 29.3212 15.377 29.1713L15.9875 26.0372C16.0521 25.7043 16.2113 25.3986 16.4449 25.1587L36.9168 4.12305L40.2287 7.52591Z" fill="#FDBF43"/>
<path d="M19.7565 28.5604L18.453 29.8998C18.2977 30.0594 18.1133 30.186 17.9103 30.2724C17.7074 30.3588 17.4899 30.4032 17.2702 30.4032C17.0505 30.4032 16.833 30.3588 16.6301 30.2724C16.4271 30.186 16.2427 30.0594 16.0874 29.8998L14.9047 31.1154L12.5391 28.6846L13.7221 27.4694C13.5668 27.3098 13.4435 27.1203 13.3595 26.9118C13.2754 26.7032 13.2321 26.4797 13.2321 26.254C13.2321 26.0283 13.2754 25.8048 13.3595 25.5963C13.4435 25.3877 13.5668 25.1982 13.7221 25.0386L15.0256 23.6992L19.7565 28.5604Z" fill="#006488"/>
<path d="M52.0244 10.6012H55.2912V20.7977H58.2946V10.6012H61.5614V8.12875H52.0244V10.6012ZM70.9929 12.2434C70.9929 13.236 70.466 13.8316 69.342 13.8316H67.4802V10.6914H69.342C70.466 10.6914 70.9929 11.305 70.9929 12.2434ZM64.4769 8.12875V20.7977H67.4802V16.0152H68.2003L70.7646 20.7977H74.1543L71.3091 15.7806C73.2059 15.2031 74.049 13.7052 74.049 12.1171C74.049 9.91539 72.5385 8.12875 69.5176 8.12875H64.4769ZM85.7462 20.7977H88.9252L84.4641 8.12875H80.9865L76.5254 20.7977H79.6693L80.4069 18.5598H85.0085L85.7462 20.7977ZM84.2358 16.1777H81.1973L82.7077 11.5396L84.2358 16.1777ZM91.1733 14.4452C91.1733 18.235 93.7376 20.8879 97.3732 20.8879C100.306 20.8879 102.519 19.2095 103.222 16.4664H99.9199C99.4106 17.5492 98.4797 18.0906 97.3381 18.0906C95.4939 18.0906 94.2294 16.683 94.2294 14.4452C94.2294 12.2073 95.4939 10.7997 97.3381 10.7997C98.4797 10.7997 99.4106 11.3411 99.9199 12.4239H103.222C102.519 9.68078 100.306 7.98438 97.3732 7.98438C93.7376 7.98438 91.1733 10.6553 91.1733 14.4452ZM114.498 8.12875V15.9791L109.474 8.12875H106.471V20.7977H109.474V12.9834L114.498 20.7977H117.501V8.12875H114.498ZM126.845 7.98438C123.156 7.98438 120.575 10.6553 120.575 14.4452C120.575 18.235 123.174 20.8879 126.862 20.8879C130.111 20.8879 132.166 18.7042 132.799 16.5205V13.6511H126.265V15.925H130.076C129.62 17.3507 128.583 18.1628 127.091 18.1628C124.93 18.1628 123.631 16.7913 123.631 14.4452C123.631 12.2434 124.913 10.8358 126.845 10.8358C127.969 10.8358 128.812 11.287 129.268 12.1352H132.588C131.938 9.53641 129.795 7.98438 126.845 7.98438V7.98438ZM143.547 20.7977H146.551V8.12875H143.547V13.0916H138.876V8.12875H135.872V20.7977H138.876V15.5821H143.547V20.7977ZM150.116 20.7977H153.12V8.12875H150.116V20.7977ZM164.255 8.12875H156.702V20.7977H164.255V18.3252H159.706V15.546H163.728V13.1638H159.706V10.6012H164.255V8.12875ZM167.609 20.7977H170.613V13.1819L173.388 20.7977H175.812L178.569 13.1999V20.7977H181.572V8.12875H178.042L174.617 16.8995L171.157 8.12875H167.609V20.7977ZM188.317 19.2817C188.317 18.3252 187.597 17.5853 186.543 17.5853C185.471 17.5853 184.751 18.3252 184.751 19.2817C184.751 20.2021 185.471 20.942 186.543 20.942C187.597 20.942 188.317 20.2021 188.317 19.2817V19.2817ZM196.817 17.6936L193.761 8.12875H190.565L194.938 20.7977H198.697L203.07 8.12875H199.891L196.817 17.6936ZM213.749 8.12875V15.9791L208.725 8.12875H205.722V20.7977H208.725V12.9834L213.749 20.7977H216.752V8.12875H213.749Z" fill="#1C3988"/>
<path d="M77.1718 38.671C77.6074 38.671 78.0826 38.539 78.4918 38.407L78.2542 37.5094C78.0166 37.6018 77.6866 37.6942 77.4358 37.6942C76.6042 37.6942 76.327 37.1926 76.327 36.3082V32.3086H78.2674V31.3318H76.327V29.3122H75.3238L75.1786 31.3318L74.0566 31.3978V32.3086H75.1258V36.2818C75.1258 37.7074 75.6406 38.671 77.1718 38.671Z" fill="white"/>
<path d="M79.8904 38.4994H81.0916V33.2986C81.8176 32.5726 82.3192 32.203 83.0584 32.203C84.0088 32.203 84.418 32.7706 84.418 34.117V38.4994H85.6192V33.9586C85.6192 32.1238 84.9328 31.147 83.428 31.147C82.4512 31.147 81.712 31.6882 81.052 32.3482L81.0916 30.8698V27.9922H79.8904V38.4994Z" fill="white"/>
<path d="M90.7992 38.671C91.776 38.671 92.5416 38.341 93.1752 37.9318L92.7396 37.1398C92.2116 37.4962 91.644 37.7074 90.9444 37.7074C89.5848 37.7074 88.6476 36.7306 88.5684 35.1994H93.3996C93.426 35.0278 93.4524 34.777 93.4524 34.513C93.4524 32.467 92.4228 31.147 90.6012 31.147C88.938 31.147 87.3672 32.599 87.3672 34.9222C87.3672 37.285 88.8984 38.671 90.7992 38.671ZM88.5552 34.3282C88.7004 32.929 89.598 32.1106 90.6144 32.1106C91.7364 32.1106 92.3964 32.8894 92.3964 34.3282H88.5552Z" fill="white"/>
<path d="M99.3045 38.4994H100.717L101.72 34.6582C101.905 33.9718 102.05 33.2986 102.209 32.5726H102.275C102.446 33.2986 102.578 33.9586 102.763 34.6318L103.806 38.4994H105.258L107.185 31.3318H106.05L104.994 35.4766C104.835 36.163 104.703 36.8098 104.545 37.483H104.492C104.321 36.8098 104.162 36.163 103.991 35.4766L102.869 31.3318H101.694L100.585 35.4766C100.4 36.1498 100.255 36.8098 100.097 37.483H100.031C99.8985 36.8098 99.7533 36.163 99.6081 35.4766L98.5389 31.3318H97.3113L99.3045 38.4994Z" fill="white"/>
<path d="M110.261 38.671C111.145 38.671 111.95 38.209 112.637 37.6414H112.676L112.782 38.4994H113.772V34.0906C113.772 32.3218 113.033 31.147 111.29 31.147C110.142 31.147 109.126 31.6618 108.466 32.0842L108.941 32.9158C109.508 32.533 110.261 32.1502 111.092 32.1502C112.267 32.1502 112.571 33.0346 112.571 33.9586C109.522 34.3018 108.162 35.0806 108.162 36.6382C108.162 37.9318 109.06 38.671 110.261 38.671ZM110.604 37.7074C109.891 37.7074 109.337 37.3774 109.337 36.559C109.337 35.635 110.155 35.041 112.571 34.7506V36.757C111.871 37.3774 111.304 37.7074 110.604 37.7074Z" fill="white"/>
<path d="M116.18 41.5882C117.606 41.5882 118.358 40.5058 118.847 39.0934L121.553 31.3318H120.378L119.098 35.3182C118.9 35.9518 118.688 36.6778 118.49 37.3246H118.424C118.2 36.6778 117.949 35.9386 117.738 35.3182L116.273 31.3318H115.019L117.896 38.5126L117.738 39.0538C117.448 39.9382 116.933 40.5982 116.114 40.5982C115.93 40.5982 115.718 40.5322 115.573 40.4794L115.336 41.443C115.56 41.5354 115.837 41.5882 116.18 41.5882Z" fill="white"/>
<path d="M126.016 41.5882C127.441 41.5882 128.194 40.5058 128.682 39.0934L131.388 31.3318H130.213L128.933 35.3182C128.735 35.9518 128.524 36.6778 128.326 37.3246H128.26C128.035 36.6778 127.785 35.9386 127.573 35.3182L126.108 31.3318H124.854L127.732 38.5126L127.573 39.0538C127.283 39.9382 126.768 40.5982 125.95 40.5982C125.765 40.5982 125.554 40.5322 125.409 40.4794L125.171 41.443C125.395 41.5354 125.673 41.5882 126.016 41.5882Z" fill="white"/>
<path d="M135.514 38.671C137.27 38.671 138.841 37.2982 138.841 34.9222C138.841 32.533 137.27 31.147 135.514 31.147C133.759 31.147 132.188 32.533 132.188 34.9222C132.188 37.2982 133.759 38.671 135.514 38.671ZM135.514 37.6678C134.273 37.6678 133.442 36.5722 133.442 34.9222C133.442 33.2722 134.273 32.1502 135.514 32.1502C136.755 32.1502 137.6 33.2722 137.6 34.9222C137.6 36.5722 136.755 37.6678 135.514 37.6678Z" fill="white"/>
<path d="M142.82 38.671C143.81 38.671 144.523 38.1562 145.196 37.3774H145.235L145.328 38.4994H146.331V31.3318H145.13V36.4138C144.443 37.2718 143.929 37.6282 143.189 37.6282C142.239 37.6282 141.843 37.0606 141.843 35.7274V31.3318H140.642V35.8726C140.642 37.6942 141.315 38.671 142.82 38.671Z" fill="white"/>
<path d="M152.971 38.671C153.301 38.671 153.499 38.6314 153.671 38.5654L153.499 37.6414C153.367 37.6678 153.315 37.6678 153.249 37.6678C153.064 37.6678 152.905 37.5226 152.905 37.153V27.9922H151.704V37.0738C151.704 38.0902 152.074 38.671 152.971 38.671Z" fill="white"/>
<path d="M158.359 38.671C159.336 38.671 160.101 38.341 160.735 37.9318L160.299 37.1398C159.771 37.4962 159.204 37.7074 158.504 37.7074C157.145 37.7074 156.207 36.7306 156.128 35.1994H160.959C160.986 35.0278 161.012 34.777 161.012 34.513C161.012 32.467 159.983 31.147 158.161 31.147C156.498 31.147 154.927 32.599 154.927 34.9222C154.927 37.285 156.458 38.671 158.359 38.671ZM156.115 34.3282C156.26 32.929 157.158 32.1106 158.174 32.1106C159.296 32.1106 159.956 32.8894 159.956 34.3282H156.115Z" fill="white"/>
<path d="M164.221 38.671C165.105 38.671 165.91 38.209 166.597 37.6414H166.636L166.742 38.4994H167.732V34.0906C167.732 32.3218 166.993 31.147 165.25 31.147C164.102 31.147 163.086 31.6618 162.426 32.0842L162.901 32.9158C163.468 32.533 164.221 32.1502 165.052 32.1502C166.227 32.1502 166.531 33.0346 166.531 33.9586C163.482 34.3018 162.122 35.0806 162.122 36.6382C162.122 37.9318 163.02 38.671 164.221 38.671ZM164.564 37.7074C163.851 37.7074 163.297 37.3774 163.297 36.559C163.297 35.635 164.115 35.041 166.531 34.7506V36.757C165.831 37.3774 165.264 37.7074 164.564 37.7074Z" fill="white"/>
<path d="M170.022 38.4994H171.223V33.8926C171.698 32.665 172.437 32.2426 173.031 32.2426C173.322 32.2426 173.493 32.269 173.731 32.3614L173.955 31.3054C173.731 31.1866 173.506 31.147 173.19 31.147C172.384 31.147 171.658 31.7278 171.157 32.6386H171.117L171.012 31.3318H170.022V38.4994Z" fill="white"/>
<path d="M175.139 38.4994H176.34V33.2986C177.066 32.5726 177.568 32.203 178.307 32.203C179.258 32.203 179.667 32.7706 179.667 34.117V38.4994H180.868V33.9586C180.868 32.1238 180.182 31.147 178.677 31.147C177.7 31.147 176.961 31.6882 176.274 32.3614H176.235L176.129 31.3318H175.139V38.4994Z" fill="white"/>
</svg>
