<svg width="198" height="40" viewBox="0 0 198 40" fill="none" xmlns="http://www.w3.org/2000/svg">
<path d="M37.4078 0H1.52064C0.680815 0 0 0.699555 0 1.5625V38.4375C0 39.3004 0.680815 40 1.52064 40H37.4078C38.2477 40 38.9285 39.3004 38.9285 38.4375V1.5625C38.9285 0.699555 38.2477 0 37.4078 0Z" fill="#1C3988"/>
<path d="M20.668 12.4219V11.5625C20.668 11.5211 20.684 11.4813 20.7125 11.452C20.741 11.4227 20.7797 11.4062 20.82 11.4062H29.9567C29.997 11.4062 30.0357 11.4227 30.0642 11.452C30.0927 11.4813 30.1087 11.5211 30.1087 11.5625V12.4219C30.1087 12.4633 30.0927 12.5031 30.0642 12.5324C30.0357 12.5617 29.997 12.5781 29.9567 12.5781H20.82C20.7797 12.5781 20.741 12.5617 20.7125 12.5324C20.684 12.5031 20.668 12.4633 20.668 12.4219ZM32.2376 28.5938H20.82C20.7797 28.5938 20.741 28.6102 20.7125 28.6395C20.684 28.6688 20.668 28.7086 20.668 28.75V29.6094C20.668 29.6508 20.684 29.6906 20.7125 29.7199C20.741 29.7492 20.7797 29.7656 20.82 29.7656H32.2376C32.278 29.7656 32.3166 29.7492 32.3452 29.7199C32.3737 29.6906 32.3897 29.6508 32.3897 29.6094V28.75C32.3897 28.7086 32.3737 28.6688 32.3452 28.6395C32.3166 28.6102 32.278 28.5938 32.2376 28.5938ZM20.82 27.4219H29.9567C29.997 27.4219 30.0357 27.4054 30.0642 27.3761C30.0927 27.3468 30.1087 27.3071 30.1087 27.2656V26.4062C30.1087 26.3648 30.0927 26.3251 30.0642 26.2958C30.0357 26.2665 29.997 26.25 29.9567 26.25H20.82C20.7797 26.25 20.741 26.2665 20.7125 26.2958C20.684 26.3251 20.668 26.3648 20.668 26.4062V27.2656C20.668 27.3071 20.684 27.3468 20.7125 27.3761C20.741 27.4054 20.7797 27.4219 20.82 27.4219ZM32.2376 23.9062H20.82C20.7797 23.9062 20.741 23.9227 20.7125 23.952C20.684 23.9813 20.668 24.0211 20.668 24.0625V24.9219C20.668 24.9633 20.684 25.0031 20.7125 25.0324C20.741 25.0617 20.7797 25.0781 20.82 25.0781H32.2376C32.278 25.0781 32.3166 25.0617 32.3452 25.0324C32.3737 25.0031 32.3897 24.9633 32.3897 24.9219V24.0625C32.3897 24.0211 32.3737 23.9813 32.3452 23.952C32.3166 23.9227 32.278 23.9062 32.2376 23.9062ZM32.2376 13.75H20.82C20.7797 13.75 20.741 13.7665 20.7125 13.7958C20.684 13.8251 20.668 13.8648 20.668 13.9062V14.7656C20.668 14.8071 20.684 14.8468 20.7125 14.8761C20.741 14.9054 20.7797 14.9219 20.82 14.9219H32.2376C32.278 14.9219 32.3166 14.9054 32.3452 14.8761C32.3737 14.8468 32.3897 14.8071 32.3897 14.7656V13.9062C32.3897 13.8648 32.3737 13.8251 32.3452 13.7958C32.3166 13.7665 32.278 13.75 32.2376 13.75ZM32.2376 9.0625H20.82C20.7797 9.0625 20.741 9.07896 20.7125 9.10826C20.684 9.13757 20.668 9.17731 20.668 9.21875V10.0781C20.668 10.1196 20.684 10.1593 20.7125 10.1886C20.741 10.2179 20.7797 10.2344 20.82 10.2344H32.2376C32.278 10.2344 32.3166 10.2179 32.3452 10.1886C32.3737 10.1593 32.3897 10.1196 32.3897 10.0781V9.21875C32.3897 9.17731 32.3737 9.13757 32.3452 9.10826C32.3166 9.07896 32.278 9.0625 32.2376 9.0625Z" fill="white"/>
<path d="M11.4811 21.7578C10.3908 21.7578 9.3251 22.09 8.4186 22.7124C7.5121 23.3348 6.80557 24.2194 6.38835 25.2543C5.97114 26.2893 5.86198 27.4282 6.07467 28.5269C6.28737 29.6256 6.81236 30.6348 7.58328 31.427C8.35419 32.2191 9.33639 32.7586 10.4057 32.9771C11.475 33.1957 12.5833 33.0835 13.5906 32.6548C14.5978 32.2261 15.4587 31.5001 16.0644 30.5687C16.6701 29.6372 16.9934 28.5421 16.9934 27.4219C16.9918 25.9202 16.4105 24.4805 15.3771 23.4187C14.3437 22.3568 12.9425 21.7595 11.4811 21.7578V21.7578ZM11.4811 31.9141C10.6164 31.9141 9.77116 31.6506 9.05222 31.157C8.33327 30.6634 7.77292 29.9618 7.44202 29.141C7.11113 28.3201 7.02455 27.4169 7.19324 26.5455C7.36193 25.6741 7.77831 24.8737 8.38972 24.2454C9.00113 23.6172 9.78012 23.1893 10.6282 23.016C11.4762 22.8427 12.3553 22.9316 13.1541 23.2716C13.953 23.6116 14.6358 24.1874 15.1161 24.9262C15.5965 25.6649 15.8529 26.5334 15.8529 27.4219C15.8517 28.6129 15.3907 29.7547 14.571 30.5969C13.7514 31.4391 12.6402 31.9128 11.4811 31.9141V31.9141ZM11.4811 18.2422C12.5713 18.2422 13.6371 17.91 14.5436 17.2876C15.4501 16.6652 16.1566 15.7806 16.5738 14.7457C16.991 13.7107 17.1002 12.5718 16.8875 11.4731C16.6748 10.3744 16.1498 9.36516 15.3789 8.57303C14.608 7.7809 13.6258 7.24145 12.5565 7.0229C11.4872 6.80435 10.3789 6.91652 9.37161 7.34522C8.36436 7.77392 7.50345 8.49989 6.89775 9.43134C6.29205 10.3628 5.96875 11.4579 5.96875 12.5781C5.9704 14.0798 6.55169 15.5195 7.5851 16.5814C8.61851 17.6432 10.0196 18.2405 11.4811 18.2422V18.2422ZM11.4811 8.08594C12.3458 8.08594 13.191 8.3494 13.91 8.84301C14.6289 9.33662 15.1893 10.0382 15.5201 10.859C15.851 11.6799 15.9376 12.5831 15.7689 13.4545C15.6002 14.3259 15.1839 15.1263 14.5724 15.7546C13.961 16.3828 13.182 16.8107 12.334 16.984C11.4859 17.1573 10.6069 17.0684 9.80805 16.7284C9.0092 16.3884 8.32641 15.8126 7.84602 15.0739C7.36564 14.3351 7.10924 13.4666 7.10924 12.5781C7.1105 11.3871 7.57151 10.2453 8.39112 9.40311C9.21073 8.56094 10.322 8.08724 11.4811 8.08594V8.08594Z" fill="white"/>
<path d="M37.1092 6.28894L34.9586 8.4987C34.816 8.64519 34.6227 8.72748 34.421 8.72748C34.2194 8.72748 34.026 8.64519 33.8835 8.4987L30.6577 5.18386C30.5151 5.03735 30.4351 4.83865 30.4351 4.63147C30.4351 4.4243 30.5151 4.2256 30.6577 4.07909L32.8081 1.8694C32.9506 1.72292 33.144 1.64062 33.3456 1.64062C33.5473 1.64063 33.7406 1.72292 33.8832 1.8694L37.1092 5.18386C37.1798 5.25641 37.2359 5.34255 37.2741 5.43735C37.3123 5.53216 37.332 5.63377 37.332 5.7364C37.332 5.83902 37.3123 5.94064 37.2741 6.03544C37.2359 6.13025 37.1798 6.21639 37.1092 6.28894V6.28894Z" fill="#006488"/>
<path d="M19.5557 7.35096L11.8642 15.2535C11.8331 15.2855 11.7961 15.3109 11.7554 15.3282C11.7147 15.3456 11.6711 15.3545 11.6271 15.3545C11.583 15.3545 11.5394 15.3456 11.4987 15.3282C11.458 15.3109 11.4211 15.2855 11.3899 15.2535L8.03532 11.8074C8.00395 11.7751 7.98633 11.7313 7.98633 11.6857C7.98633 11.64 8.00395 11.5963 8.03532 11.5639L8.98397 10.5889C9.01548 10.5567 9.05814 10.5386 9.10262 10.5386C9.1471 10.5386 9.18976 10.5567 9.22127 10.5889L11.5082 12.9388C11.5237 12.9548 11.5422 12.9675 11.5625 12.9762C11.5828 12.9849 11.6046 12.9893 11.6267 12.9893C11.6487 12.9893 11.6705 12.9849 11.6908 12.9762C11.7111 12.9675 11.7296 12.9548 11.7452 12.9388L18.3696 6.13237C18.4011 6.10013 18.4437 6.08203 18.4881 6.08203C18.5325 6.08203 18.5752 6.10013 18.6066 6.13237L19.5553 7.10714C19.5867 7.13948 19.6044 7.18333 19.6044 7.22905C19.6044 7.27477 19.5867 7.31862 19.5553 7.35096H19.5557ZM10.7698 26.726C10.6285 26.871 10.5165 27.0432 10.4401 27.2328C10.3636 27.4224 10.3243 27.6255 10.3243 27.8307V29.237C10.3243 29.2784 10.3404 29.3182 10.3689 29.3475C10.3974 29.3768 10.4361 29.3932 10.4764 29.3932H11.845C12.0447 29.3933 12.2424 29.3529 12.4269 29.2743C12.6114 29.1958 12.779 29.0807 12.9202 28.9355L14.6253 27.1835L12.475 24.974L10.7698 26.726Z" fill="#7ED957"/>
<path d="M36.5717 6.84109L17.9605 25.9646C17.7483 26.1828 17.4779 26.3314 17.1835 26.3919L15.0083 26.839C14.8244 26.8768 14.6342 26.8673 14.4547 26.8115C14.2751 26.7556 14.1118 26.655 13.9792 26.5187L13.1201 25.6359C12.9875 25.4996 12.8897 25.3318 12.8354 25.1474C12.7811 24.963 12.772 24.7677 12.8088 24.5788L13.2435 22.3438C13.3024 22.0413 13.4471 21.7635 13.6594 21.5454L32.2706 2.42188L36.5717 6.84109Z" fill="#FC9302"/>
<path d="M36.5715 6.84156L17.9603 25.9651C17.748 26.1832 17.4777 26.3319 17.1833 26.3923L15.0081 26.8395C14.8242 26.8773 14.634 26.8678 14.4544 26.8119C14.2749 26.7561 14.1116 26.6555 13.979 26.5191L14.534 23.67C14.5928 23.3674 14.7375 23.0895 14.9499 22.8713L33.5606 3.74805L36.5715 6.84156Z" fill="#FDBF43"/>
<path d="M17.9603 25.9641L16.7752 27.1818C16.634 27.3269 16.4664 27.442 16.2819 27.5205C16.0974 27.5991 15.8997 27.6395 15.7 27.6395C15.5003 27.6395 15.3025 27.5991 15.118 27.5205C14.9335 27.442 14.7659 27.3269 14.6247 27.1818L13.5495 28.2869L11.3989 26.0771L12.4744 24.9723C12.3332 24.8273 12.2212 24.655 12.1447 24.4654C12.0683 24.2758 12.029 24.0727 12.029 23.8675C12.029 23.6623 12.0683 23.4591 12.1447 23.2695C12.2212 23.0799 12.3332 22.9077 12.4744 22.7626L13.6594 21.5449L17.9603 25.9641Z" fill="#006488"/>
<path d="M47.2949 9.63672H50.2647V18.9063H52.9951V9.63672H55.9649V7.38906H47.2949V9.63672ZM64.539 11.1297C64.539 12.032 64.06 12.5734 63.0381 12.5734H61.3457V9.71875H63.0381C64.06 9.71875 64.539 10.2766 64.539 11.1297ZM58.6154 7.38906V18.9063H61.3457V14.5586H62.0003L64.3315 18.9063H67.413L64.8264 14.3453C66.5508 13.8203 67.3172 12.4586 67.3172 11.0148C67.3172 9.01328 65.9441 7.38906 63.1978 7.38906H58.6154ZM77.9511 18.9063H80.8411L76.7855 7.38906H73.6241L69.5685 18.9063H72.4266L73.0972 16.8719H77.2805L77.9511 18.9063ZM76.578 14.7063H73.8157L75.1888 10.4898L76.578 14.7063ZM82.8848 13.1313C82.8848 16.5766 85.216 18.9883 88.5211 18.9883C91.1875 18.9883 93.1994 17.4625 93.838 14.9688H90.8363C90.3732 15.9531 89.527 16.4453 88.4892 16.4453C86.8127 16.4453 85.663 15.1656 85.663 13.1313C85.663 11.0969 86.8127 9.81719 88.4892 9.81719C89.527 9.81719 90.3732 10.3094 90.8363 11.2938H93.838C93.1994 8.8 91.1875 7.25781 88.5211 7.25781C85.216 7.25781 82.8848 9.68594 82.8848 13.1313ZM104.089 7.38906V14.5258L99.5222 7.38906H96.7919V18.9063H99.5222V11.8023L104.089 18.9063H106.819V7.38906H104.089ZM115.313 7.25781C111.96 7.25781 109.613 9.68594 109.613 13.1313C109.613 16.5766 111.976 18.9883 115.329 18.9883C118.283 18.9883 120.151 17.0031 120.726 15.018V12.4094H114.786V14.4766H118.251C117.836 15.7727 116.894 16.5109 115.537 16.5109C113.573 16.5109 112.391 15.2641 112.391 13.1313C112.391 11.1297 113.557 9.85 115.313 9.85C116.335 9.85 117.102 10.2602 117.517 11.0313H120.534C119.944 8.66875 117.996 7.25781 115.313 7.25781V7.25781ZM130.498 18.9063H133.228V7.38906H130.498V11.9008H126.251V7.38906H123.52V18.9063H126.251V14.1648H130.498V18.9063ZM136.469 18.9063H139.2V7.38906H136.469V18.9063ZM149.323 7.38906H142.457V18.9063H149.323V16.6586H145.187V14.132H148.844V11.9664H145.187V9.63672H149.323V7.38906ZM152.372 18.9063H155.102V11.9828L157.625 18.9063H159.829L162.335 11.9992V18.9063H165.066V7.38906H161.856L158.743 15.3625L155.597 7.38906H152.372V18.9063ZM171.197 17.5281C171.197 16.6586 170.542 15.9859 169.584 15.9859C168.61 15.9859 167.956 16.6586 167.956 17.5281C167.956 18.3648 168.61 19.0375 169.584 19.0375C170.542 19.0375 171.197 18.3648 171.197 17.5281V17.5281ZM178.925 16.0844L176.147 7.38906H173.241L177.216 18.9063H180.633L184.609 7.38906H181.719L178.925 16.0844ZM194.317 7.38906V14.5258L189.75 7.38906H187.02V18.9063H189.75V11.8023L194.317 18.9063H197.047V7.38906H194.317Z" fill="#1C3988"/>
<path d="M70.1562 35.1553C70.5522 35.1553 70.9842 35.0353 71.3562 34.9153L71.1402 34.0993C70.9242 34.1833 70.6242 34.2673 70.3962 34.2673C69.6402 34.2673 69.3882 33.8113 69.3882 33.0073V29.3713H71.1522V28.4833H69.3882V26.6473H68.4762L68.3442 28.4833L67.3242 28.5433V29.3713H68.2962V32.9833C68.2962 34.2793 68.7642 35.1553 70.1562 35.1553Z" fill="#393939"/>
<path d="M72.6277 34.9993H73.7197V30.2713C74.3797 29.6113 74.8357 29.2753 75.5077 29.2753C76.3717 29.2753 76.7437 29.7913 76.7437 31.0153V34.9993H77.8357V30.8713C77.8357 29.2033 77.2117 28.3153 75.8437 28.3153C74.9557 28.3153 74.2837 28.8073 73.6837 29.4073L73.7197 28.0633V25.4473H72.6277V34.9993Z" fill="#393939"/>
<path d="M82.5447 35.1553C83.4327 35.1553 84.1287 34.8553 84.7047 34.4833L84.3087 33.7633C83.8287 34.0873 83.3127 34.2793 82.6767 34.2793C81.4407 34.2793 80.5887 33.3913 80.5167 31.9993H84.9087C84.9327 31.8433 84.9567 31.6153 84.9567 31.3753C84.9567 29.5153 84.0207 28.3153 82.3647 28.3153C80.8527 28.3153 79.4247 29.6353 79.4247 31.7473C79.4247 33.8953 80.8167 35.1553 82.5447 35.1553ZM80.5047 31.2073C80.6367 29.9353 81.4527 29.1913 82.3767 29.1913C83.3967 29.1913 83.9967 29.8993 83.9967 31.2073H80.5047Z" fill="#393939"/>
<path d="M90.2768 34.9993H91.5608L92.4728 31.5073C92.6408 30.8833 92.7728 30.2713 92.9168 29.6113H92.9768C93.1328 30.2713 93.2528 30.8713 93.4208 31.4833L94.3688 34.9993H95.6888L97.4408 28.4833H96.4088L95.4488 32.2513C95.3048 32.8753 95.1848 33.4633 95.0408 34.0753H94.9928C94.8368 33.4633 94.6928 32.8753 94.5368 32.2513L93.5168 28.4833H92.4488L91.4408 32.2513C91.2728 32.8633 91.1408 33.4633 90.9968 34.0753H90.9368C90.8168 33.4633 90.6848 32.8753 90.5528 32.2513L89.5808 28.4833H88.4648L90.2768 34.9993Z" fill="#393939"/>
<path d="M100.237 35.1553C101.041 35.1553 101.773 34.7353 102.397 34.2193H102.433L102.529 34.9993H103.429V30.9913C103.429 29.3833 102.757 28.3153 101.173 28.3153C100.129 28.3153 99.205 28.7833 98.605 29.1673L99.037 29.9233C99.553 29.5753 100.237 29.2273 100.993 29.2273C102.061 29.2273 102.337 30.0313 102.337 30.8713C99.565 31.1833 98.329 31.8913 98.329 33.3073C98.329 34.4833 99.145 35.1553 100.237 35.1553ZM100.549 34.2793C99.901 34.2793 99.397 33.9793 99.397 33.2353C99.397 32.3953 100.141 31.8553 102.337 31.5913V33.4153C101.701 33.9793 101.185 34.2793 100.549 34.2793Z" fill="#393939"/>
<path d="M105.618 37.8073C106.914 37.8073 107.598 36.8233 108.042 35.5393L110.502 28.4833H109.434L108.27 32.1073C108.09 32.6833 107.898 33.3433 107.718 33.9313H107.658C107.454 33.3433 107.226 32.6713 107.034 32.1073L105.702 28.4833H104.562L107.178 35.0113L107.034 35.5033C106.77 36.3073 106.302 36.9073 105.558 36.9073C105.39 36.9073 105.198 36.8473 105.066 36.7993L104.85 37.6753C105.054 37.7593 105.306 37.8073 105.618 37.8073Z" fill="#393939"/>
<path d="M114.56 37.8073C115.856 37.8073 116.54 36.8233 116.984 35.5393L119.444 28.4833H118.376L117.212 32.1073C117.032 32.6833 116.84 33.3433 116.66 33.9313H116.6C116.396 33.3433 116.168 32.6713 115.976 32.1073L114.644 28.4833H113.504L116.12 35.0113L115.976 35.5033C115.712 36.3073 115.244 36.9073 114.5 36.9073C114.332 36.9073 114.14 36.8473 114.008 36.7993L113.792 37.6753C113.996 37.7593 114.248 37.8073 114.56 37.8073Z" fill="#393939"/>
<path d="M123.195 35.1553C124.791 35.1553 126.219 33.9073 126.219 31.7473C126.219 29.5753 124.791 28.3153 123.195 28.3153C121.599 28.3153 120.171 29.5753 120.171 31.7473C120.171 33.9073 121.599 35.1553 123.195 35.1553ZM123.195 34.2433C122.067 34.2433 121.311 33.2473 121.311 31.7473C121.311 30.2473 122.067 29.2273 123.195 29.2273C124.323 29.2273 125.091 30.2473 125.091 31.7473C125.091 33.2473 124.323 34.2433 123.195 34.2433Z" fill="#393939"/>
<path d="M129.836 35.1553C130.736 35.1553 131.384 34.6873 131.996 33.9793H132.032L132.116 34.9993H133.028V28.4833H131.936V33.1033C131.312 33.8833 130.844 34.2073 130.172 34.2073C129.308 34.2073 128.948 33.6913 128.948 32.4793V28.4833H127.856V32.6113C127.856 34.2673 128.468 35.1553 129.836 35.1553Z" fill="#393939"/>
<path d="M139.065 35.1553C139.365 35.1553 139.545 35.1193 139.701 35.0593L139.545 34.2193C139.425 34.2433 139.377 34.2433 139.317 34.2433C139.149 34.2433 139.005 34.1113 139.005 33.7753V25.4473H137.913V33.7033C137.913 34.6273 138.249 35.1553 139.065 35.1553Z" fill="#393939"/>
<path d="M143.963 35.1553C144.851 35.1553 145.547 34.8553 146.123 34.4833L145.727 33.7633C145.247 34.0873 144.731 34.2793 144.095 34.2793C142.859 34.2793 142.007 33.3913 141.935 31.9993H146.327C146.351 31.8433 146.375 31.6153 146.375 31.3753C146.375 29.5153 145.439 28.3153 143.783 28.3153C142.271 28.3153 140.843 29.6353 140.843 31.7473C140.843 33.8953 142.235 35.1553 143.963 35.1553ZM141.923 31.2073C142.055 29.9353 142.871 29.1913 143.795 29.1913C144.815 29.1913 145.415 29.8993 145.415 31.2073H141.923Z" fill="#393939"/>
<path d="M149.292 35.1553C150.096 35.1553 150.828 34.7353 151.452 34.2193H151.488L151.584 34.9993H152.484V30.9913C152.484 29.3833 151.812 28.3153 150.228 28.3153C149.184 28.3153 148.26 28.7833 147.66 29.1673L148.092 29.9233C148.608 29.5753 149.292 29.2273 150.048 29.2273C151.116 29.2273 151.392 30.0313 151.392 30.8713C148.62 31.1833 147.384 31.8913 147.384 33.3073C147.384 34.4833 148.2 35.1553 149.292 35.1553ZM149.604 34.2793C148.956 34.2793 148.452 33.9793 148.452 33.2353C148.452 32.3953 149.196 31.8553 151.392 31.5913V33.4153C150.756 33.9793 150.24 34.2793 149.604 34.2793Z" fill="#393939"/>
<path d="M154.565 34.9993H155.657V30.8113C156.089 29.6953 156.761 29.3113 157.301 29.3113C157.565 29.3113 157.721 29.3353 157.937 29.4193L158.141 28.4593C157.937 28.3513 157.733 28.3153 157.445 28.3153C156.713 28.3153 156.053 28.8433 155.597 29.6713H155.561L155.465 28.4833H154.565V34.9993Z" fill="#393939"/>
<path d="M159.218 34.9993H160.31V30.2713C160.97 29.6113 161.426 29.2753 162.098 29.2753C162.962 29.2753 163.334 29.7913 163.334 31.0153V34.9993H164.425V30.8713C164.425 29.2033 163.802 28.3153 162.434 28.3153C161.546 28.3153 160.874 28.8073 160.25 29.4193H160.214L160.118 28.4833H159.218V34.9993Z" fill="#393939"/>
</svg>
