<svg height="480pt" viewBox="0 -48 480 480" width="480pt" xmlns="http://www.w3.org/2000/svg"><path d="m456 376h-432c-8.824219-.027344-15.972656-7.175781-16-16v-32h464v32c-.027344 8.824219-7.175781 15.972656-16 16zm0 0" fill="#bddbff"/><path d="m296 168c0 30.929688-25.070312 56-56 56s-56-25.070312-56-56 25.070312-56 56-56 56 25.070312 56 56zm0 0" fill="#bddbff"/><path d="m104 8h272c8.824219.027344 15.972656 7.175781 16 16v32h-304v-32c.027344-8.824219 7.175781-15.972656 16-16zm0 0" fill="#bddbff"/><g fill="#3d9ae2"><path d="m472 320h-16v-248c-.027344-22.082031-17.917969-39.972656-40-40h-16v-8c0-13.253906-10.746094-24-24-24h-272c-13.253906 0-24 10.746094-24 24v8h-16c-22.082031.027344-39.972656 17.917969-40 40v248h-16c-4.417969 0-8 3.582031-8 8v32c0 13.253906 10.746094 24 24 24h432c13.253906 0 24-10.746094 24-24v-32c0-4.417969-3.582031-8-8-8zm-376-256h288v200c0 4.417969-3.582031 8-8 8h-272c-4.417969 0-8-3.582031-8-8zm8-48h272c4.417969 0 8 3.582031 8 8v24h-288v-24c0-4.417969 3.582031-8 8-8zm-64 56c0-13.253906 10.746094-24 24-24h16v216c0 13.253906 10.746094 24 24 24h272c13.253906 0 24-10.746094 24-24v-216h16c13.253906 0 24 10.746094 24 24v248h-400zm424 288c0 4.417969-3.582031 8-8 8h-432c-4.417969 0-8-3.582031-8-8v-24h448zm0 0"/><path d="m208 344h64v16h-64zm0 0"/><path d="m112 24h16v16h-16zm0 0"/><path d="m144 24h16v16h-16zm0 0"/><path d="m176 24h16v16h-16zm0 0"/><path d="m240 232c35.347656 0 64-28.652344 64-64s-28.652344-64-64-64-64 28.652344-64 64c.039062 35.328125 28.671875 63.960938 64 64zm0-112c26.507812 0 48 21.492188 48 48s-21.492188 48-48 48-48-21.492188-48-48c.027344-26.5 21.5-47.972656 48-48zm0 0"/><path d="m223.023438 196.28125 16.976562-16.96875 16.976562 16.96875 11.3125-11.3125-16.976562-16.96875 16.976562-16.96875-11.3125-11.3125-16.976562 16.96875-16.976562-16.96875-11.3125 11.3125 16.976562 16.96875-16.976562 16.96875zm0 0"/><path d="m312 96h40v16h-40zm0 0"/><path d="m144 224h40v16h-40zm0 0"/><path d="m312 224h40v16h-40zm0 0"/><path d="m320 128h32v16h-32zm0 0"/><path d="m320 160h32v16h-32zm0 0"/><path d="m320 192h32v16h-32zm0 0"/><path d="m128 128h32v16h-32zm0 0"/><path d="m144 160h16v16h-16zm0 0"/><path d="m128 192h32v16h-32zm0 0"/><path d="m130.34375 117.65625 11.3125-11.3125-10.34375-10.34375 10.34375-10.34375-11.3125-11.3125-16 16c-3.121094 3.125-3.121094 8.1875 0 11.3125zm0 0"/><path d="m173.65625 117.65625 16-16c3.121094-3.125 3.121094-8.1875 0-11.3125l-16-16-11.3125 11.3125 10.34375 10.34375-10.34375 10.34375zm0 0"/></g></svg>