<svg width="24" height="24" viewBox="0 0 24 24" fill="none" xmlns="http://www.w3.org/2000/svg">
<path d="M19 3C17.346 3 16 4.346 16 6C16 6.502 16.136 6.968 16.354 7.385L15.238 8.687C14.5779 8.23859 13.798 7.99921 13 8C12.261 8 11.575 8.216 10.98 8.566L9.566 7.152C9.84689 6.64643 9.99613 6.07835 10 5.5C10 3.57 8.43 2 6.5 2C4.57 2 3 3.57 3 5.5C3 7.43 4.57 9 6.5 9C7.101 9 7.658 8.834 8.152 8.566L9.566 9.98C9.19972 10.5904 9.00424 11.2881 9 12C9 12.997 9.38 13.899 9.985 14.601L8.293 16.293L8.318 16.318C7.90916 16.1115 7.45801 16.0027 7 16C5.346 16 4 17.346 4 19C4 20.654 5.346 22 7 22C8.654 22 10 20.654 10 19C10 18.524 9.879 18.081 9.682 17.682L9.707 17.707L11.661 15.753C12.082 15.903 12.528 16 13 16C15.206 16 17 14.206 17 12C16.9957 11.3788 16.8453 10.7673 16.561 10.215L17.814 8.753C18.178 8.911 18.578 9 19 9C20.654 9 22 7.654 22 6C22 4.346 20.654 3 19 3ZM7 20C6.73478 20 6.48043 19.8946 6.29289 19.7071C6.10536 19.5196 6 19.2652 6 19C6 18.7348 6.10536 18.4804 6.29289 18.2929C6.48043 18.1054 6.73478 18 7 18C7.26522 18 7.51957 18.1054 7.70711 18.2929C7.89464 18.4804 8 18.7348 8 19C8 19.2652 7.89464 19.5196 7.70711 19.7071C7.51957 19.8946 7.26522 20 7 20ZM5 5.5C5 4.673 5.673 4 6.5 4C7.327 4 8 4.673 8 5.5C8 6.327 7.327 7 6.5 7C5.673 7 5 6.327 5 5.5ZM13 14C11.897 14 11 13.103 11 12C11 10.897 11.897 10 13 10C14.103 10 15 10.897 15 12C15 13.103 14.103 14 13 14ZM19 7C18.7348 7 18.4804 6.89464 18.2929 6.70711C18.1054 6.51957 18 6.26522 18 6C18 5.73478 18.1054 5.48043 18.2929 5.29289C18.4804 5.10536 18.7348 5 19 5C19.2652 5 19.5196 5.10536 19.7071 5.29289C19.8946 5.48043 20 5.73478 20 6C20 6.26522 19.8946 6.51957 19.7071 6.70711C19.5196 6.89464 19.2652 7 19 7Z" fill="white"/>
</svg>
