<svg width="14" height="16" viewBox="0 0 14 16" fill="none" xmlns="http://www.w3.org/2000/svg">
<path fill-rule="evenodd" clip-rule="evenodd" d="M9.4978 6.14599C9.53855 6.19244 9.57087 6.24761 9.59293 6.30836C9.61498 6.3691 9.62633 6.43423 9.62633 6.49999C9.62633 6.56576 9.61498 6.63088 9.59293 6.69163C9.57087 6.75237 9.53855 6.80755 9.4978 6.85399L6.8728 9.85399C6.83216 9.90056 6.78388 9.9375 6.73073 9.96271C6.67758 9.98791 6.6206 10.0009 6.56305 10.0009C6.50551 10.0009 6.44853 9.98791 6.39537 9.96271C6.34222 9.9375 6.29394 9.90056 6.2533 9.85399L4.9408 8.35399C4.90013 8.30751 4.86786 8.25232 4.84584 8.19158C4.82383 8.13084 4.8125 8.06574 4.8125 7.99999C4.8125 7.93425 4.82383 7.86915 4.84584 7.80841C4.86786 7.74767 4.90013 7.69248 4.9408 7.64599C4.98148 7.59951 5.02977 7.56263 5.08292 7.53747C5.13606 7.51231 5.19303 7.49936 5.25055 7.49936C5.30808 7.49936 5.36504 7.51231 5.41819 7.53747C5.47134 7.56263 5.51963 7.59951 5.5603 7.64599L6.56305 8.79299L8.8783 6.14599C8.91894 6.09943 8.96722 6.06249 9.02037 6.03728C9.07352 6.01207 9.13051 5.9991 9.18805 5.9991C9.2456 5.9991 9.30258 6.01207 9.35573 6.03728C9.40888 6.06249 9.45716 6.09943 9.4978 6.14599Z" fill="white"/>
<path d="M2.625 0H11.375C11.8391 0 12.2842 0.210714 12.6124 0.585786C12.9406 0.960859 13.125 1.46957 13.125 2V14C13.125 14.5304 12.9406 15.0391 12.6124 15.4142C12.2842 15.7893 11.8391 16 11.375 16H2.625C2.16087 16 1.71575 15.7893 1.38756 15.4142C1.05937 15.0391 0.875 14.5304 0.875 14V13H1.75V14C1.75 14.2652 1.84219 14.5196 2.00628 14.7071C2.17038 14.8946 2.39294 15 2.625 15H11.375C11.6071 15 11.8296 14.8946 11.9937 14.7071C12.1578 14.5196 12.25 14.2652 12.25 14V2C12.25 1.73478 12.1578 1.48043 11.9937 1.29289C11.8296 1.10536 11.6071 1 11.375 1H2.625C2.39294 1 2.17038 1.10536 2.00628 1.29289C1.84219 1.48043 1.75 1.73478 1.75 2V3H0.875V2C0.875 1.46957 1.05937 0.960859 1.38756 0.585786C1.71575 0.210714 2.16087 0 2.625 0V0Z" fill="white"/>
<path d="M0.875 5V4.5C0.875 4.36739 0.921094 4.24021 1.00314 4.14645C1.08519 4.05268 1.19647 4 1.3125 4C1.42853 4 1.53981 4.05268 1.62186 4.14645C1.70391 4.24021 1.75 4.36739 1.75 4.5V5H2.1875C2.30353 5 2.41481 5.05268 2.49686 5.14645C2.57891 5.24021 2.625 5.36739 2.625 5.5C2.625 5.63261 2.57891 5.75979 2.49686 5.85355C2.41481 5.94732 2.30353 6 2.1875 6H0.4375C0.321468 6 0.210188 5.94732 0.128141 5.85355C0.0460936 5.75979 0 5.63261 0 5.5C0 5.36739 0.0460936 5.24021 0.128141 5.14645C0.210188 5.05268 0.321468 5 0.4375 5H0.875ZM0.875 8V7.5C0.875 7.36739 0.921094 7.24021 1.00314 7.14645C1.08519 7.05268 1.19647 7 1.3125 7C1.42853 7 1.53981 7.05268 1.62186 7.14645C1.70391 7.24021 1.75 7.36739 1.75 7.5V8H2.1875C2.30353 8 2.41481 8.05268 2.49686 8.14645C2.57891 8.24021 2.625 8.36739 2.625 8.5C2.625 8.63261 2.57891 8.75979 2.49686 8.85355C2.41481 8.94732 2.30353 9 2.1875 9H0.4375C0.321468 9 0.210188 8.94732 0.128141 8.85355C0.0460936 8.75979 0 8.63261 0 8.5C0 8.36739 0.0460936 8.24021 0.128141 8.14645C0.210188 8.05268 0.321468 8 0.4375 8H0.875ZM0.875 11V10.5C0.875 10.3674 0.921094 10.2402 1.00314 10.1464C1.08519 10.0527 1.19647 10 1.3125 10C1.42853 10 1.53981 10.0527 1.62186 10.1464C1.70391 10.2402 1.75 10.3674 1.75 10.5V11H2.1875C2.30353 11 2.41481 11.0527 2.49686 11.1464C2.57891 11.2402 2.625 11.3674 2.625 11.5C2.625 11.6326 2.57891 11.7598 2.49686 11.8536C2.41481 11.9473 2.30353 12 2.1875 12H0.4375C0.321468 12 0.210188 11.9473 0.128141 11.8536C0.0460936 11.7598 0 11.6326 0 11.5C0 11.3674 0.0460936 11.2402 0.128141 11.1464C0.210188 11.0527 0.321468 11 0.4375 11H0.875Z" fill="white"/>
</svg>
