<svg width="18" height="18" viewBox="0 0 18 18" fill="none" xmlns="http://www.w3.org/2000/svg">
<path d="M9 0.25C4.16797 0.25 0.25 4.16797 0.25 9C0.25 13.832 4.16797 17.75 9 17.75C13.832 17.75 17.75 13.832 17.75 9C17.75 4.16797 13.832 0.25 9 0.25ZM9 16.2656C4.98828 16.2656 1.73438 13.0117 1.73438 9C1.73438 4.98828 4.98828 1.73438 9 1.73438C13.0117 1.73438 16.2656 4.98828 16.2656 9C16.2656 13.0117 13.0117 16.2656 9 16.2656ZM9.93164 8.54688L9.43555 8.43164V5.80859C10.1777 5.91016 10.6367 6.375 10.7148 6.94531C10.7246 7.02344 10.791 7.08008 10.8691 7.08008H11.7461C11.8379 7.08008 11.9102 7 11.9023 6.9082C11.7832 5.69141 10.7812 4.91016 9.44336 4.77539V4.13672C9.44336 4.05078 9.37305 3.98047 9.28711 3.98047H8.73828C8.65234 3.98047 8.58203 4.05078 8.58203 4.13672V4.78125C7.19922 4.91602 6.11719 5.67969 6.11719 7.10547C6.11719 8.42578 7.08984 9.0625 8.11133 9.30664L8.59375 9.42969V12.2168C7.73047 12.1016 7.24609 11.6406 7.14648 11.0195C7.13477 10.9453 7.06836 10.8906 6.99219 10.8906H6.08984C5.99805 10.8906 5.92578 10.9688 5.93359 11.0605C6.02148 12.1348 6.83594 13.123 8.57422 13.25V13.8633C8.57422 13.9492 8.64453 14.0195 8.73047 14.0195H9.28516C9.37109 14.0195 9.44141 13.9492 9.44141 13.8613L9.4375 13.2422C10.9668 13.1074 12.0605 12.2891 12.0605 10.8203C12.0586 9.46484 11.1973 8.85938 9.93164 8.54688ZM8.5918 8.23047C8.48242 8.19922 8.39062 8.16992 8.29883 8.13281C7.63867 7.89453 7.33203 7.50977 7.33203 7.01367C7.33203 6.30469 7.86914 5.90039 8.5918 5.80859V8.23047ZM9.43555 12.2227V9.61133C9.49609 9.62891 9.55078 9.64258 9.60742 9.6543C10.5312 9.93555 10.8418 10.3262 10.8418 10.9258C10.8418 11.6895 10.2676 12.1484 9.43555 12.2227Z" fill="white"/>
</svg>
