<svg width="13" height="14" viewBox="0 0 13 14" fill="none" xmlns="http://www.w3.org/2000/svg">
<path d="M5 0C4.46957 0 3.96086 0.210714 3.58579 0.585786C3.21071 0.960859 3 1.46957 3 2V4.206C3.32688 4.11346 3.66165 4.05153 4 4.021V2.001C4 1.73578 4.10536 1.48143 4.29289 1.29389C4.48043 1.10636 4.73478 1.001 5 1.001H8V3.501C8 3.89882 8.15804 4.28036 8.43934 4.56166C8.72064 4.84296 9.10218 5.001 9.5 5.001H12V11.998C12 12.2632 11.8946 12.5176 11.7071 12.7051C11.5196 12.8926 11.2652 12.998 11 12.998H8.744C8.431 13.378 8.069 13.714 7.666 13.998H11C11.5304 13.998 12.0391 13.7873 12.4142 13.4122C12.7893 13.0371 13 12.5284 13 11.998V4.418C13 4.22091 12.9611 4.02577 12.8856 3.84372C12.8101 3.66166 12.6994 3.49627 12.56 3.357L9.642 0.439C9.3608 0.157982 8.97955 8.48813e-05 8.582 0H5ZM9 3.501V1.211L11.79 4H9.5C9.36739 4 9.24021 3.94732 9.14645 3.85355C9.05268 3.75979 9 3.63261 9 3.5V3.501ZM9 9.499C9 8.30553 8.52589 7.16093 7.68198 6.31702C6.83807 5.47311 5.69347 4.999 4.5 4.999C3.30653 4.999 2.16193 5.47311 1.31802 6.31702C0.474106 7.16093 0 8.30553 0 9.499C0 10.6925 0.474106 11.8371 1.31802 12.681C2.16193 13.5249 3.30653 13.999 4.5 13.999C5.69347 13.999 6.83807 13.5249 7.68198 12.681C8.52589 11.8371 9 10.6925 9 9.499ZM4.5 11.38C4.66576 11.38 4.82473 11.4458 4.94194 11.5631C5.05915 11.6803 5.125 11.8392 5.125 12.005C5.125 12.1708 5.05915 12.3297 4.94194 12.4469C4.82473 12.5642 4.66576 12.63 4.5 12.63C4.33424 12.63 4.17527 12.5642 4.05806 12.4469C3.94085 12.3297 3.875 12.1708 3.875 12.005C3.875 11.8392 3.94085 11.6803 4.05806 11.5631C4.17527 11.4458 4.33424 11.38 4.5 11.38ZM4.5 6.502C5.531 6.502 6.353 7.348 6.353 8.452C6.353 9.038 6.139 9.36 5.626 9.771L5.349 9.985C5.103 10.18 5.02 10.285 5.003 10.434L4.992 10.59C4.96974 10.7129 4.90225 10.8231 4.80283 10.8988C4.70341 10.9745 4.57926 11.0102 4.45482 10.9989C4.33039 10.9876 4.21469 10.9301 4.13051 10.8378C4.04633 10.7455 3.99977 10.6249 4 10.5C4 9.929 4.21 9.616 4.716 9.211L4.994 8.996C5.282 8.767 5.354 8.654 5.354 8.452C5.354 7.894 4.972 7.502 4.5 7.502C4.006 7.502 3.641 7.868 3.647 8.447C3.64766 8.51266 3.63537 8.57781 3.61085 8.63872C3.58633 8.69964 3.55005 8.75513 3.50409 8.80202C3.45812 8.84891 3.40337 8.88629 3.34296 8.91203C3.28255 8.93776 3.21766 8.95134 3.152 8.952C3.08634 8.95266 3.02119 8.94037 2.96028 8.91585C2.89936 8.89133 2.84388 8.85505 2.79698 8.80909C2.75009 8.76312 2.71271 8.70837 2.68697 8.64796C2.66124 8.58755 2.64766 8.52266 2.647 8.457C2.636 7.32 3.452 6.502 4.5 6.502Z" fill="white"/>
</svg>
