<svg width="14" height="20" viewBox="0 0 14 20" fill="none" xmlns="http://www.w3.org/2000/svg">
<path d="M11.3532 9.35351C11.4443 9.2592 11.4947 9.1329 11.4936 9.00181C11.4924 8.87071 11.4398 8.7453 11.3471 8.6526C11.2544 8.55989 11.129 8.50731 10.9979 8.50617C10.8668 8.50503 10.7405 8.55543 10.6462 8.64651L6.99972 12.293L5.35322 10.6465C5.25892 10.5554 5.13261 10.505 5.00152 10.5062C4.87042 10.5073 4.74501 10.5599 4.65231 10.6526C4.5596 10.7453 4.50702 10.8707 4.50588 11.0018C4.50474 11.1329 4.55514 11.2592 4.64622 11.3535L6.99972 13.707L11.3532 9.35351Z" fill="white"/>
<path fill-rule="evenodd" clip-rule="evenodd" d="M14 5.5V16C14 16.3978 13.842 16.7794 13.5607 17.0607C13.2794 17.342 12.8978 17.5 12.5 17.5H3.5C3.10218 17.5 2.72064 17.342 2.43934 17.0607C2.15804 16.7794 2 16.3978 2 16V2C2 1.60218 2.15804 1.22064 2.43934 0.93934C2.72064 0.658035 3.10218 0.5 3.5 0.5H9L14 5.5ZM9 6C8.86739 6 8.74021 5.94732 8.64645 5.85355C8.55268 5.75979 8.5 5.63261 8.5 5.5V1.5H3.5C3.36739 1.5 3.24021 1.55268 3.14645 1.64645C3.05268 1.74021 3 1.86739 3 2V16C3 16.1326 3.05268 16.2598 3.14645 16.3536C3.24021 16.4473 3.36739 16.5 3.5 16.5H12.5C12.6326 16.5 12.7598 16.4473 12.8536 16.3536C12.9473 16.2598 13 16.1326 13 16V6H9ZM9.5 2.414L12.086 5H9.5V2.414Z" fill="white"/>
<path d="M1 3.5V17C1 17.3978 1.15804 17.7794 1.43934 18.0607C1.72064 18.342 2.10218 18.5 2.5 18.5H12V19.5H2.5C1.83696 19.5 1.20107 19.2366 0.732233 18.7678C0.263392 18.2989 0 17.663 0 17V3.5H1Z" fill="white"/>
</svg>
