<svg width="20" height="20" viewBox="0 0 20 20" fill="none" xmlns="http://www.w3.org/2000/svg">
<path fill-rule="evenodd" clip-rule="evenodd" d="M19.5 4C19.5 4.35362 19.342 4.69276 19.0607 4.94281C18.7794 5.19286 18.3978 5.33333 18 5.33333H17.25V17.3333C17.25 18.0406 16.9339 18.7189 16.3713 19.219C15.8087 19.719 15.0456 20 14.25 20H5.25C4.45435 20 3.69129 19.719 3.12868 19.219C2.56607 18.7189 2.25 18.0406 2.25 17.3333V5.33333H1.5C1.10218 5.33333 0.720644 5.19286 0.43934 4.94281C0.158035 4.69276 0 4.35362 0 4V2.66667C0 2.31304 0.158035 1.97391 0.43934 1.72386C0.720644 1.47381 1.10218 1.33333 1.5 1.33333H6.75C6.75 0.979711 6.90804 0.640573 7.18934 0.390524C7.47064 0.140476 7.85218 0 8.25 0L11.25 0C11.6478 0 12.0294 0.140476 12.3107 0.390524C12.592 0.640573 12.75 0.979711 12.75 1.33333H18C18.3978 1.33333 18.7794 1.47381 19.0607 1.72386C19.342 1.97391 19.5 2.31304 19.5 2.66667V4ZM3.927 5.33333L3.75 5.412V17.3333C3.75 17.687 3.90804 18.0261 4.18934 18.2761C4.47064 18.5262 4.85218 18.6667 5.25 18.6667H14.25C14.6478 18.6667 15.0294 18.5262 15.3107 18.2761C15.592 18.0261 15.75 17.687 15.75 17.3333V5.412L15.573 5.33333H3.927ZM1.5 4V2.66667H18V4H1.5Z" fill="black"/>
</svg>
