<svg width="152" height="33" viewBox="0 0 152 33" fill="none" xmlns="http://www.w3.org/2000/svg">
<path d="M0 2.82282H2.99925V13.3959H5.75662V2.82282H8.75587V0.259083H0V2.82282ZM17.415 4.52573C17.415 5.55497 16.9312 6.17251 15.8992 6.17251H14.19V2.91638H15.8992C16.9312 2.91638 17.415 3.55264 17.415 4.52573ZM11.4326 0.259083V13.3959H14.19V8.43683H14.8511L17.2054 13.3959H20.3175L17.7052 8.19356C19.4467 7.59473 20.2207 6.04152 20.2207 4.39474C20.2207 2.11171 18.834 0.259083 16.0605 0.259083H11.4326ZM30.96 13.3959H33.8786L29.7829 0.259083H26.5901L22.4944 13.3959H25.3807L26.058 11.0754H30.2827L30.96 13.3959ZM29.5732 8.60525H26.7836L28.1704 3.79591L29.5732 8.60525ZM35.9426 6.80877C35.9426 10.7386 38.2969 13.4894 41.6347 13.4894C44.3276 13.4894 46.3593 11.7491 47.0043 8.90466H43.9728C43.5052 10.0275 42.6506 10.5889 41.6025 10.5889C39.9094 10.5889 38.7483 9.12923 38.7483 6.80877C38.7483 4.48831 39.9094 3.02866 41.6025 3.02866C42.6506 3.02866 43.5052 3.59006 43.9728 4.71287H47.0043C46.3593 1.86843 44.3276 0.109375 41.6347 0.109375C38.2969 0.109375 35.9426 2.87896 35.9426 6.80877ZM57.3566 0.259083V8.3994L52.7448 0.259083H49.9875V13.3959H52.7448V5.29298L57.3566 13.3959H60.114V0.259083H57.3566ZM68.6925 0.109375C65.3062 0.109375 62.9358 2.87896 62.9358 6.80877C62.9358 10.7386 65.3223 13.4894 68.7086 13.4894C71.6917 13.4894 73.5783 11.2251 74.1588 8.9608V5.98538H68.1603V8.34326H71.6595C71.2402 9.82162 70.2888 10.6637 68.9182 10.6637C66.9348 10.6637 65.7416 9.24151 65.7416 6.80877C65.7416 4.52573 66.9187 3.06609 68.6925 3.06609C69.7245 3.06609 70.4985 3.53392 70.9177 4.41345H73.9653C73.3687 1.71873 71.4015 0.109375 68.6925 0.109375ZM84.0273 13.3959H86.7847V0.259083H84.0273V5.40526H79.7381V0.259083H76.9807V13.3959H79.7381V7.98771H84.0273V13.3959ZM90.0581 13.3959H92.8154V0.259083H90.0581V13.3959ZM103.039 0.259083H96.1049V13.3959H103.039V10.8321H98.8623V7.95028H102.555V5.48012H98.8623V2.82282H103.039V0.259083ZM106.119 13.3959H108.876V5.49883L111.424 13.3959H113.649L116.181 5.51754V13.3959H118.938V0.259083H115.697L112.552 9.35379L109.376 0.259083H106.119V13.3959ZM125.13 11.824C125.13 10.8321 124.469 10.0649 123.501 10.0649C122.518 10.0649 121.857 10.8321 121.857 11.824C121.857 12.7783 122.518 13.5456 123.501 13.5456C124.469 13.5456 125.13 12.7783 125.13 11.824ZM132.934 10.1772L130.129 0.259083H127.194L131.209 13.3959H134.66L138.675 0.259083H135.756L132.934 10.1772ZM148.479 0.259083V8.3994L143.867 0.259083H141.11V13.3959H143.867V5.29298L148.479 13.3959H151.236V0.259083H148.479Z" fill="white"/>
<path d="M27.4596 27.8408V25.4132H27.0996V25.361L27.8757 24.5059V28.2262C27.8757 28.6526 27.9113 28.9485 27.9826 29.1138C28.0445 29.2716 28.1466 29.4038 28.275 29.4924C27.9676 29.4664 27.7539 29.3358 27.6339 29.1008C27.5177 28.8702 27.4596 28.4502 27.4596 27.8408ZM28.6687 23.5074V24.9625H29.6304C29.7658 24.9699 29.9012 24.9477 30.0297 24.8973C30.1568 24.8243 30.2712 24.7246 30.3671 24.6032H30.5077C30.279 24.9735 30.1159 25.2021 30.0185 25.2892C29.891 25.3827 29.741 25.4261 29.5907 25.4132H28.6687V27.9064C28.6599 28.1624 28.6769 28.4186 28.7193 28.67C28.7546 28.8137 28.8322 28.9384 28.9386 29.0225C29.0851 29.1277 29.2559 29.1779 29.4279 29.1661C29.8441 29.1661 30.204 28.9399 30.5077 28.4873L30.6258 28.5657C30.3184 29.2575 29.8722 29.6034 29.2873 29.6034C29.0653 29.6126 28.8459 29.5443 28.6577 29.4073C28.4968 29.2937 28.3754 29.1182 28.3146 28.9113C28.2496 28.624 28.2212 28.3271 28.2301 28.0302V24.1014C28.3855 23.9128 28.5319 23.7145 28.6687 23.5074ZM35.6199 29.525V26.203C35.6199 25.8157 35.5843 25.5395 35.513 25.3742C35.4195 25.1848 35.2754 25.0359 35.1024 24.95C35.4436 24.9805 35.6854 25.0936 35.8279 25.2894C35.9629 25.4765 36.0304 25.8028 36.0304 26.2684V28.2786C36.0304 28.9835 36.2647 29.386 36.7334 29.4861V29.6034C36.3135 29.5598 35.9423 29.5337 35.6199 29.525ZM32.448 29.525V21.6342C32.5904 21.6342 32.7554 21.6234 32.9428 21.6016C32.8941 22.5633 32.8697 23.1811 32.8697 23.4551V25.1195C33.2289 24.9023 33.629 24.7924 34.0339 24.7996C34.3297 24.7982 34.6192 24.8981 34.8662 25.0869C35.1174 25.2739 35.243 25.6438 35.243 26.1964V29.525H34.7763C34.81 28.8506 34.8269 28.3002 34.8269 27.8738V26.5684C34.8349 26.3032 34.8141 26.0379 34.765 25.7787C34.7179 25.6079 34.6177 25.4636 34.4838 25.3741C34.3182 25.2639 34.1294 25.2096 33.9386 25.2174C33.5685 25.216 33.203 25.312 32.8694 25.4981V27.9979C32.8694 28.4895 32.9051 28.8267 32.9763 29.0095C33.0513 29.2056 33.2182 29.3644 33.4769 29.486V29.6034C32.9109 29.5512 32.5679 29.525 32.448 29.525ZM32.0825 21.6342V29.525C31.8425 29.5337 31.4825 29.5598 31.0026 29.6034V29.4859C31.2763 29.3946 31.4544 29.2357 31.5369 29.0095C31.6194 28.7919 31.6606 28.385 31.6606 27.7886V23.1158C31.6606 22.6372 31.6175 22.2934 31.5312 22.0846C31.4412 21.8886 31.2669 21.7515 31.0082 21.6734V21.5625C31.5031 21.6014 31.8612 21.6253 32.0825 21.6342ZM38.1001 29.0029L38.0776 29.0421C37.5114 28.6635 37.2283 28.0694 37.2283 27.2598C37.228 26.9489 37.2795 26.6408 37.3802 26.3527C37.4815 26.0612 37.6933 25.7675 38.0157 25.4715L38.0438 25.5042C37.8076 25.9784 37.6895 26.5484 37.6895 27.2141C37.6895 27.9063 37.8264 28.5026 38.1001 29.0029ZM42.0315 26.9078H41.5309C41.5121 26.1159 41.334 25.5351 40.9966 25.1652C41.6001 25.4567 41.9449 26.0376 42.0312 26.9078H42.0315ZM38.5953 26.4249H40.5974C40.582 26.1223 40.4901 25.8317 40.3331 25.5894C40.1681 25.3459 39.9319 25.2241 39.6244 25.2241C39.4955 25.221 39.3675 25.2489 39.2484 25.3062C39.1293 25.3635 39.0218 25.4489 38.9327 25.5569C38.7391 25.7938 38.6201 26.0997 38.595 26.4249H38.5953ZM41.1599 26.9078H38.55C38.5425 27.1254 38.5387 27.2581 38.5387 27.306C38.5387 27.8716 38.6718 28.3263 38.938 28.6701C39.0691 28.8376 39.2302 28.97 39.4098 29.0579C39.5895 29.1458 39.7836 29.1872 39.9785 29.1792C40.3189 29.1834 40.6523 29.0673 40.9345 28.8464C41.2222 28.6209 41.4547 28.3129 41.6094 27.9522H41.8512C41.5063 29.0965 40.8502 29.6686 39.8829 29.6686C39.3017 29.6686 38.8538 29.4337 38.5391 28.9637C38.2242 28.4982 38.0667 27.9086 38.0667 27.195C38.0667 26.5075 38.213 25.9353 38.5054 25.4784C38.6308 25.2657 38.7997 25.0923 38.997 24.9739C39.1943 24.8554 39.4138 24.7956 39.6359 24.7996C39.8208 24.7993 40.0039 24.8425 40.174 24.9267C40.3442 25.0108 40.4978 25.1341 40.6257 25.2891C40.9066 25.6112 41.0845 26.1508 41.1594 26.9078H41.1599ZM51.9523 26.216L50.8721 28.7157L49.2017 24.8715C49.5017 24.8715 49.9047 24.8475 50.4109 24.7996V24.9106C50.1147 24.9889 49.9666 25.1477 49.9666 25.3871C49.9666 25.5263 50.0229 25.7243 50.1355 25.981L50.8723 27.6257L51.4628 26.2747C51.594 25.9615 51.6596 25.6982 51.6596 25.485C51.6596 25.1543 51.5058 24.9629 51.1984 24.9107V24.7997C51.682 24.8476 51.9969 24.8716 52.1429 24.8716C52.3527 24.8716 52.6546 24.8476 53.0483 24.7997L53.0314 24.9107C52.5963 25.0543 52.257 25.4394 52.0135 26.0659C51.9949 26.1137 51.9743 26.1638 51.9518 26.216H51.9523ZM48.78 24.8715L50.664 29.2052L50.4728 29.649H50.4053L49.123 26.6727L48.2399 28.7156L46.5526 24.8715C47.0588 24.8454 47.3925 24.8215 47.5537 24.7996V24.9106C47.3587 24.9889 47.2612 25.1151 47.2612 25.2891C47.2612 25.402 47.3175 25.5869 47.4301 25.8439L48.24 27.6715L48.8927 26.1639L48.7127 25.7527C48.514 25.3131 48.2478 25.0324 47.9141 24.9108V24.7998C48.1914 24.8346 48.48 24.8585 48.78 24.8715ZM46.1423 24.8715L48.0263 29.1987L47.8349 29.6491H47.7787L46.1984 26.0401C46.0792 25.7513 45.9259 25.4833 45.7428 25.2438C45.5937 25.0723 45.4039 24.9564 45.1977 24.911V24.8L46.1423 24.8715ZM54.2465 27.1428C54.0187 27.4598 53.8934 27.8592 53.8923 28.272C53.8865 28.4951 53.9228 28.717 53.9986 28.9221C54.0744 29.1273 54.1878 29.3108 54.331 29.4598C54.0999 29.3973 53.8891 29.2591 53.7236 29.0617C53.6323 28.9614 53.5605 28.8397 53.513 28.7046C53.4654 28.5695 53.4433 28.4243 53.4481 28.2785C53.448 27.7172 53.7142 27.3386 54.2465 27.1428ZM57.8626 29.6034L56.7828 29.525V26.1377C56.7828 25.7939 56.7546 25.5414 56.6983 25.3802C56.6262 25.2039 56.5107 25.0563 56.3665 24.956C56.6927 25.0299 56.9139 25.1648 57.0302 25.3606C57.1464 25.5608 57.2046 25.9197 57.2046 26.4375V28.4543C57.2046 28.798 57.2458 29.0438 57.3283 29.1918C57.407 29.3397 57.5851 29.4377 57.8625 29.4858L57.8626 29.6034ZM55.9954 28.9833V27.2794C55.891 27.2636 55.7859 27.2549 55.6806 27.2533C55.3844 27.2533 55.1538 27.3578 54.9888 27.5666C54.829 27.7646 54.7405 28.0261 54.7414 28.2974C54.737 28.5317 54.8116 28.7587 54.9494 28.9301C55.0132 29.0168 55.0926 29.0863 55.1819 29.1337C55.2713 29.181 55.3686 29.2051 55.4668 29.2042C55.6591 29.1994 55.8447 29.1219 55.9954 28.9833ZM55.9954 26.9209V26.229C55.9954 25.9157 55.9411 25.6699 55.8323 25.4915C55.7197 25.3174 55.5021 25.2304 55.1796 25.2304C54.9393 25.2263 54.701 25.2832 54.4815 25.397C54.262 25.5108 54.0665 25.6788 53.9087 25.8893L53.7681 25.7326C53.9266 25.4377 54.1551 25.202 54.4261 25.0539C54.7164 24.8869 55.0359 24.8 55.3599 24.7997C56.0612 24.7997 56.4119 25.2435 56.4119 26.1312V29.525C56.2652 29.5289 56.1196 29.5553 55.9788 29.6034L55.9954 29.2577C55.9114 29.3672 55.8083 29.4546 55.6929 29.5142C55.5775 29.5738 55.4525 29.6042 55.3262 29.6034C55.1842 29.6056 55.0435 29.5704 54.9149 29.5003C54.7863 29.4302 54.6731 29.3271 54.5839 29.1987C54.388 28.9488 54.2797 28.6229 54.2802 28.285C54.2781 28.0966 54.3101 27.9098 54.374 27.7366C54.4379 27.5634 54.5324 27.4077 54.6513 27.2794C54.8913 27.001 55.2118 26.8618 55.6129 26.8618C55.7421 26.8621 55.8707 26.882 55.9954 26.9209ZM61.6531 32.0117V32.1292L59.8871 32.5469L61.2314 29.525L59.3248 26.105C58.9237 25.3914 58.5094 24.9934 58.0819 24.911V24.8C58.3181 24.8348 58.6593 24.8718 59.1055 24.911L61.6925 29.525L61.102 30.85C60.9783 31.1328 60.9165 31.3612 60.9165 31.5352C60.9154 31.61 60.9329 31.6836 60.9668 31.7472C61.0006 31.8108 61.0495 31.8618 61.1077 31.8942C61.2249 31.9766 61.3587 32.0216 61.4957 32.0247C61.5107 32.0248 61.5631 32.0204 61.6531 32.0117ZM63.1266 26.3139L61.9006 29.0486L59.5663 24.9106C60.1437 24.8758 60.5655 24.8388 60.8317 24.7996V24.9106C60.558 25.002 60.4211 25.1564 60.4211 25.374C60.4211 25.5176 60.5017 25.7351 60.6629 26.0266L61.8439 28.1412L62.6369 26.366C62.8131 25.9569 62.9012 25.6676 62.9012 25.4979C62.9012 25.2195 62.7175 25.0237 62.35 24.9105V24.7996C62.335 24.7996 62.4438 24.8104 62.6762 24.8322C62.9799 24.8583 63.2199 24.8713 63.3961 24.8713C63.6895 24.8677 63.9825 24.8437 64.2734 24.7995V24.9104C63.8313 25.1151 63.449 25.5829 63.1266 26.3139ZM70.7076 32.0117V32.1292L68.9416 32.5469L70.2859 29.525L68.3794 26.105C67.9782 25.3914 67.5639 24.9934 67.1365 24.911V24.8C67.3727 24.8348 67.7138 24.8718 68.16 24.911L70.7471 29.525L70.1565 30.85C70.0328 31.1328 69.9709 31.3612 69.9709 31.5352C69.9699 31.61 69.9874 31.6836 70.0212 31.7472C70.0551 31.8108 70.104 31.8618 70.1621 31.8942C70.2793 31.9766 70.4132 32.0216 70.5502 32.0247C70.5652 32.0248 70.6177 32.0204 70.7077 32.0117H70.7076ZM72.1811 26.3139L70.9551 29.0486L68.6208 24.9106C69.1982 24.8758 69.62 24.8388 69.8862 24.7996V24.9106C69.6125 25.002 69.4756 25.1564 69.4756 25.374C69.4756 25.5176 69.5562 25.7351 69.7174 26.0266L70.8984 28.1412L71.6922 26.3661C71.8684 25.9571 71.9565 25.6678 71.9565 25.4981C71.9565 25.2197 71.7728 25.0239 71.4054 24.9107V24.7997C71.3904 24.7997 71.4991 24.8106 71.7316 24.8324C72.0353 24.8584 72.2752 24.8715 72.4514 24.8715C72.7448 24.8678 73.0378 24.8438 73.3288 24.7996V24.9106C72.8861 25.1151 72.5036 25.5829 72.1811 26.3139H72.1811ZM74.6781 25.1979C74.3294 25.6461 74.1551 26.3074 74.1551 27.182C74.1551 28.0566 74.3294 28.7267 74.6781 29.1923C74.0295 28.7659 73.7052 28.0871 73.7052 27.1559C73.7052 26.2378 74.0296 25.5851 74.6782 25.1978L74.6781 25.1979ZM77.7714 29.1204C78.1163 28.6722 78.2887 28.05 78.2887 27.2538C78.2911 26.8448 78.2496 26.437 78.1653 26.0398C78.079 25.6525 77.9478 25.3697 77.7716 25.1914C78.4277 25.6132 78.7557 26.2615 78.7557 27.1363C78.7556 27.9761 78.4275 28.6374 77.7714 29.1204ZM75.01 27.1428C75.01 27.9389 75.1149 28.4784 75.3248 28.7615C75.5347 29.0445 75.8328 29.1859 76.2191 29.1857C76.3854 29.1925 76.551 29.1561 76.7037 29.0794C76.8564 29.0026 76.9925 28.8873 77.1021 28.7419C77.3233 28.4461 77.4339 27.9065 77.4339 27.1233C77.4339 25.8049 77.029 25.1458 76.2191 25.1458C75.413 25.1456 75.01 25.8113 75.01 27.1428ZM74.5376 27.2473C74.5376 26.4032 74.6857 25.7744 74.9819 25.3611C75.2818 24.9434 75.6942 24.7345 76.2191 24.7345C76.4426 24.7264 76.6651 24.7714 76.8731 24.8668C77.081 24.9622 77.2699 25.1059 77.4281 25.2892C77.7468 25.6591 77.9062 26.2704 77.9062 27.1232C77.9062 28.0587 77.7356 28.7114 77.3944 29.0813C77.0761 29.443 76.6477 29.6447 76.2022 29.6427C75.9816 29.6464 75.7629 29.596 75.5603 29.4948C75.3578 29.3936 75.1759 29.2438 75.0267 29.0553C74.7006 28.6679 74.5376 28.0652 74.5376 27.2472V27.2473ZM83.9071 29.525V24.8715C84.3607 24.8628 84.7356 24.8389 85.0318 24.7996V24.9106C84.7656 24.9846 84.5819 25.1216 84.4807 25.3218C84.3794 25.5219 84.3288 25.8395 84.3288 26.2746V28.0825C84.3288 28.5438 84.3794 28.8788 84.4807 29.0876C84.5819 29.2921 84.7656 29.4248 85.0318 29.4858V29.6034C84.9044 29.586 84.715 29.5686 84.4636 29.5512C84.2123 29.5338 84.0267 29.525 83.9071 29.525ZM83.5303 24.8715V29.525C83.3871 29.5251 83.244 29.5382 83.1026 29.5642C83.1063 29.5163 83.1091 29.4532 83.111 29.3749C83.1129 29.2966 83.1139 29.2249 83.1141 29.1597C82.6342 29.4555 82.1955 29.6034 81.7981 29.6034C81.5644 29.617 81.3333 29.5413 81.1402 29.388C80.9802 29.263 80.8644 29.0753 80.814 28.8593C80.7546 28.5642 80.7281 28.2615 80.7353 27.9586V24.8715C80.8479 24.8715 81.0016 24.8606 81.1965 24.8389C81.1781 24.9705 81.1687 25.1036 81.1684 25.237C81.1646 25.3545 81.159 25.4655 81.1515 25.5698V28.1022C81.1515 28.4982 81.204 28.7766 81.3089 28.9376C81.4177 29.1073 81.6314 29.1921 81.9501 29.1921C82.2688 29.1921 82.6568 29.0464 83.1141 28.7549V26.203C83.1141 25.794 83.0672 25.4937 82.9735 25.3023C82.8798 25.1109 82.7054 24.9804 82.4504 24.9107V24.7997C82.6416 24.8258 82.8141 24.8421 82.9678 24.8487C83.1215 24.8552 83.309 24.8628 83.5303 24.8715ZM79.2392 24.9106V24.7996C79.5766 24.8388 79.9516 24.8627 80.3639 24.8715V28.0043C80.3639 28.4959 80.3939 28.8266 80.4539 28.9964C80.5159 29.1719 80.6122 29.3283 80.7351 29.4532C80.5298 29.4326 80.3361 29.3339 80.184 29.1726C80.0228 29.0116 79.9422 28.6592 79.9422 28.1153V26.3204C79.9422 25.8679 79.8953 25.5416 79.8016 25.3414C79.7041 25.1456 79.5166 25.0021 79.2392 24.9107V24.9106ZM91.1619 29.2771L91.19 29.4141C91.0231 29.5713 90.8145 29.6566 90.5995 29.6556C90.2921 29.6556 90.0653 29.5185 89.9191 29.2444C89.7729 28.9747 89.6998 28.5157 89.6998 27.8676V21.6342C89.9248 21.6256 90.0841 21.6147 90.1778 21.6016C90.1366 22.3456 90.116 22.8808 90.116 23.2072V27.5801C90.1098 27.9459 90.1211 28.3118 90.1497 28.6762C90.1656 28.8613 90.2397 29.0332 90.3577 29.1592C90.421 29.2271 90.4955 29.2796 90.5767 29.3133C90.6578 29.347 90.7441 29.3612 90.8301 29.3552C90.944 29.3541 91.0567 29.3275 91.162 29.2771H91.1619ZM89.3286 21.6342V27.8607C89.3286 28.4525 89.3567 28.8397 89.4131 29.0225C89.476 29.2235 89.5673 29.4109 89.6831 29.5773C89.499 29.5233 89.3327 29.4075 89.205 29.2444C89.0838 29.079 89.0041 28.878 88.9747 28.6635C88.9278 28.2788 88.909 27.8902 88.9185 27.5018V23.1289C88.9259 22.8605 88.9127 22.5918 88.8791 22.3261C88.8479 22.167 88.7776 22.0219 88.6766 21.9084C88.5642 21.7823 88.4207 21.7001 88.266 21.6734V21.5625C88.3823 21.5625 88.5604 21.5755 88.8003 21.6016C88.92 21.6145 89.0961 21.6253 89.3286 21.6342ZM92.5005 29.0029L92.478 29.042C91.9119 28.6634 91.6288 28.0694 91.6288 27.2597C91.6284 26.9488 91.6799 26.6408 91.7806 26.3527C91.8818 26.0612 92.0937 25.7675 92.4161 25.4715L92.4442 25.5042C92.208 25.9784 92.0899 26.5484 92.0899 27.2141C92.0899 27.9063 92.2268 28.5026 92.5005 29.0029L92.5005 29.0029ZM96.432 26.9078H95.9314C95.9123 26.1159 95.7341 25.5351 95.3968 25.1652C96.0003 25.4567 96.3452 26.0376 96.4316 26.9078L96.432 26.9078ZM92.9957 26.4248H94.9978C94.9825 26.1222 94.8905 25.8316 94.7335 25.5894C94.5685 25.3458 94.3323 25.224 94.0249 25.224C93.896 25.2209 93.768 25.2488 93.6489 25.3061C93.5298 25.3634 93.4223 25.4488 93.3331 25.5568C93.1395 25.7938 93.0205 26.0996 92.9954 26.4249L92.9957 26.4248ZM95.5604 26.9078H92.9504C92.9429 27.1253 92.9392 27.258 92.9392 27.3059C92.9392 27.8715 93.0723 28.3262 93.3385 28.67C93.4696 28.8376 93.6306 28.9699 93.8103 29.0578C93.99 29.1457 94.1841 29.1871 94.3789 29.1791C94.7193 29.1833 95.0528 29.0672 95.335 28.8463C95.6227 28.6208 95.8551 28.3128 96.0099 27.9521H96.2517C95.9067 29.0965 95.2506 29.6686 94.2833 29.6686C93.7021 29.6686 93.2542 29.4337 92.9395 28.9637C92.6246 28.4982 92.4671 27.9086 92.4671 27.195C92.4671 26.5075 92.6133 25.9353 92.9058 25.4784C93.0312 25.2657 93.2001 25.0923 93.3974 24.9739C93.5947 24.8554 93.8142 24.7956 94.0362 24.7996C94.2212 24.7993 94.4043 24.8425 94.5744 24.9267C94.7445 25.0108 94.8982 25.1341 95.0261 25.2891C95.307 25.6112 95.4849 26.1508 95.5599 26.9078L95.5604 26.9078ZM97.7931 27.1427C97.5651 27.4597 97.4397 27.8591 97.4385 28.272C97.4327 28.4951 97.469 28.717 97.5448 28.9221C97.6205 29.1273 97.734 29.3108 97.8771 29.4598C97.6459 29.3974 97.435 29.2592 97.2695 29.0617C97.1782 28.9614 97.1064 28.8397 97.0588 28.7046C97.0113 28.5695 96.9892 28.4243 96.9939 28.2785C96.994 27.7172 97.2602 27.3386 97.7926 27.1428L97.7931 27.1427ZM101.409 29.6034L100.329 29.525V26.1377C100.329 25.7939 100.301 25.5414 100.245 25.3802C100.172 25.2039 100.057 25.0563 99.9128 24.956C100.239 25.0299 100.46 25.1648 100.576 25.3606C100.693 25.5608 100.751 25.9197 100.751 26.4375V28.4543C100.751 28.798 100.792 29.0438 100.875 29.1918C100.953 29.3397 101.131 29.4377 101.409 29.4858V29.6034ZM99.5417 28.9833V27.2794C99.4373 27.2636 99.3322 27.2549 99.2269 27.2533C98.9307 27.2533 98.7001 27.3578 98.5351 27.5666C98.3753 27.7646 98.2868 28.0261 98.2876 28.2974C98.2832 28.5317 98.3579 28.7587 98.4957 28.9301C98.5595 29.0168 98.6388 29.0863 98.7282 29.1337C98.8176 29.181 98.9148 29.2051 99.0131 29.2042C99.2053 29.1994 99.391 29.1219 99.5417 28.9833ZM99.5417 26.9209V26.229C99.5417 25.9157 99.4873 25.6699 99.3786 25.4915C99.266 25.3174 99.0484 25.2304 98.7259 25.2304C98.4855 25.2264 98.2472 25.2833 98.0276 25.3972C97.8081 25.5111 97.6127 25.6792 97.4549 25.8898L97.3143 25.7332C97.4728 25.4382 97.7013 25.2026 97.9723 25.0544C98.2625 24.8874 98.5819 24.8003 98.9058 24.7999C99.6071 24.7999 99.9578 25.2437 99.9578 26.1313V29.525C99.8111 29.5289 99.6655 29.5553 99.5247 29.6034L99.5417 29.2577C99.4577 29.3672 99.3546 29.4546 99.2392 29.5142C99.1238 29.5738 98.9987 29.6042 98.8724 29.6034C98.7304 29.6056 98.5897 29.5704 98.4611 29.5003C98.3325 29.4302 98.2193 29.3271 98.1301 29.1987C97.9342 28.9488 97.8259 28.6229 97.8264 28.285C97.8244 28.0966 97.8563 27.9098 97.9203 27.7366C97.9842 27.5634 98.0786 27.4077 98.1976 27.2794C98.4375 27.001 98.7581 26.8618 99.1592 26.8618C99.2884 26.8621 99.417 26.882 99.5417 26.9209ZM102.955 24.8713V29.525C102.404 29.5337 102.031 29.5598 101.836 29.6034V29.4859C102.14 29.3597 102.335 29.2053 102.421 29.0225C102.511 28.8311 102.556 28.4895 102.556 27.9978V26.3136C102.556 25.848 102.504 25.5151 102.399 25.315C102.29 25.1105 102.102 24.9756 101.836 24.9103V24.7994C101.952 24.8257 102.326 24.8497 102.955 24.8715V24.8713ZM103.36 29.525V24.8715C103.512 24.8628 103.662 24.8388 103.81 24.7996C103.781 25.0899 103.766 25.3819 103.765 25.6742C104.159 25.0912 104.44 24.7996 104.609 24.7996C104.706 24.7996 104.886 24.8627 105.149 24.9889C105.377 25.1018 105.533 25.1582 105.615 25.1582C105.724 25.1582 105.846 25.0691 105.981 24.8909C105.989 24.8819 105.997 24.872 106.004 24.8615C106.019 24.8397 106.036 24.8188 106.054 24.7991L106.184 24.8709C106.004 25.3409 105.771 25.5758 105.486 25.5758C105.389 25.5758 105.199 25.504 104.918 25.3604C104.836 25.3105 104.746 25.2795 104.654 25.2691C104.474 25.2691 104.282 25.404 104.08 25.6737C104.16 25.6425 104.243 25.6249 104.327 25.6215C104.432 25.6215 104.626 25.6955 104.907 25.8434C105.044 25.9228 105.193 25.9736 105.345 25.9936C105.411 25.9916 105.475 25.9691 105.531 25.9283C105.347 26.2024 105.169 26.3395 104.997 26.3395C104.86 26.3188 104.728 26.2678 104.609 26.1893C104.35 26.0414 104.17 25.9675 104.069 25.9675C104.01 25.9728 103.952 25.9923 103.9 26.0249C103.847 26.0575 103.802 26.1024 103.765 26.1567V28.1409C103.765 28.5847 103.827 28.9089 103.951 29.1134C104.074 29.3178 104.273 29.4418 104.547 29.4854V29.6034C104.153 29.554 103.757 29.5279 103.36 29.525ZM111.116 29.525V26.34C111.116 25.9004 111.089 25.5828 111.037 25.3872C110.988 25.2089 110.868 25.0501 110.677 24.9107C110.907 24.9199 111.126 25.0294 111.29 25.2174C111.444 25.4045 111.52 25.8287 111.52 26.4901V28.0108C111.512 28.2779 111.531 28.5452 111.577 28.8071C111.612 28.9791 111.695 29.1328 111.813 29.2443C111.933 29.3704 112.081 29.4542 112.24 29.4858V29.6034C112.116 29.5903 111.911 29.574 111.624 29.5545C111.338 29.5349 111.168 29.5251 111.116 29.525H111.116ZM107.539 24.8715V29.525C107.153 29.5468 106.817 29.5729 106.532 29.6034V29.4859C106.7 29.4211 106.848 29.2981 106.954 29.1335C107.067 28.9638 107.123 28.5569 107.123 27.9127V26.3074C107.123 25.8723 107.08 25.5503 106.994 25.3414C106.904 25.1454 106.722 25.0018 106.448 24.9107V24.7997C106.624 24.8258 106.988 24.8497 107.539 24.8715H107.539ZM107.938 29.525V24.8715C108.137 24.8628 108.287 24.8519 108.388 24.8389L108.349 25.1848C108.817 24.9107 109.252 24.7736 109.653 24.7736C109.889 24.7658 110.121 24.8433 110.317 24.9955C110.477 25.1171 110.597 25.2993 110.655 25.5111C110.709 25.8246 110.732 26.1444 110.722 26.464V29.525C110.569 29.5337 110.419 29.5468 110.272 29.5642C110.299 29.0203 110.312 28.6396 110.312 28.422V26.34C110.312 25.9136 110.259 25.6134 110.154 25.4394C110.046 25.2612 109.851 25.172 109.57 25.172C109.27 25.172 108.863 25.3156 108.349 25.6028V28.2592C108.349 28.9554 108.57 29.3644 109.013 29.4863V29.6034C108.563 29.5512 108.204 29.525 107.938 29.525Z" fill="white"/>
</svg>
