<svg width="40" height="47" viewBox="0 0 40 47" fill="none" xmlns="http://www.w3.org/2000/svg">
<path d="M37.7785 0.984375H1.53571C0.687562 0.984375 0 1.78231 0 2.7666V44.8271C0 45.8114 0.687562 46.6094 1.53571 46.6094H37.7785C38.6267 46.6094 39.3143 45.8114 39.3143 44.8271V2.7666C39.3143 1.78231 38.6267 0.984375 37.7785 0.984375Z" fill="#145DA0"/>
<path d="M20.873 15.1531V14.1729C20.873 14.1256 20.8892 14.0803 20.918 14.0468C20.9468 14.0134 20.9859 13.9946 21.0266 13.9946H30.2538C30.2945 13.9946 30.3336 14.0134 30.3624 14.0468C30.3912 14.0803 30.4074 14.1256 30.4074 14.1729V15.1531C30.4074 15.2003 30.3912 15.2457 30.3624 15.2791C30.3336 15.3125 30.2945 15.3313 30.2538 15.3313H21.0266C20.9859 15.3313 20.9468 15.3125 20.918 15.2791C20.8892 15.2457 20.873 15.2003 20.873 15.1531ZM32.5574 33.5991H21.0266C20.9859 33.5991 20.9468 33.6179 20.918 33.6513C20.8892 33.6847 20.873 33.7301 20.873 33.7773V34.7576C20.873 34.8048 20.8892 34.8502 20.918 34.8836C20.9468 34.917 20.9859 34.9358 21.0266 34.9358H32.5574C32.5981 34.9358 32.6372 34.917 32.666 34.8836C32.6948 34.8502 32.7109 34.8048 32.7109 34.7576V33.7773C32.7109 33.7301 32.6948 33.6847 32.666 33.6513C32.6372 33.6179 32.5981 33.5991 32.5574 33.5991ZM21.0266 32.2625H30.2538C30.2945 32.2625 30.3336 32.2437 30.3624 32.2103C30.3912 32.1768 30.4074 32.1315 30.4074 32.0842V31.104C30.4074 31.0567 30.3912 31.0114 30.3624 30.978C30.3336 30.9446 30.2945 30.9258 30.2538 30.9258H21.0266C20.9859 30.9258 20.9468 30.9446 20.918 30.978C20.8892 31.0114 20.873 31.0567 20.873 31.104V32.0842C20.873 32.1315 20.8892 32.1768 20.918 32.2103C20.9468 32.2437 20.9859 32.2625 21.0266 32.2625ZM32.5574 28.2524H21.0266C20.9859 28.2524 20.9468 28.2712 20.918 28.3046C20.8892 28.3381 20.873 28.3834 20.873 28.4307V29.4109C20.873 29.4582 20.8892 29.5035 20.918 29.5369C20.9468 29.5703 20.9859 29.5891 21.0266 29.5891H32.5574C32.5981 29.5891 32.6372 29.5703 32.666 29.5369C32.6948 29.5035 32.7109 29.4582 32.7109 29.4109V28.4307C32.7109 28.3834 32.6948 28.3381 32.666 28.3046C32.6372 28.2712 32.5981 28.2524 32.5574 28.2524ZM32.5574 16.668H21.0266C20.9859 16.668 20.9468 16.6867 20.918 16.7202C20.8892 16.7536 20.873 16.7989 20.873 16.8462V17.8264C20.873 17.8737 20.8892 17.919 20.918 17.9524C20.9468 17.9859 20.9859 18.0046 21.0266 18.0046H32.5574C32.5981 18.0046 32.6372 17.9859 32.666 17.9524C32.6948 17.919 32.7109 17.8737 32.7109 17.8264V16.8462C32.7109 16.7989 32.6948 16.7536 32.666 16.7202C32.6372 16.6867 32.5981 16.668 32.5574 16.668ZM32.5574 11.3213H21.0266C20.9859 11.3213 20.9468 11.3401 20.918 11.3735C20.8892 11.4069 20.873 11.4522 20.873 11.4995V12.4797C20.873 12.527 20.8892 12.5723 20.918 12.6058C20.9468 12.6392 20.9859 12.658 21.0266 12.658H32.5574C32.5981 12.658 32.6372 12.6392 32.666 12.6058C32.6948 12.5723 32.7109 12.527 32.7109 12.4797V11.4995C32.7109 11.4522 32.6948 11.4069 32.666 11.3735C32.6372 11.3401 32.5981 11.3213 32.5574 11.3213Z" fill="white"/>
<path d="M11.5943 25.8019C10.4933 25.8019 9.41695 26.1808 8.50147 26.8907C7.58599 27.6006 6.87246 28.6096 6.45111 29.7901C6.02976 30.9706 5.91951 32.2696 6.13431 33.5228C6.34912 34.7761 6.87932 35.9272 7.65787 36.8308C8.43642 37.7343 9.42836 38.3496 10.5082 38.5989C11.5881 38.8482 12.7075 38.7202 13.7247 38.2312C14.7419 37.7423 15.6114 36.9142 16.2231 35.8518C16.8348 34.7893 17.1613 33.5402 17.1613 32.2625C17.1596 30.5496 16.5725 28.9074 15.5289 27.6963C14.4853 26.4851 13.0702 25.8038 11.5943 25.8019ZM11.5943 37.3864C10.7211 37.3864 9.86744 37.0858 9.14137 36.5228C8.41529 35.9598 7.84939 35.1596 7.51522 34.2233C7.18104 33.287 7.09361 32.2568 7.26397 31.2628C7.43433 30.2689 7.85483 29.3559 8.47231 28.6393C9.08978 27.9227 9.87649 27.4347 10.7329 27.237C11.5894 27.0393 12.4772 27.1408 13.2839 27.5286C14.0907 27.9164 14.7802 28.5731 15.2654 29.4158C15.7505 30.2584 16.0095 31.249 16.0095 32.2625C16.0082 33.6209 15.5426 34.9234 14.7149 35.884C13.8872 36.8446 12.7649 37.3849 11.5943 37.3864ZM11.5943 21.7919C12.6953 21.7919 13.7717 21.413 14.6871 20.7031C15.6026 19.9932 16.3162 18.9842 16.7375 17.8037C17.1589 16.6231 17.2691 15.3241 17.0543 14.0709C16.8395 12.8177 16.3093 11.6665 15.5307 10.763C14.7522 9.85946 13.7602 9.24415 12.6804 8.99487C11.6005 8.74559 10.4812 8.87353 9.46392 9.36251C8.44669 9.8515 7.57725 10.6796 6.96555 11.742C6.35384 12.8044 6.02735 14.0535 6.02735 15.3313C6.02901 17.0442 6.61607 18.6863 7.65971 19.8975C8.70336 21.1087 10.1184 21.7899 11.5943 21.7919ZM11.5943 10.2074C12.4675 10.2074 13.3212 10.5079 14.0472 11.0709C14.7733 11.634 15.3392 12.4342 15.6734 13.3705C16.0076 14.3067 16.095 15.337 15.9246 16.3309C15.7543 17.3249 15.3338 18.2379 14.7163 18.9544C14.0988 19.671 13.3121 20.159 12.4557 20.3567C11.5992 20.5545 10.7115 20.453 9.90469 20.0652C9.09792 19.6774 8.40837 19.0206 7.92322 18.178C7.43808 17.3354 7.17913 16.3447 7.17913 15.3313C7.18041 13.9728 7.64599 12.6704 8.47372 11.7098C9.30145 10.7492 10.4237 10.2089 11.5943 10.2074Z" fill="white"/>
<path d="M37.4766 8.15785L35.3047 10.6784C35.1607 10.8454 34.9654 10.9393 34.7618 10.9393C34.5582 10.9393 34.3629 10.8454 34.2189 10.6784L30.9612 6.89737C30.8172 6.73025 30.7363 6.50362 30.7363 6.2673C30.7363 6.03099 30.8172 5.80435 30.9612 5.63724L33.1328 3.11682C33.2768 2.94973 33.4721 2.85587 33.6757 2.85587C33.8794 2.85587 34.0747 2.94973 34.2187 3.11682L37.4766 6.89737C37.5479 6.98012 37.6045 7.07837 37.6431 7.18651C37.6817 7.29465 37.7016 7.41055 37.7016 7.52761C37.7016 7.64466 37.6817 7.76056 37.6431 7.8687C37.6045 7.97684 37.5479 8.07509 37.4766 8.15785Z" fill="#024C67"/>
<path d="M19.7485 9.36815L11.9808 18.3819C11.9493 18.4185 11.912 18.4475 11.8709 18.4672C11.8298 18.487 11.7858 18.4972 11.7413 18.4972C11.6968 18.4972 11.6527 18.487 11.6117 18.4672C11.5706 18.4475 11.5332 18.4185 11.5018 18.3819L8.11393 14.4513C8.08225 14.4145 8.06445 14.3645 8.06445 14.3125C8.06445 14.2604 8.08225 14.2104 8.11393 14.1736L9.07198 13.0615C9.1038 13.0247 9.14689 13.004 9.19181 13.004C9.23672 13.004 9.27981 13.0247 9.31163 13.0615L11.6212 15.7418C11.6369 15.76 11.6555 15.7745 11.6761 15.7844C11.6966 15.7943 11.7186 15.7994 11.7409 15.7994C11.7631 15.7994 11.7851 15.7943 11.8057 15.7844C11.8262 15.7745 11.8448 15.76 11.8605 15.7418L18.5506 7.97819C18.5824 7.94142 18.6254 7.92078 18.6703 7.92078C18.7152 7.92078 18.7582 7.94142 18.79 7.97819L19.748 9.09004C19.7798 9.12693 19.7976 9.17695 19.7976 9.22909C19.7976 9.28124 19.7798 9.33126 19.748 9.36815H19.7485ZM10.8755 31.4678C10.7329 31.6332 10.6197 31.8296 10.5425 32.0459C10.4653 32.2621 10.4256 32.4938 10.4256 32.7279V34.3319C10.4256 34.3792 10.4418 34.4245 10.4706 34.4579C10.4994 34.4913 10.5385 34.5101 10.5792 34.5101H11.9614C12.163 34.5102 12.3627 34.4641 12.549 34.3745C12.7354 34.2849 12.9046 34.1536 13.0472 33.988L14.7692 31.9896L12.5976 29.4694L10.8755 31.4678Z" fill="#7ED957"/>
<path d="M36.9349 8.7875L18.1392 30.6003C17.9249 30.8491 17.6518 31.0187 17.3545 31.0876L15.1578 31.5976C14.972 31.6407 14.7799 31.6299 14.5986 31.5662C14.4173 31.5025 14.2524 31.3877 14.1185 31.2322L13.2508 30.2253C13.1169 30.0699 13.0182 29.8785 12.9634 29.6681C12.9085 29.4578 12.8993 29.235 12.9364 29.0195L13.3755 26.4702C13.435 26.1252 13.5811 25.8084 13.7954 25.5596L32.5911 3.74683L36.9349 8.7875Z" fill="#FC9302"/>
<path d="M36.9336 8.78748L18.1379 30.6002C17.9236 30.8491 17.6505 31.0186 17.3532 31.0876L15.1565 31.5976C14.9707 31.6407 14.7787 31.6299 14.5973 31.5662C14.416 31.5025 14.2511 31.3877 14.1172 31.2322L14.6777 27.9824C14.7371 27.6373 14.8832 27.3203 15.0977 27.0714L33.8929 5.25894L36.9336 8.78748Z" fill="#FDBF43"/>
<path d="M18.1381 30.6003L16.9413 31.9892C16.7987 32.1547 16.6294 32.286 16.4431 32.3756C16.2568 32.4652 16.057 32.5113 15.8554 32.5113C15.6537 32.5113 15.454 32.4652 15.2677 32.3756C15.0813 32.286 14.912 32.1547 14.7694 31.9892L13.6836 33.2497L11.5117 30.7292L12.5979 29.4691C12.4552 29.3036 12.3421 29.1071 12.2649 28.8909C12.1877 28.6746 12.148 28.4429 12.148 28.2088C12.148 27.9748 12.1877 27.743 12.2649 27.5268C12.3421 27.3105 12.4552 27.114 12.5979 26.9486L13.7946 25.5597L18.1381 30.6003Z" fill="#024C67"/>
</svg>
