<svg width="44" height="44" viewBox="0 0 44 44" fill="none" xmlns="http://www.w3.org/2000/svg">
<path d="M42.2812 0H1.71875C0.769511 0 0 0.769511 0 1.71875V42.2812C0 43.2305 0.769511 44 1.71875 44H42.2812C43.2305 44 44 43.2305 44 42.2812V1.71875C44 0.769511 43.2305 0 42.2812 0Z" fill="#1C3988"/>
<path d="M21.7349 14.6641V13.7188C21.7349 13.6732 21.7525 13.6294 21.7839 13.5972C21.8152 13.565 21.8578 13.5469 21.9021 13.5469H31.9524C31.9968 13.5469 32.0393 13.565 32.0707 13.5972C32.1021 13.6294 32.1197 13.6732 32.1197 13.7188V14.6641C32.1197 14.7096 32.1021 14.7534 32.0707 14.7856C32.0393 14.8178 31.9968 14.8359 31.9524 14.8359H21.9021C21.8578 14.8359 21.8152 14.8178 21.7839 14.7856C21.7525 14.7534 21.7349 14.7096 21.7349 14.6641ZM34.4615 32.4531H21.9021C21.8578 32.4531 21.8152 32.4712 21.7839 32.5035C21.7525 32.5357 21.7349 32.5794 21.7349 32.625V33.5703C21.7349 33.6159 21.7525 33.6596 21.7839 33.6918C21.8152 33.7241 21.8578 33.7422 21.9021 33.7422H34.4615C34.5059 33.7422 34.5484 33.7241 34.5798 33.6918C34.6111 33.6596 34.6288 33.6159 34.6288 33.5703V32.625C34.6288 32.5794 34.6111 32.5357 34.5798 32.5035C34.5484 32.4712 34.5059 32.4531 34.4615 32.4531ZM21.9021 31.1641H31.9524C31.9968 31.1641 32.0393 31.146 32.0707 31.1137C32.1021 31.0815 32.1197 31.0378 32.1197 30.9922V30.0469C32.1197 30.0013 32.1021 29.9576 32.0707 29.9253C32.0393 29.8931 31.9968 29.875 31.9524 29.875H21.9021C21.8578 29.875 21.8152 29.8931 21.7839 29.9253C21.7525 29.9576 21.7349 30.0013 21.7349 30.0469V30.9922C21.7349 31.0378 21.7525 31.0815 21.7839 31.1137C21.8152 31.146 21.8578 31.1641 21.9021 31.1641ZM34.4615 27.2969H21.9021C21.8578 27.2969 21.8152 27.315 21.7839 27.3472C21.7525 27.3794 21.7349 27.4232 21.7349 27.4688V28.4141C21.7349 28.4596 21.7525 28.5034 21.7839 28.5356C21.8152 28.5678 21.8578 28.5859 21.9021 28.5859H34.4615C34.5059 28.5859 34.5484 28.5678 34.5798 28.5356C34.6111 28.5034 34.6288 28.4596 34.6288 28.4141V27.4688C34.6288 27.4232 34.6111 27.3794 34.5798 27.3472C34.5484 27.315 34.5059 27.2969 34.4615 27.2969ZM34.4615 16.125H21.9021C21.8578 16.125 21.8152 16.1431 21.7839 16.1753C21.7525 16.2076 21.7349 16.2513 21.7349 16.2969V17.2422C21.7349 17.2878 21.7525 17.3315 21.7839 17.3637C21.8152 17.396 21.8578 17.4141 21.9021 17.4141H34.4615C34.5059 17.4141 34.5484 17.396 34.5798 17.3637C34.6111 17.3315 34.6288 17.2878 34.6288 17.2422V16.2969C34.6288 16.2513 34.6111 16.2076 34.5798 16.1753C34.5484 16.1431 34.5059 16.125 34.4615 16.125ZM34.4615 10.9688H21.9021C21.8578 10.9688 21.8152 10.9869 21.7839 11.0191C21.7525 11.0513 21.7349 11.095 21.7349 11.1406V12.0859C21.7349 12.1315 21.7525 12.1752 21.7839 12.2075C21.8152 12.2397 21.8578 12.2578 21.9021 12.2578H34.4615C34.5059 12.2578 34.5484 12.2397 34.5798 12.2075C34.6111 12.1752 34.6288 12.1315 34.6288 12.0859V11.1406C34.6288 11.095 34.6111 11.0513 34.5798 11.0191C34.5484 10.9869 34.5059 10.9688 34.4615 10.9688Z" fill="white"/>
<path d="M11.629 24.9336C10.4297 24.9336 9.25741 25.299 8.26026 25.9836C7.26311 26.6682 6.48593 27.6413 6.02699 28.7798C5.56806 29.9182 5.44798 31.171 5.68194 32.3796C5.91591 33.5882 6.4934 34.6983 7.34141 35.5697C8.18941 36.441 9.26984 37.0344 10.4461 37.2748C11.6223 37.5152 12.8415 37.3918 13.9494 36.9203C15.0574 36.4487 16.0044 35.6501 16.6707 34.6255C17.3369 33.6009 17.6926 32.3963 17.6926 31.1641C17.6907 29.5122 17.0513 27.9286 15.9146 26.7605C14.7778 25.5925 13.2366 24.9355 11.629 24.9336V24.9336ZM11.629 36.1055C10.6779 36.1055 9.74808 35.8157 8.95724 35.2727C8.1664 34.7297 7.55001 33.958 7.18603 33.0551C6.82205 32.1521 6.72681 31.1586 6.91237 30.2C7.09793 29.2415 7.55594 28.361 8.2285 27.67C8.90105 26.9789 9.75794 26.5083 10.6908 26.3176C11.6237 26.1269 12.5906 26.2248 13.4693 26.5988C14.3481 26.9728 15.0991 27.6062 15.6276 28.4188C16.156 29.2314 16.438 30.1867 16.438 31.1641C16.4366 32.4742 15.9295 33.7302 15.028 34.6566C14.1264 35.583 12.904 36.104 11.629 36.1055V36.1055ZM11.629 21.0664C12.8283 21.0664 14.0006 20.701 14.9977 20.0164C15.9949 19.3318 16.7721 18.3587 17.231 17.2202C17.6899 16.0818 17.81 14.829 17.5761 13.6204C17.3421 12.4118 16.7646 11.3017 15.9166 10.4303C15.0686 9.55899 13.9882 8.96559 12.8119 8.72519C11.6357 8.48478 10.4165 8.60817 9.30857 9.07974C8.2006 9.55131 7.2536 10.3499 6.58733 11.3745C5.92105 12.3991 5.56543 13.6037 5.56543 14.8359C5.56725 16.4878 6.20667 18.0715 7.34341 19.2395C8.48016 20.4075 10.0214 21.0645 11.629 21.0664V21.0664ZM11.629 9.89453C12.5801 9.89453 13.5099 10.1843 14.3008 10.7273C15.0916 11.2703 15.708 12.042 16.072 12.9449C16.436 13.8479 16.5312 14.8414 16.3456 15.8C16.1601 16.7585 15.7021 17.639 15.0295 18.33C14.3569 19.0211 13.5001 19.4917 12.5672 19.6824C11.6343 19.8731 10.6674 19.7752 9.78866 19.4012C8.90992 19.0272 8.15886 18.3938 7.63043 17.5812C7.10201 16.7686 6.81996 15.8133 6.81996 14.8359C6.82136 13.5258 7.32847 12.2698 8.23004 11.3434C9.1316 10.417 10.354 9.89597 11.629 9.89453V9.89453Z" fill="white"/>
<path d="M39.8201 7.91783L37.4544 10.3486C37.2976 10.5097 37.0849 10.6002 36.8631 10.6002C36.6413 10.6002 36.4286 10.5097 36.2717 10.3486L32.7234 6.70224C32.5666 6.54108 32.4785 6.32252 32.4785 6.09462C32.4785 5.86673 32.5666 5.64816 32.7234 5.487L35.0888 3.05634C35.2457 2.89521 35.4584 2.80469 35.6802 2.80469C35.9019 2.80469 36.1147 2.89521 36.2715 3.05634L39.8201 6.70224C39.8978 6.78205 39.9594 6.8768 40.0015 6.98109C40.0435 7.08537 40.0651 7.19715 40.0651 7.31004C40.0651 7.42292 40.0435 7.5347 40.0015 7.63899C39.9594 7.74327 39.8978 7.83802 39.8201 7.91783V7.91783Z" fill="#006488"/>
<path d="M20.511 9.08528L12.0504 17.778C12.0161 17.8133 11.9755 17.8412 11.9307 17.8603C11.8859 17.8793 11.8379 17.8892 11.7895 17.8892C11.741 17.8892 11.6931 17.8793 11.6483 17.8603C11.6035 17.8412 11.5629 17.8133 11.5286 17.778L7.83856 13.9874C7.80405 13.9519 7.78467 13.9037 7.78467 13.8535C7.78467 13.8033 7.80405 13.7551 7.83856 13.7195L8.88208 12.647C8.91673 12.6116 8.96366 12.5916 9.01259 12.5916C9.06151 12.5916 9.10844 12.6116 9.1431 12.647L11.6587 15.2319C11.6758 15.2495 11.6961 15.2635 11.7185 15.273C11.7408 15.2826 11.7648 15.2875 11.789 15.2875C11.8133 15.2875 11.8372 15.2826 11.8596 15.273C11.882 15.2635 11.9023 15.2495 11.9194 15.2319L19.2063 7.74483C19.2409 7.70937 19.2878 7.68945 19.3366 7.68945C19.3855 7.68945 19.4324 7.70937 19.467 7.74483L20.5105 8.81707C20.5451 8.85265 20.5645 8.90088 20.5645 8.95117C20.5645 9.00146 20.5451 9.0497 20.5105 9.08528H20.511ZM10.8465 30.3978C10.6911 30.5573 10.5678 30.7468 10.4838 30.9553C10.3997 31.1638 10.3564 31.3873 10.3565 31.613V33.1599C10.3565 33.2055 10.3741 33.2492 10.4055 33.2814C10.4368 33.3137 10.4794 33.3318 10.5238 33.3318H12.0292C12.2489 33.3318 12.4664 33.2874 12.6693 33.201C12.8723 33.1146 13.0566 32.9879 13.2119 32.8283L15.0875 30.901L12.7222 28.4706L10.8465 30.3978Z" fill="#7ED957"/>
<path d="M39.2286 8.5252L18.7562 29.5611C18.5227 29.801 18.2253 29.9646 17.9015 30.0311L15.5088 30.5229C15.3065 30.5645 15.0973 30.5541 14.8998 30.4926C14.7023 30.4311 14.5227 30.3205 14.3768 30.1705L13.4317 29.1994C13.2859 29.0496 13.1784 28.865 13.1186 28.6621C13.0589 28.4593 13.0488 28.2444 13.0893 28.0366L13.5675 25.5781C13.6323 25.2454 13.7915 24.9399 14.0249 24.6999L34.4973 3.66406L39.2286 8.5252Z" fill="#FC9302"/>
<path d="M39.2287 8.52494L18.7564 29.5608C18.5229 29.8008 18.2255 29.9643 17.9017 30.0308L15.509 30.5226C15.3066 30.5642 15.0974 30.5538 14.8999 30.4924C14.7025 30.4309 14.5228 30.3202 14.377 30.1703L14.9875 27.0362C15.0521 26.7034 15.2113 26.3977 15.4449 26.1577L35.9168 5.12207L39.2287 8.52494Z" fill="#FDBF43"/>
<path d="M18.7565 29.5613L17.453 30.9008C17.2977 31.0604 17.1133 31.187 16.9103 31.2734C16.7074 31.3597 16.4899 31.4042 16.2702 31.4042C16.0505 31.4042 15.833 31.3597 15.6301 31.2734C15.4271 31.187 15.2427 31.0604 15.0874 30.9008L13.9047 32.1163L11.5391 29.6856L12.7221 28.4704C12.5668 28.3108 12.4435 28.1213 12.3595 27.9127C12.2754 27.7042 12.2321 27.4807 12.2321 27.255C12.2321 27.0293 12.2754 26.8058 12.3595 26.5972C12.4435 26.3887 12.5668 26.1992 12.7221 26.0396L14.0256 24.7002L18.7565 29.5613Z" fill="#006488"/>
</svg>
