<svg width="179" height="44" viewBox="0 0 179 44" fill="none" xmlns="http://www.w3.org/2000/svg">
<path d="M8 8.6168H11.2668V18.8133H14.2701V8.6168H17.5369V6.14438H8V8.6168ZM26.9685 10.2591C26.9685 11.2516 26.4416 11.8472 25.3175 11.8472H23.4558V8.70703H25.3175C26.4416 8.70703 26.9685 9.32063 26.9685 10.2591ZM20.4525 6.14438V18.8133H23.4558V14.0309H24.1759L26.7402 18.8133H30.1299L27.2847 13.7963C29.1815 13.2188 30.0245 11.7209 30.0245 10.1327C30.0245 7.93102 28.5141 6.14438 25.4932 6.14438H20.4525ZM41.7218 18.8133H44.9008L40.4397 6.14438H36.9621L32.501 18.8133H35.6448L36.3825 16.5755H40.9841L41.7218 18.8133ZM40.2113 14.1933H37.1729L38.6833 9.55523L40.2113 14.1933ZM47.1489 12.4608C47.1489 16.2506 49.7132 18.9035 53.3488 18.9035C56.2819 18.9035 58.4949 17.2252 59.1974 14.482H55.8955C55.3862 15.5648 54.4553 16.1063 53.3137 16.1063C51.4695 16.1063 50.2049 14.6986 50.2049 12.4608C50.2049 10.223 51.4695 8.81531 53.3137 8.81531C54.4553 8.81531 55.3862 9.35672 55.8955 10.4395H59.1974C58.4949 7.69641 56.2819 6 53.3488 6C49.7132 6 47.1489 8.67094 47.1489 12.4608ZM70.4731 6.14438V13.9948L65.45 6.14438H62.4467V18.8133H65.45V10.999L70.4731 18.8133H73.4765V6.14438H70.4731ZM82.8202 6C79.1319 6 76.5501 8.67094 76.5501 12.4608C76.5501 16.2506 79.1495 18.9035 82.8378 18.9035C86.087 18.9035 88.142 16.7198 88.7742 14.5362V11.6667H82.2406V13.9406H86.0519C85.5953 15.3663 84.559 16.1784 83.0661 16.1784C80.9058 16.1784 79.6061 14.8069 79.6061 12.4608C79.6061 10.2591 80.8883 8.85141 82.8202 8.85141C83.9443 8.85141 84.7873 9.30258 85.244 10.1508H88.5635C87.9136 7.55203 85.7709 6 82.8202 6ZM99.5231 18.8133H102.526V6.14438H99.5231V11.1073H94.8512V6.14438H91.8478V18.8133H94.8512V13.5977H99.5231V18.8133ZM106.092 18.8133H109.095V6.14438H106.092V18.8133ZM120.23 6.14438H112.678V18.8133H120.23V16.3409H115.681V13.5616H119.703V11.1795H115.681V8.6168H120.23V6.14438ZM123.585 18.8133H126.588V11.1975L129.363 18.8133H131.787L134.545 11.2155V18.8133H137.548V6.14438H134.018L130.593 14.9152L127.133 6.14438H123.585V18.8133ZM144.292 17.2973C144.292 16.3409 143.572 15.6009 142.518 15.6009C141.447 15.6009 140.727 16.3409 140.727 17.2973C140.727 18.2177 141.447 18.9577 142.518 18.9577C143.572 18.9577 144.292 18.2177 144.292 17.2973ZM152.793 15.7092L149.737 6.14438H146.54L150.914 18.8133H154.672L159.046 6.14438H155.867L152.793 15.7092ZM169.724 6.14438V13.9948L164.701 6.14438H161.698V18.8133H164.701V10.999L169.724 18.8133H172.727V6.14438H169.724Z" fill="white"/>
<path d="M33.1474 36.6876C33.583 36.6876 34.0582 36.5556 34.4674 36.4236L34.2298 35.526C33.9922 35.6184 33.6622 35.7108 33.4114 35.7108C32.5798 35.7108 32.3026 35.2092 32.3026 34.3248V30.3252H34.243V29.3484H32.3026V27.3288H31.2994L31.1542 29.3484L30.0322 29.4144V30.3252H31.1014V34.2984C31.1014 35.724 31.6162 36.6876 33.1474 36.6876Z" fill="white"/>
<path d="M35.866 36.516H37.0672V31.3152C37.7932 30.5892 38.2948 30.2196 39.034 30.2196C39.9844 30.2196 40.3936 30.7872 40.3936 32.1336V36.516H41.5948V31.9752C41.5948 30.1404 40.9084 29.1636 39.4036 29.1636C38.4268 29.1636 37.6876 29.7048 37.0276 30.3648L37.0672 28.8864V26.0088H35.866V36.516Z" fill="white"/>
<path d="M46.7748 36.6876C47.7516 36.6876 48.5172 36.3576 49.1508 35.9484L48.7152 35.1564C48.1872 35.5128 47.6196 35.724 46.92 35.724C45.5604 35.724 44.6232 34.7472 44.544 33.216H49.3752C49.4016 33.0444 49.428 32.7936 49.428 32.5296C49.428 30.4836 48.3984 29.1636 46.5768 29.1636C44.9136 29.1636 43.3428 30.6156 43.3428 32.9388C43.3428 35.3016 44.874 36.6876 46.7748 36.6876ZM44.5308 32.3448C44.676 30.9456 45.5736 30.1272 46.59 30.1272C47.712 30.1272 48.372 30.906 48.372 32.3448H44.5308Z" fill="white"/>
<path d="M55.2801 36.516H56.6925L57.6957 32.6748C57.8805 31.9884 58.0257 31.3152 58.1841 30.5892H58.2501C58.4217 31.3152 58.5537 31.9752 58.7385 32.6484L59.7813 36.516H61.2333L63.1605 29.3484H62.0253L60.9693 33.4932C60.8109 34.1796 60.6789 34.8264 60.5205 35.4996H60.4677C60.2961 34.8264 60.1377 34.1796 59.9661 33.4932L58.8441 29.3484H57.6693L56.5605 33.4932C56.3757 34.1664 56.2305 34.8264 56.0721 35.4996H56.0061C55.8741 34.8264 55.7289 34.1796 55.5837 33.4932L54.5145 29.3484H53.2869L55.2801 36.516Z" fill="white"/>
<path d="M66.2363 36.6876C67.1207 36.6876 67.9259 36.2256 68.6123 35.658H68.6519L68.7575 36.516H69.7475V32.1072C69.7475 30.3384 69.0083 29.1636 67.2659 29.1636C66.1175 29.1636 65.1011 29.6784 64.4411 30.1008L64.9163 30.9324C65.4839 30.5496 66.2363 30.1668 67.0679 30.1668C68.2427 30.1668 68.5463 31.0512 68.5463 31.9752C65.4971 32.3184 64.1375 33.0972 64.1375 34.6548C64.1375 35.9484 65.0351 36.6876 66.2363 36.6876ZM66.5795 35.724C65.8667 35.724 65.3123 35.394 65.3123 34.5756C65.3123 33.6516 66.1307 33.0576 68.5463 32.7672V34.7736C67.8467 35.394 67.2791 35.724 66.5795 35.724Z" fill="white"/>
<path d="M72.1559 39.6048C73.5815 39.6048 74.3339 38.5224 74.8223 37.11L77.5283 29.3484H76.3535L75.0731 33.3348C74.8751 33.9684 74.6639 34.6944 74.4659 35.3412H74.3999C74.1755 34.6944 73.9247 33.9552 73.7135 33.3348L72.2483 29.3484H70.9943L73.8719 36.5292L73.7135 37.0704C73.4231 37.9548 72.9083 38.6148 72.0899 38.6148C71.9051 38.6148 71.6939 38.5488 71.5487 38.496L71.3111 39.4596C71.5355 39.552 71.8127 39.6048 72.1559 39.6048Z" fill="white"/>
<path d="M81.9915 39.6048C83.417 39.6048 84.1694 38.5224 84.6578 37.11L87.3638 29.3484H86.189L84.9086 33.3348C84.7106 33.9684 84.4994 34.6944 84.3014 35.3412H84.2354C84.011 34.6944 83.7602 33.9552 83.549 33.3348L82.0839 29.3484H80.8298L83.7074 36.5292L83.549 37.0704C83.2586 37.9548 82.7438 38.6148 81.9254 38.6148C81.7407 38.6148 81.5294 38.5488 81.3842 38.496L81.1466 39.4596C81.371 39.552 81.6483 39.6048 81.9915 39.6048Z" fill="white"/>
<path d="M91.4899 36.6876C93.2455 36.6876 94.8163 35.3148 94.8163 32.9388C94.8163 30.5496 93.2455 29.1636 91.4899 29.1636C89.7343 29.1636 88.1635 30.5496 88.1635 32.9388C88.1635 35.3148 89.7343 36.6876 91.4899 36.6876ZM91.4899 35.6844C90.2491 35.6844 89.4175 34.5888 89.4175 32.9388C89.4175 31.2888 90.2491 30.1668 91.4899 30.1668C92.7307 30.1668 93.5755 31.2888 93.5755 32.9388C93.5755 34.5888 92.7307 35.6844 91.4899 35.6844Z" fill="white"/>
<path d="M98.7954 36.6876C99.7854 36.6876 100.498 36.1728 101.171 35.394H101.211L101.303 36.516H102.307V29.3484H101.105V34.4304C100.419 35.2884 99.9042 35.6448 99.165 35.6448C98.2146 35.6448 97.8186 35.0772 97.8186 33.744V29.3484H96.6174V33.8892C96.6174 35.7108 97.2906 36.6876 98.7954 36.6876Z" fill="white"/>
<path d="M108.947 36.6876C109.277 36.6876 109.475 36.648 109.646 36.582L109.475 35.658C109.343 35.6844 109.29 35.6844 109.224 35.6844C109.039 35.6844 108.881 35.5392 108.881 35.1696V26.0088H107.68V35.0904C107.68 36.1068 108.049 36.6876 108.947 36.6876Z" fill="white"/>
<path d="M114.335 36.6876C115.311 36.6876 116.077 36.3576 116.711 35.9484L116.275 35.1564C115.747 35.5128 115.179 35.724 114.48 35.724C113.12 35.724 112.183 34.7472 112.104 33.216H116.935C116.961 33.0444 116.988 32.7936 116.988 32.5296C116.988 30.4836 115.958 29.1636 114.137 29.1636C112.473 29.1636 110.903 30.6156 110.903 32.9388C110.903 35.3016 112.434 36.6876 114.335 36.6876ZM112.091 32.3448C112.236 30.9456 113.133 30.1272 114.15 30.1272C115.272 30.1272 115.932 30.906 115.932 32.3448H112.091Z" fill="white"/>
<path d="M120.196 36.6876C121.081 36.6876 121.886 36.2256 122.572 35.658H122.612L122.718 36.516H123.708V32.1072C123.708 30.3384 122.968 29.1636 121.226 29.1636C120.078 29.1636 119.061 29.6784 118.401 30.1008L118.876 30.9324C119.444 30.5496 120.196 30.1668 121.028 30.1668C122.203 30.1668 122.506 31.0512 122.506 31.9752C119.457 32.3184 118.098 33.0972 118.098 34.6548C118.098 35.9484 118.995 36.6876 120.196 36.6876ZM120.54 35.724C119.827 35.724 119.272 35.394 119.272 34.5756C119.272 33.6516 120.091 33.0576 122.506 32.7672V34.7736C121.807 35.394 121.239 35.724 120.54 35.724Z" fill="white"/>
<path d="M125.997 36.516H127.198V31.9092C127.674 30.6816 128.413 30.2592 129.007 30.2592C129.297 30.2592 129.469 30.2856 129.706 30.378L129.931 29.322C129.706 29.2032 129.482 29.1636 129.165 29.1636C128.36 29.1636 127.634 29.7444 127.132 30.6552H127.093L126.987 29.3484H125.997V36.516Z" fill="white"/>
<path d="M131.115 36.516H132.316V31.3152C133.042 30.5892 133.544 30.2196 134.283 30.2196C135.233 30.2196 135.642 30.7872 135.642 32.1336V36.516H136.844V31.9752C136.844 30.1404 136.157 29.1636 134.652 29.1636C133.676 29.1636 132.936 29.7048 132.25 30.378H132.21L132.105 29.3484H131.115V36.516Z" fill="white"/>
</svg>
