<svg width="30" height="30" viewBox="0 0 30 30" fill="none" xmlns="http://www.w3.org/2000/svg">
<g filter="url(#filter0_d)">
<circle cx="15" cy="11" r="11" fill="#0747A6"/>
<path fill-rule="evenodd" clip-rule="evenodd" d="M8 11C8 12.8565 8.7375 14.637 10.0503 15.9497C11.363 17.2625 13.1435 18 15 18C16.8565 18 18.637 17.2625 19.9497 15.9497C21.2625 14.637 22 12.8565 22 11C22 9.14348 21.2625 7.36301 19.9497 6.05025C18.637 4.7375 16.8565 4 15 4C13.1435 4 11.363 4.7375 10.0503 6.05025C8.7375 7.36301 8 9.14348 8 11V11ZM23 11C23 13.1217 22.1571 15.1566 20.6569 16.6569C19.1566 18.1571 17.1217 19 15 19C12.8783 19 10.8434 18.1571 9.34315 16.6569C7.84285 15.1566 7 13.1217 7 11C7 8.87827 7.84285 6.84344 9.34315 5.34315C10.8434 3.84285 12.8783 3 15 3C17.1217 3 19.1566 3.84285 20.6569 5.34315C22.1571 6.84344 23 8.87827 23 11V11ZM18.5 10.5C18.6326 10.5 18.7598 10.5527 18.8536 10.6464C18.9473 10.7402 19 10.8674 19 11C19 11.1326 18.9473 11.2598 18.8536 11.3536C18.7598 11.4473 18.6326 11.5 18.5 11.5H12.707L14.854 13.646C14.9005 13.6925 14.9374 13.7477 14.9625 13.8084C14.9877 13.8692 15.0006 13.9343 15.0006 14C15.0006 14.0657 14.9877 14.1308 14.9625 14.1916C14.9374 14.2523 14.9005 14.3075 14.854 14.354C14.8075 14.4005 14.7523 14.4374 14.6916 14.4625C14.6308 14.4877 14.5657 14.5006 14.5 14.5006C14.4343 14.5006 14.3692 14.4877 14.3084 14.4625C14.2477 14.4374 14.1925 14.4005 14.146 14.354L11.146 11.354C11.0994 11.3076 11.0625 11.2524 11.0373 11.1916C11.0121 11.1309 10.9991 11.0658 10.9991 11C10.9991 10.9342 11.0121 10.8691 11.0373 10.8084C11.0625 10.7476 11.0994 10.6924 11.146 10.646L14.146 7.646C14.2399 7.55211 14.3672 7.49937 14.5 7.49937C14.6328 7.49937 14.7601 7.55211 14.854 7.646C14.9479 7.73989 15.0006 7.86722 15.0006 8C15.0006 8.13278 14.9479 8.26011 14.854 8.354L12.707 10.5H18.5Z" fill="white"/>
</g>
<defs>
<filter id="filter0_d" x="0" y="0" width="30" height="30" filterUnits="userSpaceOnUse" color-interpolation-filters="sRGB">
<feFlood flood-opacity="0" result="BackgroundImageFix"/>
<feColorMatrix in="SourceAlpha" type="matrix" values="0 0 0 0 0 0 0 0 0 0 0 0 0 0 0 0 0 0 127 0" result="hardAlpha"/>
<feOffset dy="4"/>
<feGaussianBlur stdDeviation="2"/>
<feComposite in2="hardAlpha" operator="out"/>
<feColorMatrix type="matrix" values="0 0 0 0 0 0 0 0 0 0 0 0 0 0 0 0 0 0 0.25 0"/>
<feBlend mode="normal" in2="BackgroundImageFix" result="effect1_dropShadow"/>
<feBlend mode="normal" in="SourceGraphic" in2="effect1_dropShadow" result="shape"/>
</filter>
</defs>
</svg>
