<svg width="30" height="30" viewBox="0 0 30 30" fill="none" xmlns="http://www.w3.org/2000/svg">
<circle cx="15" cy="15" r="15" fill="#0747A6"/>
<g clip-path="url(#clip0_1407:2757)">
<path fill-rule="evenodd" clip-rule="evenodd" d="M5.45446 14.9999C5.45446 17.5315 6.46014 19.9594 8.25026 21.7496C10.0404 23.5397 12.4683 24.5454 14.9999 24.5454C17.5315 24.5454 19.9594 23.5397 21.7496 21.7496C23.5397 19.9594 24.5454 17.5315 24.5454 14.9999C24.5454 12.4683 23.5397 10.0404 21.7496 8.25026C19.9594 6.46014 17.5315 5.45446 14.9999 5.45446C12.4683 5.45446 10.0404 6.46014 8.25026 8.25026C6.46014 10.0404 5.45446 12.4683 5.45446 14.9999V14.9999ZM25.909 14.9999C25.909 17.8932 24.7597 20.668 22.7138 22.7138C20.668 24.7597 17.8932 25.909 14.9999 25.909C12.1066 25.909 9.33187 24.7597 7.28602 22.7138C5.24017 20.668 4.09082 17.8932 4.09082 14.9999C4.09082 12.1066 5.24017 9.33187 7.28602 7.28602C9.33187 5.24017 12.1066 4.09082 14.9999 4.09082C17.8932 4.09082 20.668 5.24017 22.7138 7.28602C24.7597 9.33187 25.909 12.1066 25.909 14.9999V14.9999ZM19.7726 14.3181C19.9535 14.3181 20.1269 14.3899 20.2548 14.5178C20.3826 14.6457 20.4545 14.8191 20.4545 14.9999C20.4545 15.1807 20.3826 15.3542 20.2548 15.482C20.1269 15.6099 19.9535 15.6817 19.7726 15.6817H11.8731L14.8008 18.6081C14.8642 18.6715 14.9145 18.7467 14.9488 18.8296C14.9831 18.9124 15.0008 19.0012 15.0008 19.0908C15.0008 19.1805 14.9831 19.2692 14.9488 19.3521C14.9145 19.4349 14.8642 19.5102 14.8008 19.5735C14.7374 19.6369 14.6622 19.6872 14.5793 19.7215C14.4965 19.7558 14.4077 19.7735 14.3181 19.7735C14.2284 19.7735 14.1397 19.7558 14.0568 19.7215C13.974 19.6872 13.8988 19.6369 13.8354 19.5735L9.74446 15.4826C9.68096 15.4193 9.63058 15.3441 9.59621 15.2612C9.56184 15.1784 9.54415 15.0896 9.54415 14.9999C9.54415 14.9102 9.56184 14.8214 9.59621 14.7386C9.63058 14.6558 9.68096 14.5805 9.74446 14.5172L13.8354 10.4263C13.9634 10.2982 14.137 10.2263 14.3181 10.2263C14.4992 10.2263 14.6728 10.2982 14.8008 10.4263C14.9288 10.5543 15.0008 10.7279 15.0008 10.909C15.0008 11.0901 14.9288 11.2637 14.8008 11.3917L11.8731 14.3181H19.7726Z" fill="white"/>
</g>
<defs>
<clipPath id="clip0_1407:2757">
<rect width="21.8182" height="21.8182" fill="white" transform="translate(4.09082 4.09082)"/>
</clipPath>
</defs>
</svg>
