<svg xmlns="http://www.w3.org/2000/svg" width="2591.63" height="512" viewBox="0 0 2591.63 512">
  <g id="logo-tracnghiemvn" transform="translate(-116 -256)">
    <g id="test" transform="translate(116 256)">
      <rect id="Rectangle_1" data-name="Rectangle 1" width="512" height="512" rx="20" fill="#145da0"/>
      <path id="Path_2" data-name="Path 2" d="M271.832,159V148a2,2,0,0,1,2-2H394a2,2,0,0,1,2,2v11a2,2,0,0,1-2,2H273.832A2,2,0,0,1,271.832,159ZM424,366H273.832a2,2,0,0,0-2,2v11a2,2,0,0,0,2,2H424a2,2,0,0,0,2-2V368A2,2,0,0,0,424,366ZM273.832,351H394a2,2,0,0,0,2-2V338a2,2,0,0,0-2-2H273.832a2,2,0,0,0-2,2v11A2,2,0,0,0,273.832,351ZM424,306H273.832a2,2,0,0,0-2,2v11a2,2,0,0,0,2,2H424a2,2,0,0,0,2-2V308A2,2,0,0,0,424,306Zm0-130H273.832a2,2,0,0,0-2,2v11a2,2,0,0,0,2,2H424a2,2,0,0,0,2-2V178A2,2,0,0,0,424,176Zm0-60H273.832a2,2,0,0,0-2,2v11a2,2,0,0,0,2,2H424a2,2,0,0,0,2-2V118A2,2,0,0,0,424,116Zm0,0" fill="#fff"/>
      <path id="Path_3" data-name="Path 3" d="M151,278.5A72.5,72.5,0,1,0,223.5,351,72.582,72.582,0,0,0,151,278.5Zm0,130A57.5,57.5,0,1,1,208.5,351,57.563,57.563,0,0,1,151,408.5Zm0-175A72.5,72.5,0,1,0,78.5,161,72.582,72.582,0,0,0,151,233.5Zm0-130A57.5,57.5,0,1,1,93.5,161,57.563,57.563,0,0,1,151,103.5Zm0,0" fill="#fff"/>
      <path id="Path_4" data-name="Path 4" d="M488.07,80.5l-28.285,28.285a10,10,0,0,1-14.141,0L403.218,66.355a10,10,0,0,1,0-14.141L431.5,23.93a10,10,0,0,1,14.141,0L488.07,66.355A10,10,0,0,1,488.07,80.5Zm0,0" fill="#024c67"/>
      <path id="Path_5" data-name="Path 5" d="M257.2,94.082,156.039,195.234a4.408,4.408,0,0,1-6.238,0L105.68,151.125a2.207,2.207,0,0,1,0-3.117l12.477-12.48a2.211,2.211,0,0,1,3.121,0l30.078,30.078a2.2,2.2,0,0,0,3.117,0L241.6,78.484a2.207,2.207,0,0,1,3.117,0l12.477,12.477a2.208,2.208,0,0,1,0,3.121Zm-115.555,248a19.983,19.983,0,0,0-5.859,14.141v18a2,2,0,0,0,2,2h18a19.983,19.983,0,0,0,14.141-5.859l22.426-22.426-28.281-28.281Zm0,0" fill="#7ed957"/>
      <path id="Path_6" data-name="Path 6" d="M481,87.566,236.219,332.347A19.988,19.988,0,0,1,226,337.816l-28.609,5.723a14.98,14.98,0,0,1-13.535-4.1l-11.3-11.3a14.98,14.98,0,0,1-4.094-13.531L174.18,286a20,20,0,0,1,5.469-10.219L424.43,31Zm0,0" fill="#fc9302"/>
      <path id="Path_7" data-name="Path 7" d="M481,87.566,236.219,332.347A19.988,19.988,0,0,1,226,337.816l-28.609,5.723a14.98,14.98,0,0,1-13.535-4.1l7.3-36.469a19.985,19.985,0,0,1,5.469-10.223L441.4,47.969Zm0,0" fill="#fdbf43"/>
      <path id="Path_8" data-name="Path 8" d="M236.219,332.348l-15.586,15.586a20,20,0,0,1-28.285,0l-14.141,14.145-28.285-28.285,14.145-14.141a20,20,0,0,1,0-28.285l15.586-15.586Zm0,0" fill="#024c67"/>
    </g>
    <path id="Path_9" data-name="Path 9" d="M5.04-118.65H44.1V0H80.01V-118.65h39.06v-28.77H5.04Zm226.8,19.11c0,11.55-6.3,18.48-19.74,18.48H189.84V-117.6H212.1C225.54-117.6,231.84-110.46,231.84-99.54Zm-77.91-47.88V0h35.91V-55.65h8.61L229.11,0h40.53L235.62-58.38c22.68-6.72,32.76-24.15,32.76-42.63,0-25.62-18.06-46.41-54.18-46.41ZM408.24,0h38.01L392.91-147.42H351.33L297.99,0h37.59l8.82-26.04h55.02ZM390.18-53.76H353.85l18.06-53.97Zm82.95-20.16c0,44.1,30.66,74.97,74.13,74.97,35.07,0,61.53-19.53,69.93-51.45H577.71c-6.09,12.6-17.22,18.9-30.87,18.9-22.05,0-37.17-16.38-37.17-42.42s15.12-42.42,37.17-42.42c13.65,0,24.78,6.3,30.87,18.9h39.48c-8.4-31.92-34.86-51.66-69.93-51.66C503.79-149.1,473.13-118.02,473.13-73.92Zm278.88-73.5v91.35l-60.06-91.35H656.04V0h35.91V-90.93L752.01,0h35.91V-147.42Zm147.63-1.68c-44.1,0-74.97,31.08-74.97,75.18S855.75,1.05,899.85,1.05c38.85,0,63.42-25.41,70.98-50.82V-83.16H892.71V-56.7h45.57c-5.46,16.59-17.85,26.04-35.7,26.04-25.83,0-41.37-15.96-41.37-43.26,0-25.62,15.33-42,38.43-42,13.44,0,23.52,5.25,28.98,15.12h39.69C960.54-131.04,934.92-149.1,899.64-149.1ZM1099.35,0h35.91V-147.42h-35.91v57.75h-55.86v-57.75h-35.91V0h35.91V-60.69h55.86Zm78.54,0h35.91V-147.42h-35.91Zm169.05-147.42h-90.3V0h90.3V-28.77h-54.39V-61.11h48.09V-88.83h-48.09v-29.82h54.39ZM1387.05,0h35.91V-88.62L1456.14,0h28.98l32.97-88.41V0H1554V-147.42h-42.21L1470.84-45.36l-41.37-102.06h-42.42Zm247.59-17.64c0-11.13-8.61-19.74-21.21-19.74-12.81,0-21.42,8.61-21.42,19.74,0,10.71,8.61,19.32,21.42,19.32C1626.03,1.68,1634.64-6.93,1634.64-17.64Zm101.64-18.48-36.54-111.3h-38.22L1713.81,0h44.94l52.29-147.42h-38.01Zm202.44-111.3v91.35l-60.06-91.35h-35.91V0h35.91V-90.93L1938.72,0h35.91V-147.42Z" transform="translate(733 498)" fill="#145da0"/>
    <path id="Path_10" data-name="Path 10" d="M11.646-18.9V-46.143H6.958v-.586l10.107-9.595v41.748q0,7.178,1.392,9.961A9.553,9.553,0,0,0,22.266-.366q-6.006-.439-8.35-4.395Q11.646-8.643,11.646-18.9ZM27.393-67.529V-51.2H39.917a14.167,14.167,0,0,0,5.2-.732,15,15,0,0,0,4.395-3.3h1.831Q46.875-49,44.971-47.534A9.162,9.162,0,0,1,39.4-46.143H27.393v27.979a36.9,36.9,0,0,0,.659,8.569A7.16,7.16,0,0,0,30.908-5.64,10.879,10.879,0,0,0,37.28-4.028q8.13,0,14.063-7.617l1.538.879Q46.875.879,35.449.879a14.472,14.472,0,0,1-8.2-2.2,10.473,10.473,0,0,1-4.468-5.566,34.229,34.229,0,0,1-1.1-9.888V-60.864A80.89,80.89,0,0,0,27.393-67.529ZM117.92,0V-37.28q0-6.519-1.392-9.3a11.273,11.273,0,0,0-5.347-4.761q6.665.513,9.448,3.809,2.637,3.149,2.637,10.986v22.559q0,11.865,9.155,13.55V.879Q124.219.146,117.92,0ZM76.611,0V-88.55q2.783,0,6.445-.366-.952,16.187-.952,20.8v18.677a31.742,31.742,0,0,1,15.161-3.589,19.565,19.565,0,0,1,10.84,3.223q4.907,3.149,4.907,12.451V0h-6.079q.659-11.353.659-18.53V-33.179a35.475,35.475,0,0,0-.806-8.862,8.077,8.077,0,0,0-3.662-4.541,13.329,13.329,0,0,0-7.1-1.758A31.884,31.884,0,0,0,82.1-45.19v28.052q0,8.276,1.392,11.353,1.465,3.3,6.519,5.347V.879Q78.955,0,76.611,0ZM71.851-88.55V0Q67.163.146,57.788.879V-.439q5.347-1.538,6.958-5.347,1.611-3.662,1.611-13.7V-71.924q0-8.057-1.685-11.572-1.758-3.3-6.812-4.614v-1.245Q67.529-88.7,71.851-88.55ZM150.22-5.859l-.293.439q-11.06-6.372-11.06-20A26.992,26.992,0,0,1,140.845-35.6q1.978-4.907,8.276-9.888l.366.366q-4.614,7.983-4.614,19.189Q144.873-14.282,150.22-5.859Zm51.2-23.511H194.9q-.366-13.33-6.958-19.556Q199.731-44.019,201.416-29.37Zm-44.751-5.42h26.074a17.285,17.285,0,0,0-3.442-9.375q-3.223-4.1-9.229-4.1a12.123,12.123,0,0,0-9.009,3.735A16.269,16.269,0,0,0,156.665-34.79Zm33.4,5.42H156.079q-.146,3.662-.146,4.468,0,9.521,5.2,15.308a17.468,17.468,0,0,0,13.55,5.713,21.848,21.848,0,0,0,12.451-3.735,26.2,26.2,0,0,0,8.789-10.034h3.149Q192.334,1.611,173.438,1.611q-11.353,0-17.5-7.91-6.152-7.837-6.152-19.849,0-11.572,5.713-19.263a17.5,17.5,0,0,1,14.722-7.617,17.807,17.807,0,0,1,12.891,5.493Q188.6-42.114,190.063-29.37Zm140.552-7.764L316.553-9.082,294.8-52.222q5.859,0,15.747-.806v1.245q-5.786,1.318-5.786,5.347,0,2.344,2.2,6.665l9.595,18.457,7.69-15.161q2.563-5.273,2.563-8.862,0-5.566-6.006-6.445v-1.245q9.448.806,12.3.806,4.1,0,11.792-.806l-.22,1.245q-8.5,2.417-13.257,12.964Q331.055-38.013,330.615-37.134ZM289.307-52.222,313.843-3.589l-2.49,4.98h-.879l-16.7-33.4-11.5,22.925L260.3-52.222q9.888-.439,13.037-.806v1.245q-3.809,1.318-3.809,4.248,0,1.9,2.2,6.226L282.275-20.8l8.5-16.919-2.344-4.614q-3.882-7.4-10.4-9.448v-1.245Q283.447-52.441,289.307-52.222Zm-34.351,0,24.536,48.56L277,1.392h-.732l-20.581-40.5a38.625,38.625,0,0,0-5.933-8.936,13.729,13.729,0,0,0-7.1-3.735v-1.245ZM360.5-26.733a19.879,19.879,0,0,0-4.614,12.671A17.216,17.216,0,0,0,361.6-.732a16.14,16.14,0,0,1-7.91-4.468,11.5,11.5,0,0,1-3.589-8.789Q350.1-23.437,360.5-26.733ZM407.593.879,393.53,0V-38.013q0-5.786-1.1-8.5a11.106,11.106,0,0,0-4.321-4.761q6.372,1.245,8.643,4.541,2.271,3.369,2.271,12.085v22.632q0,5.786,1.611,8.276,1.538,2.49,6.958,3.3ZM383.276-6.079V-25.2a34.957,34.957,0,0,0-4.1-.293q-5.786,0-9.009,3.516a11.93,11.93,0,0,0-3.223,8.2,10.085,10.085,0,0,0,2.71,7.1,8.76,8.76,0,0,0,6.738,3.076A11.48,11.48,0,0,0,383.276-6.079Zm0-23.145v-7.764q0-5.273-2.124-8.276-2.2-2.93-8.5-2.93A21.523,21.523,0,0,0,356.1-40.8l-1.831-1.758a20.29,20.29,0,0,1,8.569-7.617A27.426,27.426,0,0,1,375-53.027q13.7,0,13.7,14.941V0a21.7,21.7,0,0,0-5.64.879L383.276-3A11.58,11.58,0,0,1,374.561.879a12.209,12.209,0,0,1-9.668-4.541,15.2,15.2,0,0,1-3.955-10.254A15.147,15.147,0,0,1,365.771-25.2q4.688-4.687,12.524-4.687A19.392,19.392,0,0,1,383.276-29.224Zm73.682,57.129v1.318l-23,4.688L451.465,0,426.636-38.379q-7.837-12.012-16.187-13.4v-1.245q4.614.586,13.33,1.245L457.471,0l-7.69,14.868q-2.417,4.761-2.417,7.69a4.389,4.389,0,0,0,2.49,4.028,10.137,10.137,0,0,0,5.054,1.465Q455.2,28.052,456.958,27.905Zm19.189-63.94L460.181-5.347l-30.4-46.436q11.279-.586,16.479-1.245v1.245q-5.347,1.538-5.347,5.2,0,2.417,3.149,7.324l15.381,23.73,10.327-19.922q3.442-6.885,3.442-9.741,0-4.687-7.178-6.592v-1.245q-.293,0,4.248.366,5.933.439,9.375.439a95.949,95.949,0,0,0,11.426-.806v1.245Q482.446-48.34,476.147-36.035Zm98.73,63.94v1.318l-23,4.688L569.385,0,544.556-38.379q-7.837-12.012-16.187-13.4v-1.245q4.614.586,13.33,1.245L575.391,0,567.7,14.868q-2.417,4.761-2.417,7.69a4.389,4.389,0,0,0,2.49,4.028,10.137,10.137,0,0,0,5.054,1.465Q573.12,28.052,574.878,27.905Zm19.189-63.94L578.1-5.347l-30.4-46.436q11.279-.586,16.479-1.245v1.245q-5.347,1.538-5.347,5.2,0,2.417,3.149,7.324l15.381,23.73L587.7-35.449q3.442-6.885,3.442-9.741,0-4.687-7.178-6.592v-1.245q-.293,0,4.248.366,5.933.439,9.375.439a95.949,95.949,0,0,0,11.426-.806v1.245Q600.366-48.34,594.067-36.035Zm32.52-12.524q-6.812,7.544-6.812,22.266t6.812,22.559q-12.671-7.178-12.671-22.852Q613.916-42.041,626.587-48.56ZM666.87-4.541q6.738-7.544,6.738-20.947A55.416,55.416,0,0,0,672-39.111q-1.685-6.519-5.127-9.521,12.817,7.1,12.817,21.826Q679.688-12.671,666.87-4.541ZM630.908-26.733q0,13.4,4.1,18.164t11.646,4.761a14.6,14.6,0,0,0,11.5-4.98q4.321-4.98,4.321-18.164,0-22.192-15.82-22.192Q630.908-49.146,630.908-26.733Zm-6.152,1.172q0-14.209,5.786-21.167,5.859-7.031,16.113-7.031A21.342,21.342,0,0,1,662.4-47.534q6.226,6.226,6.226,20.581,0,15.747-6.665,21.973a22.068,22.068,0,0,1-15.527,6.3,20.38,20.38,0,0,1-15.308-6.592Q624.756-11.792,624.756-25.562ZM746.777,0V-52.222q8.862-.146,14.648-.806v1.245q-5.2,1.245-7.178,4.614t-1.978,10.693v20.288q0,7.764,1.978,11.279,1.978,3.442,7.178,4.468V.879q-2.49-.293-7.4-.586T746.777,0ZM741.87-52.222V0A35.638,35.638,0,0,0,736.3.439q.073-.806.11-2.124T736.45-4.1Q727.075.879,719.312.879a13.939,13.939,0,0,1-8.569-2.417,10.443,10.443,0,0,1-4.248-5.933,39.669,39.669,0,0,1-1.025-10.107V-52.222q2.2,0,6.006-.366a28.367,28.367,0,0,0-.366,4.468q-.073,1.978-.22,3.735v28.418q0,6.665,2.051,9.375,2.124,2.856,8.35,2.856T736.45-8.643V-37.28q0-6.885-1.831-10.107t-6.812-4.395v-1.245q3.735.439,6.738.549T741.87-52.222Zm-55.884.439v-1.245q6.592.659,14.648.806v35.156q0,8.276,1.172,11.133a13.736,13.736,0,0,0,3.662,5.127,12.205,12.205,0,0,1-7.178-3.149q-3.149-2.71-3.149-11.865V-35.962q0-7.617-1.831-10.986Q691.406-50.244,685.986-51.782Zm155.273,49,.366,1.538a12.125,12.125,0,0,1-7.69,2.71q-6.006,0-8.862-4.614Q822.217-7.69,822.217-18.6V-88.55q4.395-.146,6.226-.366-.806,12.524-.806,18.018v49.072a111.658,111.658,0,0,0,.439,12.3,8.515,8.515,0,0,0,2.71,5.42,8.317,8.317,0,0,0,6.152,2.2A11.581,11.581,0,0,0,841.26-2.783ZM817.383-88.55v69.873q0,9.961,1.1,13.037A21.7,21.7,0,0,0,822,.586a12.568,12.568,0,0,1-6.226-3.735,13.273,13.273,0,0,1-3-6.519,77.393,77.393,0,0,1-.732-13.037V-71.777a50.826,50.826,0,0,0-.513-9.009,9.439,9.439,0,0,0-2.637-4.687,9.75,9.75,0,0,0-5.347-2.637v-1.245q2.271,0,6.958.439Q812.842-88.7,817.383-88.55Zm41.309,82.69-.293.439q-11.06-6.372-11.06-20A26.992,26.992,0,0,1,849.316-35.6q1.978-4.907,8.276-9.888l.366.366q-4.614,7.983-4.614,19.189Q853.345-14.282,858.691-5.859Zm51.2-23.511h-6.519Q903-42.7,896.411-48.926,908.2-44.019,909.888-29.37Zm-44.751-5.42h26.074a17.285,17.285,0,0,0-3.442-9.375q-3.223-4.1-9.229-4.1a12.123,12.123,0,0,0-9.009,3.735A16.269,16.269,0,0,0,865.137-34.79Zm33.4,5.42H864.551q-.146,3.662-.146,4.468,0,9.521,5.2,15.308a17.468,17.468,0,0,0,13.55,5.713,21.848,21.848,0,0,0,12.451-3.735,26.2,26.2,0,0,0,8.789-10.034h3.149Q900.806,1.611,881.909,1.611q-11.353,0-17.5-7.91-6.152-7.837-6.152-19.849,0-11.572,5.713-19.263a17.5,17.5,0,0,1,14.722-7.617,17.807,17.807,0,0,1,12.891,5.493Q897.07-42.114,898.535-29.37Zm29.077,2.637A19.879,19.879,0,0,0,923-14.062a17.216,17.216,0,0,0,5.713,13.33A16.14,16.14,0,0,1,920.8-5.2a11.5,11.5,0,0,1-3.589-8.789Q917.212-23.437,927.612-26.733ZM974.707.879,960.645,0V-38.013q0-5.786-1.1-8.5a11.106,11.106,0,0,0-4.321-4.761q6.372,1.245,8.643,4.541,2.271,3.369,2.271,12.085v22.632q0,5.786,1.611,8.276,1.538,2.49,6.958,3.3ZM950.391-6.079V-25.2a34.957,34.957,0,0,0-4.1-.293q-5.786,0-9.009,3.516a11.93,11.93,0,0,0-3.223,8.2,10.085,10.085,0,0,0,2.71,7.1,8.76,8.76,0,0,0,6.738,3.076A11.48,11.48,0,0,0,950.391-6.079Zm0-23.145v-7.764q0-5.273-2.124-8.276-2.2-2.93-8.5-2.93a21.523,21.523,0,0,0-16.553,7.4l-1.831-1.758a20.29,20.29,0,0,1,8.569-7.617,27.426,27.426,0,0,1,12.158-2.856q13.7,0,13.7,14.941V0a21.7,21.7,0,0,0-5.64.879L950.391-3A11.58,11.58,0,0,1,941.675.879a12.209,12.209,0,0,1-9.668-4.541,15.2,15.2,0,0,1-3.955-10.254A15.147,15.147,0,0,1,932.886-25.2q4.688-4.687,12.524-4.687A19.392,19.392,0,0,1,950.391-29.224Zm44.458-23V0q-10.767.146-14.575.879V-.439q5.933-2.124,7.617-5.2,1.758-3.223,1.758-11.5v-18.9q0-7.837-2.051-11.206-2.124-3.442-7.324-4.541v-1.245Q982.544-52.588,994.849-52.222ZM1000.122,0V-52.222a33.838,33.838,0,0,0,5.859-.806,86.23,86.23,0,0,0-.586,9.814q7.69-9.814,10.986-9.814,1.9,0,7.031,2.124,4.468,1.9,6.079,1.9,2.124,0,4.761-3a2.559,2.559,0,0,0,.293-.33,8.9,8.9,0,0,1,.659-.7l1.685.806q-3.516,7.91-9.082,7.91-1.9,0-7.4-2.417a9.392,9.392,0,0,0-3.442-1.025q-3.516,0-7.471,4.541a11.31,11.31,0,0,1,3.223-.586q2.051,0,7.544,2.49a17.135,17.135,0,0,0,5.713,1.685,4.763,4.763,0,0,0,2.417-.732q-3.589,4.614-6.958,4.614a13.975,13.975,0,0,1-5.054-1.685q-5.054-2.49-7.031-2.49a5.557,5.557,0,0,0-3.955,2.124v22.266q0,7.471,2.417,10.913t7.764,4.175V.879A152.849,152.849,0,0,0,1000.122,0Zm101,0V-35.742q0-7.4-1.025-10.693-.952-3-4.687-5.347a11.941,11.941,0,0,1,7.983,3.442q3,3.149,3,14.282v17.065a37.626,37.626,0,0,0,.732,8.936,8.983,8.983,0,0,0,3.076,4.907,11.062,11.062,0,0,0,5.566,2.71V.879q-2.417-.22-8.02-.549T1101.123,0Zm-46.582-52.222V0q-7.544.366-13.11.879V-.439a11.333,11.333,0,0,0,5.493-3.955q2.2-2.856,2.2-13.7V-36.108q0-7.324-1.685-10.84-1.758-3.3-7.1-4.834v-1.245Q1043.774-52.588,1054.541-52.222ZM1059.741,0V-52.222q3.882-.146,5.859-.366l-.513,3.882q9.155-4.614,16.992-4.614a14.781,14.781,0,0,1,8.643,2.49,10.823,10.823,0,0,1,4.395,5.786A45.994,45.994,0,0,1,1096-34.351V0q-3,.146-5.859.439.513-9.155.513-12.817V-35.742q0-7.178-2.051-10.107-2.124-3-7.617-3-5.859,0-15.894,4.834v29.81q0,11.719,8.643,13.77V.879Q1064.941,0,1059.741,0Z" transform="translate(1084 679)" fill="#051d40"/>
  </g>
</svg>
